<?xml version="1.0" standalone="no"?>
<!DOCTYPE svg PUBLIC "-//W3C//DTD SVG 1.1//EN" "http://www.w3.org/Graphics/SVG/1.1/DTD/svg11.dtd">
<svg width="3000px" height="3000px" version="1.1" xmlns="http://www.w3.org/2000/svg" xmlns:xlink="http://www.w3.org/1999/xlink">
<g id="ideograms">
<path d="M 1500.000,275.000 A1225.000,1225.000 0.000 0,1 2724.915,1514.406 L 2774.912,1514.994 A1275.000,1275.000 0.000 0,0 1500.000,225.000 Z " style="stroke: none;  fill: rgb(230,46,46); " />
<path d="M 1500.000,275.000 A1225.000,1225.000 0.000 0,1 2724.915,1514.406 L 2774.912,1514.994 A1275.000,1275.000 0.000 0,0 1500.000,225.000 Z " style="stroke: none;  fill: none; " />
<path d="M 2724.546,1533.360 A1225.000,1225.000 0.000 0,1 1690.657,2710.072 L 1698.439,2759.463 A1275.000,1275.000 0.000 0,0 2774.527,1534.721 Z " style="stroke: none;  fill: rgb(46,68,230); " />
<path d="M 2724.546,1533.360 A1225.000,1225.000 0.000 0,1 1690.657,2710.072 L 1698.439,2759.463 A1275.000,1275.000 0.000 0,0 2774.527,1534.721 Z " style="stroke: none;  fill: none; " />
<path d="M 1671.908,2712.878 A1225.000,1225.000 0.000 0,1 458.582,2145.037 L 416.075,2171.365 A1275.000,1275.000 0.000 0,0 1678.925,2762.383 Z " style="stroke: none;  fill: rgb(126,229,46); " />
<path d="M 1671.908,2712.878 A1225.000,1225.000 0.000 0,1 458.582,2145.037 L 416.075,2171.365 A1275.000,1275.000 0.000 0,0 1678.925,2762.383 Z " style="stroke: none;  fill: none; " />
<path d="M 448.724,2128.844 A1225.000,1225.000 0.000 0,1 397.937,965.133 L 352.955,943.302 A1275.000,1275.000 0.000 0,0 405.815,2154.511 Z " style="stroke: none;  fill: rgb(46,215,230); " />
<path d="M 448.724,2128.844 A1225.000,1225.000 0.000 0,1 397.937,965.133 L 352.955,943.302 A1275.000,1275.000 0.000 0,0 405.815,2154.511 Z " style="stroke: none;  fill: none; " />
<path d="M 406.346,948.143 A1225.000,1225.000 0.000 0,1 1038.219,365.371 L 1019.370,319.060 A1275.000,1275.000 0.000 0,0 361.707,925.618 Z " style="stroke: none;  fill: rgb(46,229,138); " />
<path d="M 406.346,948.143 A1225.000,1225.000 0.000 0,1 1038.219,365.371 L 1019.370,319.060 A1275.000,1275.000 0.000 0,0 361.707,925.618 Z " style="stroke: none;  fill: none; " />
<path d="M 1055.832,358.361 A1225.000,1225.000 0.000 0,1 1481.043,275.147 L 1480.269,225.153 A1275.000,1275.000 0.000 0,0 1037.703,311.763 Z " style="stroke: none;  fill: rgb(178,229,46); " />
<path d="M 1055.832,358.361 A1225.000,1225.000 0.000 0,1 1481.043,275.147 L 1480.269,225.153 A1275.000,1275.000 0.000 0,0 1037.703,311.763 Z " style="stroke: none;  fill: none; " />
</g>
<g id="cellvalues">
<path d="M 1395.418,278.695 A 1225.775,1225.775 0.00 0,1 1481.0,274.4 Q 1500.0,1500.0 967.2,415.0 A 1208.775,1208.775 0.00 0,1 1044.3,380.4 Q 1500.0,1500.0 1395.4,278.7 Z" style="stroke-width: 1.0;  stroke: rgb(0,0,0); fill: rgb(178,229,46); opacity: 0.800;"/>
</g>
<g id="cellvalues">
<path d="M 1240.089,302.097 A 1225.775,1225.775 0.00 0,1 1395.4,278.7 Q 1500.0,1500.0 354.0,1115.6 A 1208.775,1208.775 0.00 0,1 412.5,972.2 Q 1500.0,1500.0 1240.1,302.1 Z" style="stroke-width: 1.0;  stroke: rgb(0,0,0); fill: rgb(178,229,46); opacity: 0.800;"/>
</g>
<g id="cellvalues">
<path d="M 1055.551,357.638 A 1225.775,1225.775 0.00 0,1 1240.1,302.1 Q 1500.0,1500.0 1873.0,2649.8 A 1208.775,1208.775 0.00 0,1 1688.1,2694.0 Q 1500.0,1500.0 1055.6,357.6 Z" style="stroke-width: 1.0;  stroke: rgb(0,0,0); fill: rgb(178,229,46); opacity: 0.800;"/>
</g>
<g id="cellvalues">
<path d="M 2678.144,1161.619 A 1225.775,1225.775 0.00 0,1 2725.7,1514.4 Q 1500.0,1500.0 677.9,613.8 A 1208.775,1208.775 0.00 0,1 967.2,415.0 Q 1500.0,1500.0 2678.1,1161.6 Z" style="stroke-width: 1.0;  stroke: rgb(0,0,0); fill: rgb(230,46,46); opacity: 0.800;"/>
</g>
<g id="cellvalues">
<path d="M 698.082,2427.067 A 1225.775,1225.775 0.00 0,1 457.9,2145.4 Q 1500.0,1500.0 291.5,1475.2 A 1208.775,1208.775 0.00 0,1 354.0,1115.6 Q 1500.0,1500.0 698.1,2427.1 Z" style="stroke-width: 1.0;  stroke: rgb(0,0,0); fill: rgb(126,229,46); opacity: 0.800;"/>
</g>
<g id="cellvalues">
<path d="M 1070.973,2648.242 A 1225.775,1225.775 0.00 0,1 698.1,2427.1 Q 1500.0,1500.0 420.8,955.5 A 1208.775,1208.775 0.00 0,1 677.9,613.8 Q 1500.0,1500.0 1071.0,2648.2 Z" style="stroke-width: 1.0;  stroke: rgb(0,0,0); fill: rgb(126,229,46); opacity: 0.800;"/>
</g>
<g id="cellvalues">
<path d="M 1672.017,2713.645 A 1225.775,1225.775 0.00 0,1 1071.0,2648.2 Q 1500.0,1500.0 2377.2,2331.7 A 1208.775,1208.775 0.00 0,1 1873.0,2649.8 Q 1500.0,1500.0 1672.0,2713.6 Z" style="stroke-width: 1.0;  stroke: rgb(0,0,0); fill: rgb(126,229,46); opacity: 0.800;"/>
</g>
<g id="cellvalues">
<path d="M 2318.830,587.837 A 1225.775,1225.775 0.00 0,1 2678.1,1161.6 Q 1500.0,1500.0 462.6,2120.5 A 1208.775,1208.775 0.00 0,1 291.5,1475.2 Q 1500.0,1500.0 2318.8,587.8 Z" style="stroke-width: 1.0;  stroke: rgb(0,0,0); fill: rgb(230,46,46); opacity: 0.800;"/>
</g>
<g id="cellvalues">
<path d="M 1500.000,274.225 A 1225.775,1225.775 0.00 0,1 2318.8,587.8 Q 1500.0,1500.0 2708.3,1532.9 A 1208.775,1208.775 0.00 0,1 2377.2,2331.7 Q 1500.0,1500.0 1500.0,274.2 Z" style="stroke-width: 1.0;  stroke: rgb(0,0,0); fill: rgb(230,46,46); opacity: 0.800;"/>
</g>
<g id="plot0">
<g id="plot0-axis">
</g>
<text x="2495.0" y="551.0" style="fill: rgb(0,0,0); font-size: 48.0px; text-anchor: start" transform="rotate(315.3,2495.0,551.0)">A</text>
<text x="549.9" y="506.0" style="fill: rgb(0,0,0); font-size: 48.0px; text-anchor: end" transform="rotate(47.3,549.9,506.0)">D</text>
<text x="940.4" y="2756.0" style="fill: rgb(0,0,0); font-size: 48.0px; text-anchor: end" transform="rotate(295.1,940.4,2756.0)">C</text>
<text x="1211.9" y="155.5" style="fill: rgb(0,0,0); font-size: 48.0px; text-anchor: end" transform="rotate(78.9,1211.9,155.5)">B</text>
<text x="127.6" y="1584.4" style="fill: rgb(0,0,0); font-size: 48.0px; text-anchor: end" transform="rotate(357.5,127.6,1584.4)">E</text>
<text x="2516.6" y="2425.8" style="fill: rgb(0,0,0); font-size: 48.0px; text-anchor: start" transform="rotate(41.3,2516.6,2425.8)">F</text>
</g>
</svg>
