<?xml version="1.0" standalone="no"?>
<!DOCTYPE svg PUBLIC "-//W3C//DTD SVG 1.1//EN" "http://www.w3.org/Graphics/SVG/1.1/DTD/svg11.dtd">
<svg width="3000px" height="3000px" version="1.1" xmlns="http://www.w3.org/2000/svg" xmlns:xlink="http://www.w3.org/1999/xlink">
<g id="ideograms">
<g id="highlight0">
<path d="M 1500.000,215.000 A1285.000,1285.000 0.000 0,1 1844.220,261.962 L 1850.917,237.876 A1310.000,1310.000 0.000 0,0 1500.000,190.000 Z " style="stroke-width: 2.0; stroke: rgb(0,0,0); fill: rgb(0,255,57); " />
<path d="M 1844.220,261.962 A1285.000,1285.000 0.000 0,1 2123.889,376.618 L 2136.027,354.762 A1310.000,1310.000 0.000 0,0 1850.917,237.876 Z " style="stroke-width: 2.0; stroke: rgb(0,0,0); fill: rgb(85,255,0); " />
<path d="M 2123.889,376.618 A1285.000,1285.000 0.000 0,1 2348.941,535.363 L 2365.457,516.596 A1310.000,1310.000 0.000 0,0 2136.027,354.762 Z " style="stroke-width: 2.0; stroke: rgb(0,0,0); fill: rgb(0,255,198); " />
<path d="M 2348.941,535.363 A1285.000,1285.000 0.000 0,1 2444.536,628.750 L 2462.913,611.800 A1310.000,1310.000 0.000 0,0 2365.457,516.596 Z " style="stroke-width: 2.0; stroke: rgb(0,0,0); fill: rgb(255,142,0); " />
<path d="M 2444.536,628.750 A1285.000,1285.000 0.000 0,1 2522.210,721.340 L 2542.097,706.191 A1310.000,1310.000 0.000 0,0 2462.913,611.800 Z " style="stroke-width: 2.0; stroke: rgb(0,0,0); fill: rgb(227,255,0); " />
</g>
<path d="M 1500.000,275.000 A1225.000,1225.000 0.000 0,1 2474.480,757.697 L 2514.255,727.399 A1275.000,1275.000 0.000 0,0 1500.000,225.000 Z " style="stroke: none;  fill: rgb(255,0,0); " />
<g id="highlight0">
<path d="M 1500.000,215.000 A1285.000,1285.000 0.000 0,1 1844.220,261.962 L 1850.917,237.876 A1310.000,1310.000 0.000 0,0 1500.000,190.000 Z " style="stroke-width: 2.0; stroke: rgb(0,0,0); fill: rgb(0,255,57); " />
<path d="M 1844.220,261.962 A1285.000,1285.000 0.000 0,1 2123.889,376.618 L 2136.027,354.762 A1310.000,1310.000 0.000 0,0 1850.917,237.876 Z " style="stroke-width: 2.0; stroke: rgb(0,0,0); fill: rgb(85,255,0); " />
<path d="M 2123.889,376.618 A1285.000,1285.000 0.000 0,1 2348.941,535.363 L 2365.457,516.596 A1310.000,1310.000 0.000 0,0 2136.027,354.762 Z " style="stroke-width: 2.0; stroke: rgb(0,0,0); fill: rgb(0,255,198); " />
<path d="M 2348.941,535.363 A1285.000,1285.000 0.000 0,1 2444.536,628.750 L 2462.913,611.800 A1310.000,1310.000 0.000 0,0 2365.457,516.596 Z " style="stroke-width: 2.0; stroke: rgb(0,0,0); fill: rgb(255,142,0); " />
<path d="M 2444.536,628.750 A1285.000,1285.000 0.000 0,1 2522.210,721.340 L 2542.097,706.191 A1310.000,1310.000 0.000 0,0 2462.913,611.800 Z " style="stroke-width: 2.0; stroke: rgb(0,0,0); fill: rgb(227,255,0); " />
</g>
<path d="M 1500.000,275.000 A1225.000,1225.000 0.000 0,1 2474.480,757.697 L 2514.255,727.399 A1275.000,1275.000 0.000 0,0 1500.000,225.000 Z " style="stroke: none;  fill: none; " />
<g id="highlight0">
<path d="M 2534.022,737.096 A1285.000,1285.000 0.000 0,1 2661.540,950.409 L 2684.138,939.717 A1310.000,1310.000 0.000 0,0 2554.139,722.253 Z " style="stroke-width: 2.0; stroke: rgb(0,0,0); fill: rgb(0,28,255); " />
<path d="M 2661.540,950.409 A1285.000,1285.000 0.000 0,1 2712.339,1074.018 L 2735.925,1065.731 A1310.000,1310.000 0.000 0,0 2684.138,939.717 Z " style="stroke-width: 2.0; stroke: rgb(0,0,0); fill: rgb(255,0,0); " />
<path d="M 2712.339,1074.018 A1285.000,1285.000 0.000 0,1 2748.694,1196.704 L 2772.987,1190.803 A1310.000,1310.000 0.000 0,0 2735.925,1065.731 Z " style="stroke-width: 2.0; stroke: rgb(0,0,0); fill: rgb(255,0,255); " />
<path d="M 2748.694,1196.704 A1285.000,1285.000 0.000 0,1 2770.411,1306.914 L 2795.127,1303.158 A1310.000,1310.000 0.000 0,0 2772.987,1190.803 Z " style="stroke-width: 2.0; stroke: rgb(0,0,0); fill: rgb(113,0,255); " />
<path d="M 2770.411,1306.914 A1285.000,1285.000 0.000 0,1 2779.414,1380.316 L 2804.306,1377.987 A1310.000,1310.000 0.000 0,0 2795.127,1303.158 Z " style="stroke-width: 2.0; stroke: rgb(0,0,0); fill: rgb(0,170,255); " />
</g>
<path d="M 2485.741,772.718 A1225.000,1225.000 0.000 0,1 2719.675,1385.904 L 2769.458,1381.247 A1275.000,1275.000 0.000 0,0 2525.975,743.033 Z " style="stroke: none;  fill: rgb(255,142,0); " />
<g id="highlight0">
<path d="M 2534.022,737.096 A1285.000,1285.000 0.000 0,1 2661.540,950.409 L 2684.138,939.717 A1310.000,1310.000 0.000 0,0 2554.139,722.253 Z " style="stroke-width: 2.0; stroke: rgb(0,0,0); fill: rgb(0,28,255); " />
<path d="M 2661.540,950.409 A1285.000,1285.000 0.000 0,1 2712.339,1074.018 L 2735.925,1065.731 A1310.000,1310.000 0.000 0,0 2684.138,939.717 Z " style="stroke-width: 2.0; stroke: rgb(0,0,0); fill: rgb(255,0,0); " />
<path d="M 2712.339,1074.018 A1285.000,1285.000 0.000 0,1 2748.694,1196.704 L 2772.987,1190.803 A1310.000,1310.000 0.000 0,0 2735.925,1065.731 Z " style="stroke-width: 2.0; stroke: rgb(0,0,0); fill: rgb(255,0,255); " />
<path d="M 2748.694,1196.704 A1285.000,1285.000 0.000 0,1 2770.411,1306.914 L 2795.127,1303.158 A1310.000,1310.000 0.000 0,0 2772.987,1190.803 Z " style="stroke-width: 2.0; stroke: rgb(0,0,0); fill: rgb(113,0,255); " />
<path d="M 2770.411,1306.914 A1285.000,1285.000 0.000 0,1 2779.414,1380.316 L 2804.306,1377.987 A1310.000,1310.000 0.000 0,0 2795.127,1303.158 Z " style="stroke-width: 2.0; stroke: rgb(0,0,0); fill: rgb(0,170,255); " />
</g>
<path d="M 2485.741,772.718 A1225.000,1225.000 0.000 0,1 2719.675,1385.904 L 2769.458,1381.247 A1275.000,1275.000 0.000 0,0 2525.975,743.033 Z " style="stroke: none;  fill: none; " />
<g id="highlight0">
<path d="M 2781.098,1399.936 A1285.000,1285.000 0.000 0,1 2781.919,1588.936 L 2806.859,1590.666 A1310.000,1310.000 0.000 0,0 2806.022,1397.989 Z " style="stroke-width: 2.0; stroke: rgb(0,0,0); fill: rgb(255,0,255); " />
<path d="M 2781.919,1588.936 A1285.000,1285.000 0.000 0,1 2767.894,1708.974 L 2792.561,1713.040 A1310.000,1310.000 0.000 0,0 2806.859,1590.666 Z " style="stroke-width: 2.0; stroke: rgb(0,0,0); fill: rgb(255,0,0); " />
<path d="M 2767.894,1708.974 A1285.000,1285.000 0.000 0,1 2744.090,1821.659 L 2768.294,1827.917 A1310.000,1310.000 0.000 0,0 2792.561,1713.040 Z " style="stroke-width: 2.0; stroke: rgb(0,0,0); fill: rgb(113,0,255); " />
<path d="M 2744.090,1821.659 A1285.000,1285.000 0.000 0,1 2728.217,1877.769 L 2752.112,1885.118 A1310.000,1310.000 0.000 0,0 2768.294,1827.917 Z " style="stroke-width: 2.0; stroke: rgb(0,0,0); fill: rgb(0,28,255); " />
<path d="M 2728.217,1877.769 A1285.000,1285.000 0.000 0,1 2716.380,1914.301 L 2740.045,1922.361 A1310.000,1310.000 0.000 0,0 2752.112,1885.118 Z " style="stroke-width: 2.0; stroke: rgb(0,0,0); fill: rgb(0,170,255); " />
</g>
<path d="M 2721.280,1404.608 A1225.000,1225.000 0.000 0,1 2659.584,1894.956 L 2706.914,1911.077 A1275.000,1275.000 0.000 0,0 2771.128,1400.715 Z " style="stroke: none;  fill: rgb(227,255,0); " />
<g id="highlight0">
<path d="M 2781.098,1399.936 A1285.000,1285.000 0.000 0,1 2781.919,1588.936 L 2806.859,1590.666 A1310.000,1310.000 0.000 0,0 2806.022,1397.989 Z " style="stroke-width: 2.0; stroke: rgb(0,0,0); fill: rgb(255,0,255); " />
<path d="M 2781.919,1588.936 A1285.000,1285.000 0.000 0,1 2767.894,1708.974 L 2792.561,1713.040 A1310.000,1310.000 0.000 0,0 2806.859,1590.666 Z " style="stroke-width: 2.0; stroke: rgb(0,0,0); fill: rgb(255,0,0); " />
<path d="M 2767.894,1708.974 A1285.000,1285.000 0.000 0,1 2744.090,1821.659 L 2768.294,1827.917 A1310.000,1310.000 0.000 0,0 2792.561,1713.040 Z " style="stroke-width: 2.0; stroke: rgb(0,0,0); fill: rgb(113,0,255); " />
<path d="M 2744.090,1821.659 A1285.000,1285.000 0.000 0,1 2728.217,1877.769 L 2752.112,1885.118 A1310.000,1310.000 0.000 0,0 2768.294,1827.917 Z " style="stroke-width: 2.0; stroke: rgb(0,0,0); fill: rgb(0,28,255); " />
<path d="M 2728.217,1877.769 A1285.000,1285.000 0.000 0,1 2716.380,1914.301 L 2740.045,1922.361 A1310.000,1310.000 0.000 0,0 2752.112,1885.118 Z " style="stroke-width: 2.0; stroke: rgb(0,0,0); fill: rgb(0,170,255); " />
</g>
<path d="M 2721.280,1404.608 A1225.000,1225.000 0.000 0,1 2659.584,1894.956 L 2706.914,1911.077 A1275.000,1275.000 0.000 0,0 2771.128,1400.715 Z " style="stroke: none;  fill: none; " />
<g id="highlight0">
<path d="M 2709.888,1932.892 A1285.000,1285.000 0.000 0,1 2575.298,2203.533 L 2596.219,2217.220 A1310.000,1310.000 0.000 0,0 2733.427,1941.314 Z " style="stroke-width: 2.0; stroke: rgb(0,0,0); fill: rgb(255,0,0); " />
<path d="M 2575.298,2203.533 A1285.000,1285.000 0.000 0,1 2442.306,2373.662 L 2460.638,2390.659 A1310.000,1310.000 0.000 0,0 2596.219,2217.220 Z " style="stroke-width: 2.0; stroke: rgb(0,0,0); fill: rgb(255,0,255); " />
<path d="M 2442.306,2373.662 A1285.000,1285.000 0.000 0,1 2340.032,2472.405 L 2356.375,2491.323 A1310.000,1310.000 0.000 0,0 2460.638,2390.659 Z " style="stroke-width: 2.0; stroke: rgb(0,0,0); fill: rgb(113,0,255); " />
<path d="M 2340.032,2472.405 A1285.000,1285.000 0.000 0,1 2249.591,2543.714 L 2264.174,2564.019 A1310.000,1310.000 0.000 0,0 2356.375,2491.323 Z " style="stroke-width: 2.0; stroke: rgb(0,0,0); fill: rgb(0,28,255); " />
<path d="M 2249.591,2543.714 A1285.000,1285.000 0.000 0,1 2158.022,2603.736 L 2170.824,2625.209 A1310.000,1310.000 0.000 0,0 2264.174,2564.019 Z " style="stroke-width: 2.0; stroke: rgb(0,0,0); fill: rgb(0,170,255); " />
</g>
<path d="M 2653.395,1912.679 A1225.000,1225.000 0.000 0,1 2127.297,2552.199 L 2152.901,2595.146 A1275.000,1275.000 0.000 0,0 2700.473,1929.523 Z " style="stroke: none;  fill: rgb(85,255,0); " />
<g id="highlight0">
<path d="M 2709.888,1932.892 A1285.000,1285.000 0.000 0,1 2575.298,2203.533 L 2596.219,2217.220 A1310.000,1310.000 0.000 0,0 2733.427,1941.314 Z " style="stroke-width: 2.0; stroke: rgb(0,0,0); fill: rgb(255,0,0); " />
<path d="M 2575.298,2203.533 A1285.000,1285.000 0.000 0,1 2442.306,2373.662 L 2460.638,2390.659 A1310.000,1310.000 0.000 0,0 2596.219,2217.220 Z " style="stroke-width: 2.0; stroke: rgb(0,0,0); fill: rgb(255,0,255); " />
<path d="M 2442.306,2373.662 A1285.000,1285.000 0.000 0,1 2340.032,2472.405 L 2356.375,2491.323 A1310.000,1310.000 0.000 0,0 2460.638,2390.659 Z " style="stroke-width: 2.0; stroke: rgb(0,0,0); fill: rgb(113,0,255); " />
<path d="M 2340.032,2472.405 A1285.000,1285.000 0.000 0,1 2249.591,2543.714 L 2264.174,2564.019 A1310.000,1310.000 0.000 0,0 2356.375,2491.323 Z " style="stroke-width: 2.0; stroke: rgb(0,0,0); fill: rgb(0,28,255); " />
<path d="M 2249.591,2543.714 A1285.000,1285.000 0.000 0,1 2158.022,2603.736 L 2170.824,2625.209 A1310.000,1310.000 0.000 0,0 2264.174,2564.019 Z " style="stroke-width: 2.0; stroke: rgb(0,0,0); fill: rgb(0,170,255); " />
</g>
<path d="M 2653.395,1912.679 A1225.000,1225.000 0.000 0,1 2127.297,2552.199 L 2152.901,2595.146 A1275.000,1275.000 0.000 0,0 2700.473,1929.523 Z " style="stroke: none;  fill: none; " />
<g id="highlight0">
<path d="M 2141.031,2613.690 A1285.000,1285.000 0.000 0,1 1819.273,2744.705 L 1825.485,2768.921 A1310.000,1310.000 0.000 0,0 2153.502,2635.357 Z " style="stroke-width: 2.0; stroke: rgb(0,0,0); fill: rgb(255,0,0); " />
<path d="M 1819.273,2744.705 A1285.000,1285.000 0.000 0,1 1533.912,2784.552 L 1534.572,2809.544 A1310.000,1310.000 0.000 0,0 1825.485,2768.921 Z " style="stroke-width: 2.0; stroke: rgb(0,0,0); fill: rgb(113,0,255); " />
<path d="M 1533.912,2784.552 A1285.000,1285.000 0.000 0,1 1326.782,2773.272 L 1323.412,2798.043 A1310.000,1310.000 0.000 0,0 1534.572,2809.544 Z " style="stroke-width: 2.0; stroke: rgb(0,0,0); fill: rgb(255,0,255); " />
<path d="M 1326.782,2773.272 A1285.000,1285.000 0.000 0,1 1167.917,2741.348 L 1161.457,2765.499 A1310.000,1310.000 0.000 0,0 1323.412,2798.043 Z " style="stroke-width: 2.0; stroke: rgb(0,0,0); fill: rgb(0,28,255); " />
<path d="M 1167.917,2741.348 A1285.000,1285.000 0.000 0,1 1116.013,2726.287 L 1108.543,2750.144 A1310.000,1310.000 0.000 0,0 1161.457,2765.499 Z " style="stroke-width: 2.0; stroke: rgb(0,0,0); fill: rgb(0,170,255); " />
</g>
<path d="M 2111.099,2561.689 A1225.000,1225.000 0.000 0,1 1133.943,2669.028 L 1119.001,2716.744 A1275.000,1275.000 0.000 0,0 2136.042,2605.023 Z " style="stroke: none;  fill: rgb(0,255,57); " />
<g id="highlight0">
<path d="M 2141.031,2613.690 A1285.000,1285.000 0.000 0,1 1819.273,2744.705 L 1825.485,2768.921 A1310.000,1310.000 0.000 0,0 2153.502,2635.357 Z " style="stroke-width: 2.0; stroke: rgb(0,0,0); fill: rgb(255,0,0); " />
<path d="M 1819.273,2744.705 A1285.000,1285.000 0.000 0,1 1533.912,2784.552 L 1534.572,2809.544 A1310.000,1310.000 0.000 0,0 1825.485,2768.921 Z " style="stroke-width: 2.0; stroke: rgb(0,0,0); fill: rgb(113,0,255); " />
<path d="M 1533.912,2784.552 A1285.000,1285.000 0.000 0,1 1326.782,2773.272 L 1323.412,2798.043 A1310.000,1310.000 0.000 0,0 1534.572,2809.544 Z " style="stroke-width: 2.0; stroke: rgb(0,0,0); fill: rgb(255,0,255); " />
<path d="M 1326.782,2773.272 A1285.000,1285.000 0.000 0,1 1167.917,2741.348 L 1161.457,2765.499 A1310.000,1310.000 0.000 0,0 1323.412,2798.043 Z " style="stroke-width: 2.0; stroke: rgb(0,0,0); fill: rgb(0,28,255); " />
<path d="M 1167.917,2741.348 A1285.000,1285.000 0.000 0,1 1116.013,2726.287 L 1108.543,2750.144 A1310.000,1310.000 0.000 0,0 1161.457,2765.499 Z " style="stroke-width: 2.0; stroke: rgb(0,0,0); fill: rgb(0,170,255); " />
</g>
<path d="M 2111.099,2561.689 A1225.000,1225.000 0.000 0,1 1133.943,2669.028 L 1119.001,2716.744 A1275.000,1275.000 0.000 0,0 2136.042,2605.023 Z " style="stroke: none;  fill: none; " />
<g id="highlight0">
<path d="M 1097.266,2720.258 A1285.000,1285.000 0.000 0,1 846.492,2606.414 L 833.778,2627.940 A1310.000,1310.000 0.000 0,0 1089.431,2743.999 Z " style="stroke-width: 2.0; stroke: rgb(0,0,0); fill: rgb(255,0,0); " />
<path d="M 846.492,2606.414 A1285.000,1285.000 0.000 0,1 707.957,2511.876 L 692.548,2531.562 A1310.000,1310.000 0.000 0,0 833.778,2627.940 Z " style="stroke-width: 2.0; stroke: rgb(0,0,0); fill: rgb(255,0,255); " />
<path d="M 707.957,2511.876 A1285.000,1285.000 0.000 0,1 604.084,2421.173 L 586.653,2439.094 A1310.000,1310.000 0.000 0,0 692.548,2531.562 Z " style="stroke-width: 2.0; stroke: rgb(0,0,0); fill: rgb(113,0,255); " />
<path d="M 604.084,2421.173 A1285.000,1285.000 0.000 0,1 529.851,2342.636 L 510.977,2359.030 A1310.000,1310.000 0.000 0,0 586.653,2439.094 Z " style="stroke-width: 2.0; stroke: rgb(0,0,0); fill: rgb(0,28,255); " />
<path d="M 529.851,2342.636 A1285.000,1285.000 0.000 0,1 477.790,2278.660 L 457.903,2293.809 A1310.000,1310.000 0.000 0,0 510.977,2359.030 Z " style="stroke-width: 2.0; stroke: rgb(0,0,0); fill: rgb(0,170,255); " />
</g>
<path d="M 1116.071,2663.281 A1225.000,1225.000 0.000 0,1 525.520,2242.303 L 485.745,2272.601 A1275.000,1275.000 0.000 0,0 1100.400,2710.762 Z " style="stroke: none;  fill: rgb(0,255,198); " />
<g id="highlight0">
<path d="M 1097.266,2720.258 A1285.000,1285.000 0.000 0,1 846.492,2606.414 L 833.778,2627.940 A1310.000,1310.000 0.000 0,0 1089.431,2743.999 Z " style="stroke-width: 2.0; stroke: rgb(0,0,0); fill: rgb(255,0,0); " />
<path d="M 846.492,2606.414 A1285.000,1285.000 0.000 0,1 707.957,2511.876 L 692.548,2531.562 A1310.000,1310.000 0.000 0,0 833.778,2627.940 Z " style="stroke-width: 2.0; stroke: rgb(0,0,0); fill: rgb(255,0,255); " />
<path d="M 707.957,2511.876 A1285.000,1285.000 0.000 0,1 604.084,2421.173 L 586.653,2439.094 A1310.000,1310.000 0.000 0,0 692.548,2531.562 Z " style="stroke-width: 2.0; stroke: rgb(0,0,0); fill: rgb(113,0,255); " />
<path d="M 604.084,2421.173 A1285.000,1285.000 0.000 0,1 529.851,2342.636 L 510.977,2359.030 A1310.000,1310.000 0.000 0,0 586.653,2439.094 Z " style="stroke-width: 2.0; stroke: rgb(0,0,0); fill: rgb(0,28,255); " />
<path d="M 529.851,2342.636 A1285.000,1285.000 0.000 0,1 477.790,2278.660 L 457.903,2293.809 A1310.000,1310.000 0.000 0,0 510.977,2359.030 Z " style="stroke-width: 2.0; stroke: rgb(0,0,0); fill: rgb(0,170,255); " />
</g>
<path d="M 1116.071,2663.281 A1225.000,1225.000 0.000 0,1 525.520,2242.303 L 485.745,2272.601 A1275.000,1275.000 0.000 0,0 1100.400,2710.762 Z " style="stroke: none;  fill: none; " />
<g id="highlight0">
<path d="M 465.978,2262.904 A1285.000,1285.000 0.000 0,1 404.787,2172.112 L 383.480,2185.188 A1310.000,1310.000 0.000 0,0 445.861,2277.747 Z " style="stroke-width: 2.0; stroke: rgb(0,0,0); fill: rgb(85,255,0); " />
<path d="M 404.787,2172.112 A1285.000,1285.000 0.000 0,1 363.924,2100.463 L 341.821,2112.145 A1310.000,1310.000 0.000 0,0 383.480,2185.188 Z " style="stroke-width: 2.0; stroke: rgb(0,0,0); fill: rgb(0,255,198); " />
<path d="M 363.924,2100.463 A1285.000,1285.000 0.000 0,1 331.263,2034.115 L 308.525,2044.506 A1310.000,1310.000 0.000 0,0 341.821,2112.145 Z " style="stroke-width: 2.0; stroke: rgb(0,0,0); fill: rgb(255,142,0); " />
<path d="M 331.263,2034.115 A1285.000,1285.000 0.000 0,1 309.837,1984.498 L 286.683,1993.924 A1310.000,1310.000 0.000 0,0 308.525,2044.506 Z " style="stroke-width: 2.0; stroke: rgb(0,0,0); fill: rgb(0,255,57); " />
<path d="M 309.837,1984.498 A1285.000,1285.000 0.000 0,1 295.891,1948.718 L 272.465,1957.447 A1310.000,1310.000 0.000 0,0 286.683,1993.924 Z " style="stroke-width: 2.0; stroke: rgb(0,0,0); fill: rgb(227,255,0); " />
</g>
<path d="M 514.259,2227.282 A1225.000,1225.000 0.000 0,1 352.114,1927.766 L 305.262,1945.226 A1275.000,1275.000 0.000 0,0 474.025,2256.967 Z " style="stroke: none;  fill: rgb(0,170,255); " />
<g id="highlight0">
<path d="M 465.978,2262.904 A1285.000,1285.000 0.000 0,1 404.787,2172.112 L 383.480,2185.188 A1310.000,1310.000 0.000 0,0 445.861,2277.747 Z " style="stroke-width: 2.0; stroke: rgb(0,0,0); fill: rgb(85,255,0); " />
<path d="M 404.787,2172.112 A1285.000,1285.000 0.000 0,1 363.924,2100.463 L 341.821,2112.145 A1310.000,1310.000 0.000 0,0 383.480,2185.188 Z " style="stroke-width: 2.0; stroke: rgb(0,0,0); fill: rgb(0,255,198); " />
<path d="M 363.924,2100.463 A1285.000,1285.000 0.000 0,1 331.263,2034.115 L 308.525,2044.506 A1310.000,1310.000 0.000 0,0 341.821,2112.145 Z " style="stroke-width: 2.0; stroke: rgb(0,0,0); fill: rgb(255,142,0); " />
<path d="M 331.263,2034.115 A1285.000,1285.000 0.000 0,1 309.837,1984.498 L 286.683,1993.924 A1310.000,1310.000 0.000 0,0 308.525,2044.506 Z " style="stroke-width: 2.0; stroke: rgb(0,0,0); fill: rgb(0,255,57); " />
<path d="M 309.837,1984.498 A1285.000,1285.000 0.000 0,1 295.891,1948.718 L 272.465,1957.447 A1310.000,1310.000 0.000 0,0 286.683,1993.924 Z " style="stroke-width: 2.0; stroke: rgb(0,0,0); fill: rgb(227,255,0); " />
</g>
<path d="M 514.259,2227.282 A1225.000,1225.000 0.000 0,1 352.114,1927.766 L 305.262,1945.226 A1275.000,1275.000 0.000 0,0 474.025,2256.967 Z " style="stroke: none;  fill: none; " />
<g id="highlight0">
<path d="M 289.157,1930.213 A1285.000,1285.000 0.000 0,1 228.988,1689.084 L 204.260,1692.763 A1310.000,1310.000 0.000 0,0 265.599,1938.583 Z " style="stroke-width: 2.0; stroke: rgb(0,0,0); fill: rgb(255,142,0); " />
<path d="M 228.988,1689.084 A1285.000,1285.000 0.000 0,1 215.297,1527.623 L 190.303,1528.161 A1310.000,1310.000 0.000 0,0 204.260,1692.763 Z " style="stroke-width: 2.0; stroke: rgb(0,0,0); fill: rgb(0,255,57); " />
<path d="M 215.297,1527.623 A1285.000,1285.000 0.000 0,1 217.984,1412.483 L 193.042,1410.780 A1310.000,1310.000 0.000 0,0 190.303,1528.161 Z " style="stroke-width: 2.0; stroke: rgb(0,0,0); fill: rgb(85,255,0); " />
<path d="M 217.984,1412.483 A1285.000,1285.000 0.000 0,1 229.871,1305.072 L 205.160,1301.280 A1310.000,1310.000 0.000 0,0 193.042,1410.780 Z " style="stroke-width: 2.0; stroke: rgb(0,0,0); fill: rgb(0,255,198); " />
<path d="M 229.871,1305.072 A1285.000,1285.000 0.000 0,1 240.022,1247.651 L 215.509,1242.742 A1310.000,1310.000 0.000 0,0 205.160,1301.280 Z " style="stroke-width: 2.0; stroke: rgb(0,0,0); fill: rgb(227,255,0); " />
</g>
<path d="M 345.694,1910.125 A1225.000,1225.000 0.000 0,1 298.853,1259.434 L 249.827,1249.615 A1275.000,1275.000 0.000 0,0 298.579,1926.865 Z " style="stroke: none;  fill: rgb(0,28,255); " />
<g id="highlight0">
<path d="M 289.157,1930.213 A1285.000,1285.000 0.000 0,1 228.988,1689.084 L 204.260,1692.763 A1310.000,1310.000 0.000 0,0 265.599,1938.583 Z " style="stroke-width: 2.0; stroke: rgb(0,0,0); fill: rgb(255,142,0); " />
<path d="M 228.988,1689.084 A1285.000,1285.000 0.000 0,1 215.297,1527.623 L 190.303,1528.161 A1310.000,1310.000 0.000 0,0 204.260,1692.763 Z " style="stroke-width: 2.0; stroke: rgb(0,0,0); fill: rgb(0,255,57); " />
<path d="M 215.297,1527.623 A1285.000,1285.000 0.000 0,1 217.984,1412.483 L 193.042,1410.780 A1310.000,1310.000 0.000 0,0 190.303,1528.161 Z " style="stroke-width: 2.0; stroke: rgb(0,0,0); fill: rgb(85,255,0); " />
<path d="M 217.984,1412.483 A1285.000,1285.000 0.000 0,1 229.871,1305.072 L 205.160,1301.280 A1310.000,1310.000 0.000 0,0 193.042,1410.780 Z " style="stroke-width: 2.0; stroke: rgb(0,0,0); fill: rgb(0,255,198); " />
<path d="M 229.871,1305.072 A1285.000,1285.000 0.000 0,1 240.022,1247.651 L 215.509,1242.742 A1310.000,1310.000 0.000 0,0 205.160,1301.280 Z " style="stroke-width: 2.0; stroke: rgb(0,0,0); fill: rgb(227,255,0); " />
</g>
<path d="M 345.694,1910.125 A1225.000,1225.000 0.000 0,1 298.853,1259.434 L 249.827,1249.615 A1275.000,1275.000 0.000 0,0 298.579,1926.865 Z " style="stroke: none;  fill: none; " />
<g id="highlight0">
<path d="M 244.037,1228.373 A1285.000,1285.000 0.000 0,1 336.132,955.357 L 313.488,944.761 A1310.000,1310.000 0.000 0,0 219.602,1223.088 Z " style="stroke-width: 2.0; stroke: rgb(0,0,0); fill: rgb(0,255,57); " />
<path d="M 336.132,955.357 A1285.000,1285.000 0.000 0,1 403.417,830.126 L 382.083,817.094 A1310.000,1310.000 0.000 0,0 313.488,944.761 Z " style="stroke-width: 2.0; stroke: rgb(0,0,0); fill: rgb(85,255,0); " />
<path d="M 403.417,830.126 A1285.000,1285.000 0.000 0,1 481.516,716.472 L 461.702,701.228 A1310.000,1310.000 0.000 0,0 382.083,817.094 Z " style="stroke-width: 2.0; stroke: rgb(0,0,0); fill: rgb(0,255,198); " />
<path d="M 481.516,716.472 A1285.000,1285.000 0.000 0,1 555.763,628.426 L 537.392,611.470 A1310.000,1310.000 0.000 0,0 461.702,701.228 Z " style="stroke-width: 2.0; stroke: rgb(0,0,0); fill: rgb(227,255,0); " />
<path d="M 555.763,628.426 A1285.000,1285.000 0.000 0,1 635.487,549.294 L 618.668,530.798 A1310.000,1310.000 0.000 0,0 537.392,611.470 Z " style="stroke-width: 2.0; stroke: rgb(0,0,0); fill: rgb(255,142,0); " />
</g>
<path d="M 302.681,1241.056 A1225.000,1225.000 0.000 0,1 675.853,593.685 L 642.215,556.692 A1275.000,1275.000 0.000 0,0 253.811,1230.487 Z " style="stroke: none;  fill: rgb(113,0,255); " />
<g id="highlight0">
<path d="M 244.037,1228.373 A1285.000,1285.000 0.000 0,1 336.132,955.357 L 313.488,944.761 A1310.000,1310.000 0.000 0,0 219.602,1223.088 Z " style="stroke-width: 2.0; stroke: rgb(0,0,0); fill: rgb(0,255,57); " />
<path d="M 336.132,955.357 A1285.000,1285.000 0.000 0,1 403.417,830.126 L 382.083,817.094 A1310.000,1310.000 0.000 0,0 313.488,944.761 Z " style="stroke-width: 2.0; stroke: rgb(0,0,0); fill: rgb(85,255,0); " />
<path d="M 403.417,830.126 A1285.000,1285.000 0.000 0,1 481.516,716.472 L 461.702,701.228 A1310.000,1310.000 0.000 0,0 382.083,817.094 Z " style="stroke-width: 2.0; stroke: rgb(0,0,0); fill: rgb(0,255,198); " />
<path d="M 481.516,716.472 A1285.000,1285.000 0.000 0,1 555.763,628.426 L 537.392,611.470 A1310.000,1310.000 0.000 0,0 461.702,701.228 Z " style="stroke-width: 2.0; stroke: rgb(0,0,0); fill: rgb(227,255,0); " />
<path d="M 555.763,628.426 A1285.000,1285.000 0.000 0,1 635.487,549.294 L 618.668,530.798 A1310.000,1310.000 0.000 0,0 537.392,611.470 Z " style="stroke-width: 2.0; stroke: rgb(0,0,0); fill: rgb(255,142,0); " />
</g>
<path d="M 302.681,1241.056 A1225.000,1225.000 0.000 0,1 675.853,593.685 L 642.215,556.692 A1275.000,1275.000 0.000 0,0 253.811,1230.487 Z " style="stroke: none;  fill: none; " />
<g id="highlight0">
<path d="M 650.157,536.157 A1285.000,1285.000 0.000 0,1 823.557,407.457 L 810.396,386.202 A1310.000,1310.000 0.000 0,0 633.624,517.406 Z " style="stroke-width: 2.0; stroke: rgb(0,0,0); fill: rgb(85,255,0); " />
<path d="M 823.557,407.457 A1285.000,1285.000 0.000 0,1 1008.164,312.851 L 998.595,289.755 A1310.000,1310.000 0.000 0,0 810.396,386.202 Z " style="stroke-width: 2.0; stroke: rgb(0,0,0); fill: rgb(0,255,57); " />
<path d="M 1008.164,312.851 A1285.000,1285.000 0.000 0,1 1187.621,253.547 L 1181.543,229.297 A1310.000,1310.000 0.000 0,0 998.595,289.755 Z " style="stroke-width: 2.0; stroke: rgb(0,0,0); fill: rgb(227,255,0); " />
<path d="M 1187.621,253.547 A1285.000,1285.000 0.000 0,1 1352.621,223.480 L 1349.754,198.645 A1310.000,1310.000 0.000 0,0 1181.543,229.297 Z " style="stroke-width: 2.0; stroke: rgb(0,0,0); fill: rgb(0,255,198); " />
<path d="M 1352.621,223.480 A1285.000,1285.000 0.000 0,1 1480.308,215.151 L 1479.925,190.154 A1310.000,1310.000 0.000 0,0 1349.754,198.645 Z " style="stroke-width: 2.0; stroke: rgb(0,0,0); fill: rgb(255,142,0); " />
</g>
<path d="M 689.839,581.162 A1225.000,1225.000 0.000 0,1 1481.228,275.144 L 1480.462,225.150 A1275.000,1275.000 0.000 0,0 656.771,543.658 Z " style="stroke: none;  fill: rgb(255,0,255); " />
<g id="highlight0">
<path d="M 650.157,536.157 A1285.000,1285.000 0.000 0,1 823.557,407.457 L 810.396,386.202 A1310.000,1310.000 0.000 0,0 633.624,517.406 Z " style="stroke-width: 2.0; stroke: rgb(0,0,0); fill: rgb(85,255,0); " />
<path d="M 823.557,407.457 A1285.000,1285.000 0.000 0,1 1008.164,312.851 L 998.595,289.755 A1310.000,1310.000 0.000 0,0 810.396,386.202 Z " style="stroke-width: 2.0; stroke: rgb(0,0,0); fill: rgb(0,255,57); " />
<path d="M 1008.164,312.851 A1285.000,1285.000 0.000 0,1 1187.621,253.547 L 1181.543,229.297 A1310.000,1310.000 0.000 0,0 998.595,289.755 Z " style="stroke-width: 2.0; stroke: rgb(0,0,0); fill: rgb(227,255,0); " />
<path d="M 1187.621,253.547 A1285.000,1285.000 0.000 0,1 1352.621,223.480 L 1349.754,198.645 A1310.000,1310.000 0.000 0,0 1181.543,229.297 Z " style="stroke-width: 2.0; stroke: rgb(0,0,0); fill: rgb(0,255,198); " />
<path d="M 1352.621,223.480 A1285.000,1285.000 0.000 0,1 1480.308,215.151 L 1479.925,190.154 A1310.000,1310.000 0.000 0,0 1349.754,198.645 Z " style="stroke-width: 2.0; stroke: rgb(0,0,0); fill: rgb(255,142,0); " />
</g>
<path d="M 689.839,581.162 A1225.000,1225.000 0.000 0,1 1481.228,275.144 L 1480.462,225.150 A1275.000,1275.000 0.000 0,0 656.771,543.658 Z " style="stroke: none;  fill: none; " />
</g>
<g id="cellvalues">
</g>
<g id="cellvalues">
<path d="M 364.691,1962.167 A 1225.775,1225.775 0.00 0,1 351.4,1928.0 Q 1500.0,1500.0 2655.4,1855.4 A 1208.775,1208.775 0.00 0,1 2644.2,1889.7 Q 1500.0,1500.0 364.7,1962.2 Z" style="stroke-width: 1.0;  stroke: rgb(0,0,0); fill: rgb(0,170,255);"/>
</g>
<g id="cellvalues">
<path d="M 385.129,2009.498 A 1225.775,1225.775 0.00 0,1 364.7,1962.2 Q 1500.0,1500.0 1187.6,2667.7 A 1208.775,1208.775 0.00 0,1 1138.8,2653.5 Q 1500.0,1500.0 385.1,2009.5 Z" style="stroke-width: 1.0;  stroke: rgb(0,0,0); fill: rgb(0,170,255);"/>
</g>
<g id="cellvalues">
<path d="M 288.410,1314.056 A 1225.775,1225.775 0.00 0,1 298.1,1259.3 Q 1500.0,1500.0 2670.3,1802.6 A 1208.775,1208.775 0.00 0,1 2655.4,1855.4 Q 1500.0,1500.0 288.4,1314.1 Z" style="stroke-width: 1.0;  stroke: rgb(0,0,0); fill: rgb(0,28,255);"/>
</g>
<g id="cellvalues">
<path d="M 416.285,2072.788 A 1225.775,1225.775 0.00 0,1 385.1,2009.5 Q 1500.0,1500.0 2695.1,1318.4 A 1208.775,1208.775 0.00 0,1 2703.5,1387.4 Q 1500.0,1500.0 416.3,2072.8 Z" style="stroke-width: 1.0;  stroke: rgb(0,0,0); fill: rgb(0,170,255);"/>
</g>
<g id="cellvalues">
<path d="M 455.265,2141.134 A 1225.775,1225.775 0.00 0,1 416.3,2072.8 Q 1500.0,1500.0 587.4,2292.7 A 1208.775,1208.775 0.00 0,1 538.4,2232.5 Q 1500.0,1500.0 455.3,2141.1 Z" style="stroke-width: 1.0;  stroke: rgb(0,0,0); fill: rgb(0,170,255);"/>
</g>
<g id="cellvalues">
<path d="M 277.071,1416.517 A 1225.775,1225.775 0.00 0,1 288.4,1314.1 Q 1500.0,1500.0 657.2,2366.5 A 1208.775,1208.775 0.00 0,1 587.4,2292.7 Q 1500.0,1500.0 277.1,1416.5 Z" style="stroke-width: 1.0;  stroke: rgb(0,0,0); fill: rgb(0,28,255);"/>
</g>
<g id="cellvalues">
<path d="M 513.635,2227.742 A 1225.775,1225.775 0.00 0,1 455.3,2141.1 Q 1500.0,1500.0 2205.1,2481.8 A 1208.775,1208.775 0.00 0,1 2119.0,2538.3 Q 1500.0,1500.0 513.6,2227.7 Z" style="stroke-width: 1.0;  stroke: rgb(0,0,0); fill: rgb(0,170,255);"/>
</g>
<g id="cellvalues">
<path d="M 599.282,668.597 A 1225.775,1225.775 0.00 0,1 675.3,593.1 Q 1500.0,1500.0 2674.6,1214.7 A 1208.775,1208.775 0.00 0,1 2695.1,1318.4 Q 1500.0,1500.0 599.3,668.6 Z" style="stroke-width: 1.0;  stroke: rgb(0,0,0); fill: rgb(113,0,255);"/>
</g>
<g id="cellvalues">
<path d="M 528.458,752.584 A 1225.775,1225.775 0.00 0,1 599.3,668.6 Q 1500.0,1500.0 2692.7,1696.6 A 1208.775,1208.775 0.00 0,1 2670.3,1802.6 Q 1500.0,1500.0 528.5,752.6 Z" style="stroke-width: 1.0;  stroke: rgb(0,0,0); fill: rgb(113,0,255);"/>
<path d="M 274.508,1526.350 A 1225.775,1225.775 0.00 0,1 277.1,1416.5 Q 1500.0,1500.0 2290.2,2414.7 A 1208.775,1208.775 0.00 0,1 2205.1,2481.8 Q 1500.0,1500.0 274.5,1526.4 Z" style="stroke-width: 1.0;  stroke: rgb(0,0,0); fill: rgb(0,28,255);"/>
</g>
<g id="cellvalues">
<path d="M 2401.003,668.906 A 1225.775,1225.775 0.00 0,1 2475.1,757.2 Q 1500.0,1500.0 2705.9,1583.7 A 1208.775,1208.775 0.00 0,1 2692.7,1696.6 Q 1500.0,1500.0 2401.0,668.9 Z" style="stroke-width: 1.0;  stroke: rgb(0,0,0); fill: rgb(255,0,0);"/>
</g>
<g id="cellvalues">
<path d="M 1359.414,282.314 A 1225.775,1225.775 0.00 0,1 1481.2,274.4 Q 1500.0,1500.0 2640.4,1099.3 A 1208.775,1208.775 0.00 0,1 2674.6,1214.7 Q 1500.0,1500.0 1359.4,282.3 Z" style="stroke-width: 1.0;  stroke: rgb(0,0,0); fill: rgb(255,0,255);"/>
</g>
<g id="cellvalues">
<path d="M 2309.813,579.823 A 1225.775,1225.775 0.00 0,1 2401.0,668.9 Q 1500.0,1500.0 2592.6,983.0 A 1208.775,1208.775 0.00 0,1 2640.4,1099.3 Q 1500.0,1500.0 2309.8,579.8 Z" style="stroke-width: 1.0;  stroke: rgb(0,0,0); fill: rgb(255,0,0);"/>
</g>
<g id="cellvalues">
<path d="M 453.958,861.001 A 1225.775,1225.775 0.00 0,1 528.5,752.6 Q 1500.0,1500.0 754.9,2451.9 A 1208.775,1208.775 0.00 0,1 657.2,2366.5 Q 1500.0,1500.0 454.0,861.0 Z" style="stroke-width: 1.0;  stroke: rgb(0,0,0); fill: rgb(113,0,255);"/>
</g>
<g id="cellvalues">
<path d="M 389.774,980.460 A 1225.775,1225.775 0.00 0,1 454.0,861.0 Q 1500.0,1500.0 2386.4,2321.8 A 1208.775,1208.775 0.00 0,1 2290.2,2414.7 Q 1500.0,1500.0 389.8,980.5 Z" style="stroke-width: 1.0;  stroke: rgb(0,0,0); fill: rgb(113,0,255);"/>
</g>
<g id="cellvalues">
<path d="M 287.568,1680.369 A 1225.775,1225.775 0.00 0,1 274.5,1526.4 Q 1500.0,1500.0 1337.1,2697.7 A 1208.775,1208.775 0.00 0,1 1187.6,2667.7 Q 1500.0,1500.0 287.6,1680.4 Z" style="stroke-width: 1.0;  stroke: rgb(0,0,0); fill: rgb(0,28,255);"/>
</g>
<g id="cellvalues">
<path d="M 1202.018,310.996 A 1225.775,1225.775 0.00 0,1 1359.4,282.3 Q 1500.0,1500.0 885.3,2540.8 A 1208.775,1208.775 0.00 0,1 754.9,2451.9 Q 1500.0,1500.0 1202.0,311.0 Z" style="stroke-width: 1.0;  stroke: rgb(0,0,0); fill: rgb(255,0,255);"/>
</g>
<g id="cellvalues">
<path d="M 1030.832,367.566 A 1225.775,1225.775 0.00 0,1 1202.0,311.0 Q 1500.0,1500.0 2705.1,1405.9 A 1208.775,1208.775 0.00 0,1 2705.9,1583.7 Q 1500.0,1500.0 1030.8,367.6 Z" style="stroke-width: 1.0;  stroke: rgb(0,0,0); fill: rgb(255,0,255);"/>
</g>
<g id="cellvalues">
<path d="M 854.734,457.812 A 1225.775,1225.775 0.00 0,1 1030.8,367.6 Q 1500.0,1500.0 1531.9,2708.4 A 1208.775,1208.775 0.00 0,1 1337.1,2697.7 Q 1500.0,1500.0 854.7,457.8 Z" style="stroke-width: 1.0;  stroke: rgb(0,0,0); fill: rgb(255,0,255);"/>
</g>
<g id="cellvalues">
<path d="M 689.326,580.580 A 1225.775,1225.775 0.00 0,1 854.7,457.8 Q 1500.0,1500.0 2511.5,2161.8 A 1208.775,1208.775 0.00 0,1 2386.4,2321.8 Q 1500.0,1500.0 689.3,580.6 Z" style="stroke-width: 1.0;  stroke: rgb(0,0,0); fill: rgb(255,0,255);"/>
</g>
<g id="cellvalues">
<path d="M 344.964,1910.385 A 1225.775,1225.775 0.00 0,1 287.6,1680.4 Q 1500.0,1500.0 2472.7,782.4 A 1208.775,1208.775 0.00 0,1 2592.6,983.0 Q 1500.0,1500.0 345.0,1910.4 Z" style="stroke-width: 1.0;  stroke: rgb(0,0,0); fill: rgb(0,28,255);"/>
</g>
<g id="cellvalues">
<path d="M 2095.134,428.394 A 1225.775,1225.775 0.00 0,1 2309.8,579.8 Q 1500.0,1500.0 1121.2,2647.9 A 1208.775,1208.775 0.00 0,1 885.3,2540.8 Q 1500.0,1500.0 2095.1,428.4 Z" style="stroke-width: 1.0;  stroke: rgb(0,0,0); fill: rgb(255,0,0);"/>
</g>
<g id="cellvalues">
<path d="M 301.923,1240.892 A 1225.775,1225.775 0.00 0,1 389.8,980.5 Q 1500.0,1500.0 1800.3,2670.9 A 1208.775,1208.775 0.00 0,1 1531.9,2708.4 Q 1500.0,1500.0 301.9,1240.9 Z" style="stroke-width: 1.0;  stroke: rgb(0,0,0); fill: rgb(113,0,255);"/>
</g>
<g id="cellvalues">
<path d="M 1828.355,319.023 A 1225.775,1225.775 0.00 0,1 2095.1,428.4 Q 1500.0,1500.0 2638.1,1907.2 A 1208.775,1208.775 0.00 0,1 2511.5,2161.8 Q 1500.0,1500.0 1828.4,319.0 Z" style="stroke-width: 1.0;  stroke: rgb(0,0,0); fill: rgb(255,0,0);"/>
</g>
<g id="cellvalues">
<path d="M 1500.000,274.225 A 1225.775,1225.775 0.00 0,1 1828.4,319.0 Q 1500.0,1500.0 2103.0,2547.6 A 1208.775,1208.775 0.00 0,1 1800.3,2670.9 Q 1500.0,1500.0 1500.0,274.2 Z" style="stroke-width: 1.0;  stroke: rgb(0,0,0); fill: rgb(255,0,0);"/>
</g>
<g id="plot0">
<g id="plot0-axis">
</g>
<text x="2132.2" y="278.9" style="fill: rgb(0,0,0); font-size: 48.0px; text-anchor: start" transform="rotate(296.4,2132.2,278.9)">A</text>
<text x="2860.8" y="1696.9" style="fill: rgb(0,0,0); font-size: 48.0px; text-anchor: start" transform="rotate(7.2,2860.8,1696.9)">G</text>
<text x="2546.1" y="2392.3" style="fill: rgb(0,0,0); font-size: 48.0px; text-anchor: start" transform="rotate(39.4,2546.1,2392.3)">H</text>
<text x="296.7" y="834.6" style="fill: rgb(0,0,0); font-size: 48.0px; text-anchor: end" transform="rotate(30.0,296.7,834.6)">D</text>
<text x="302.7" y="2176.0" style="fill: rgb(0,0,0); font-size: 48.0px; text-anchor: end" transform="rotate(331.6,302.7,2176.0)">B</text>
<text x="130.6" y="1624.1" style="fill: rgb(0,0,0); font-size: 48.0px; text-anchor: end" transform="rotate(355.9,130.6,1624.1)">C</text>
<text x="981.3" y="226.6" style="fill: rgb(0,0,0); font-size: 48.0px; text-anchor: end" transform="rotate(68.9,981.3,226.6)">E</text>
<text x="2793.2" y="1032.9" style="fill: rgb(0,0,0); font-size: 48.0px; text-anchor: start" transform="rotate(339.1,2793.2,1032.9)">F</text>
<text x="722.3" y="2634.0" style="fill: rgb(0,0,0); font-size: 48.0px; text-anchor: end" transform="rotate(305.5,722.3,2634.0)">J</text>
<text x="1625.8" y="2869.2" style="fill: rgb(0,0,0); font-size: 48.0px; text-anchor: start" transform="rotate(83.7,1625.8,2869.2)">I</text>
</g>
</svg>
