<?xml version="1.0" standalone="no"?>
<!DOCTYPE svg PUBLIC "-//W3C//DTD SVG 1.1//EN" "http://www.w3.org/Graphics/SVG/1.1/DTD/svg11.dtd">
<svg width="3000px" height="3000px" version="1.1" xmlns="http://www.w3.org/2000/svg" xmlns:xlink="http://www.w3.org/1999/xlink">
<g id="ideograms">
<path d="M 1500.000,275.000 A1225.000,1225.000 0.000 0,1 2488.331,776.241 L 2528.671,746.700 A1275.000,1275.000 0.000 0,0 1500.000,225.000 Z " style="stroke: none;  fill: rgb(230,46,46); " />
<path d="M 1500.000,275.000 A1225.000,1225.000 0.000 0,1 2488.331,776.241 L 2528.671,746.700 A1275.000,1275.000 0.000 0,0 1500.000,225.000 Z " style="stroke: none;  fill: none; " />
<path d="M 2499.306,791.472 A1225.000,1225.000 0.000 0,1 2648.887,1074.930 L 2695.780,1057.581 A1275.000,1275.000 0.000 0,0 2540.094,762.552 Z " style="stroke: none;  fill: rgb(230,46,230); " />
<path d="M 2499.306,791.472 A1225.000,1225.000 0.000 0,1 2648.887,1074.930 L 2695.780,1057.581 A1275.000,1275.000 0.000 0,0 2540.094,762.552 Z " style="stroke: none;  fill: none; " />
<path d="M 2655.266,1092.586 A1225.000,1225.000 0.000 0,1 2714.970,1656.440 L 2764.560,1662.825 A1275.000,1275.000 0.000 0,0 2702.419,1075.957 Z " style="stroke: none;  fill: rgb(127,46,230); " />
<path d="M 2655.266,1092.586 A1225.000,1225.000 0.000 0,1 2714.970,1656.440 L 2764.560,1662.825 A1275.000,1275.000 0.000 0,0 2702.419,1075.957 Z " style="stroke: none;  fill: none; " />
<path d="M 2712.430,1675.040 A1225.000,1225.000 0.000 0,1 2266.877,2455.261 L 2298.179,2494.251 A1275.000,1275.000 0.000 0,0 2761.917,1682.185 Z " style="stroke: none;  fill: rgb(230,148,46); " />
<path d="M 2712.430,1675.040 A1225.000,1225.000 0.000 0,1 2266.877,2455.261 L 2298.179,2494.251 A1275.000,1275.000 0.000 0,0 2761.917,1682.185 Z " style="stroke: none;  fill: none; " />
<path d="M 2252.149,2466.901 A1225.000,1225.000 0.000 0,1 1518.772,2724.856 L 1519.538,2774.850 A1275.000,1275.000 0.000 0,0 2282.849,2506.366 Z " style="stroke: none;  fill: rgb(107,229,46); " />
<path d="M 2252.149,2466.901 A1225.000,1225.000 0.000 0,1 1518.772,2724.856 L 1519.538,2774.850 A1275.000,1275.000 0.000 0,0 2282.849,2506.366 Z " style="stroke: none;  fill: none; " />
<path d="M 1500.000,2725.000 A1225.000,1225.000 0.000 0,1 788.452,2497.158 L 759.409,2537.858 A1275.000,1275.000 0.000 0,0 1500.000,2775.000 Z " style="stroke: none;  fill: rgb(46,229,189); " />
<path d="M 1500.000,2725.000 A1225.000,1225.000 0.000 0,1 788.452,2497.158 L 759.409,2537.858 A1275.000,1275.000 0.000 0,0 1500.000,2775.000 Z " style="stroke: none;  fill: none; " />
<path d="M 773.255,2486.137 A1225.000,1225.000 0.000 0,1 378.641,1993.132 L 332.871,2013.260 A1275.000,1275.000 0.000 0,0 743.591,2526.387 Z " style="stroke: none;  fill: rgb(46,66,230); " />
<path d="M 773.255,2486.137 A1225.000,1225.000 0.000 0,1 378.641,1993.132 L 332.871,2013.260 A1275.000,1275.000 0.000 0,0 743.591,2526.387 Z " style="stroke: none;  fill: none; " />
<path d="M 371.216,1975.890 A1225.000,1225.000 0.000 0,1 324.896,1153.944 L 276.932,1139.819 A1275.000,1275.000 0.000 0,0 325.143,1995.314 Z " style="stroke: none;  fill: rgb(209,229,46); " />
<path d="M 371.216,1975.890 A1225.000,1225.000 0.000 0,1 324.896,1153.944 L 276.932,1139.819 A1275.000,1275.000 0.000 0,0 325.143,1995.314 Z " style="stroke: none;  fill: none; " />
<path d="M 330.337,1135.977 A1225.000,1225.000 0.000 0,1 748.343,532.716 L 717.664,493.235 A1275.000,1275.000 0.000 0,0 282.595,1121.119 Z " style="stroke: none;  fill: rgb(46,168,230); " />
<path d="M 330.337,1135.977 A1225.000,1225.000 0.000 0,1 748.343,532.716 L 717.664,493.235 A1275.000,1275.000 0.000 0,0 282.595,1121.119 Z " style="stroke: none;  fill: none; " />
<path d="M 763.255,521.311 A1225.000,1225.000 0.000 0,1 1481.228,275.144 L 1480.462,225.150 A1275.000,1275.000 0.000 0,0 733.183,481.365 Z " style="stroke: none;  fill: rgb(46,229,87); " />
<path d="M 763.255,521.311 A1225.000,1225.000 0.000 0,1 1481.228,275.144 L 1480.462,225.150 A1275.000,1275.000 0.000 0,0 733.183,481.365 Z " style="stroke: none;  fill: none; " />
</g>
<g id="cellvalues">
<path d="M 2639.188,1047.480 A 1225.775,1225.775 0.00 0,1 2649.6,1074.7 Q 1500.0,1500.0 821.4,2500.3 A 1208.775,1208.775 0.00 0,1 797.9,2484.0 Q 1500.0,1500.0 2639.2,1047.5 Z" style="stroke-width: 2.0;  stroke: rgb(0,0,0); fill: rgb(247,42,66); opacity: 0.800;"/>
</g>
<g id="cellvalues">
<path d="M 2619.825,1001.485 A 1225.775,1225.775 0.00 0,1 2639.2,1047.5 Q 1500.0,1500.0 1432.3,293.1 A 1208.775,1208.775 0.00 0,1 1481.5,291.4 Q 1500.0,1500.0 2619.8,1001.5 Z" style="stroke-width: 2.0;  stroke: rgb(0,0,0); fill: rgb(247,42,66); opacity: 0.800;"/>
</g>
<g id="cellvalues">
<path d="M 2596.134,951.352 A 1225.775,1225.775 0.00 0,1 2619.8,1001.5 Q 1500.0,1500.0 326.2,1211.3 A 1208.775,1208.775 0.00 0,1 340.5,1158.5 Q 1500.0,1500.0 2596.1,951.4 Z" style="stroke-width: 2.0;  stroke: rgb(0,0,0); fill: rgb(247,42,66); opacity: 0.800;"/>
</g>
<g id="cellvalues">
<path d="M 2722.837,1584.810 A 1225.775,1225.775 0.00 0,1 2715.7,1656.5 Q 1500.0,1500.0 881.4,2538.5 A 1208.775,1208.775 0.00 0,1 821.4,2500.3 Q 1500.0,1500.0 2722.8,1584.8 Z" style="stroke-width: 2.0;  stroke: rgb(0,0,0); fill: rgb(247,42,66); opacity: 0.800;"/>
<path d="M 2561.298,886.672 A 1225.775,1225.775 0.00 0,1 2596.1,951.4 Q 1500.0,1500.0 702.5,591.7 A 1208.775,1208.775 0.00 0,1 758.3,545.5 Q 1500.0,1500.0 2561.3,886.7 Z" style="stroke-width: 2.0;  stroke: rgb(0,0,0); fill: rgb(247,42,66); opacity: 0.800;"/>
</g>
<g id="cellvalues">
<path d="M 2725.774,1501.698 A 1225.775,1225.775 0.00 0,1 2722.8,1584.8 Q 1500.0,1500.0 642.7,647.8 A 1208.775,1208.775 0.00 0,1 702.5,591.7 Q 1500.0,1500.0 2725.8,1501.7 Z" style="stroke-width: 2.0;  stroke: rgb(0,0,0); fill: rgb(247,42,66); opacity: 0.800;"/>
</g>
<g id="cellvalues">
<path d="M 2722.281,1407.516 A 1225.775,1225.775 0.00 0,1 2725.8,1501.7 Q 1500.0,1500.0 1339.8,301.9 A 1208.775,1208.775 0.00 0,1 1432.3,293.1 Q 1500.0,1500.0 2722.3,1407.5 Z" style="stroke-width: 2.0;  stroke: rgb(0,0,0); fill: rgb(247,42,66); opacity: 0.800;"/>
<path d="M 1612.895,2720.565 A 1225.775,1225.775 0.00 0,1 1518.8,2725.6 Q 1500.0,1500.0 579.8,716.2 A 1208.775,1208.775 0.00 0,1 642.7,647.8 Q 1500.0,1500.0 1612.9,2720.6 Z" style="stroke-width: 2.0;  stroke: rgb(0,0,0); fill: rgb(247,42,66); opacity: 0.800;"/>
</g>
<g id="cellvalues">
<path d="M 2710.491,1307.031 A 1225.775,1225.775 0.00 0,1 2722.3,1407.5 Q 1500.0,1500.0 437.4,2076.2 A 1208.775,1208.775 0.00 0,1 393.5,1986.6 Q 1500.0,1500.0 2710.5,1307.0 Z" style="stroke-width: 2.0;  stroke: rgb(0,0,0); fill: rgb(247,42,66); opacity: 0.800;"/>
<path d="M 2424.954,695.646 A 1225.775,1225.775 0.00 0,1 2489.0,775.8 Q 1500.0,1500.0 489.3,2163.0 A 1208.775,1208.775 0.00 0,1 437.4,2076.2 Q 1500.0,1500.0 2425.0,695.6 Z" style="stroke-width: 2.0;  stroke: rgb(0,0,0); fill: rgb(247,42,66); opacity: 0.800;"/>
</g>
<g id="cellvalues">
<path d="M 2499.938,791.023 A 1225.775,1225.775 0.00 0,1 2561.3,886.7 Q 1500.0,1500.0 555.0,2253.8 A 1208.775,1208.775 0.00 0,1 489.3,2163.0 Q 1500.0,1500.0 2499.9,791.0 Z" style="stroke-width: 2.0;  stroke: rgb(0,0,0); fill: rgb(247,42,66); opacity: 0.800;"/>
</g>
<g id="cellvalues">
<path d="M 2367.403,2366.104 A 1225.775,1225.775 0.00 0,1 2267.4,2455.9 Q 1500.0,1500.0 499.5,821.7 A 1208.775,1208.775 0.00 0,1 579.8,716.2 Q 1500.0,1500.0 2367.4,2366.1 Z" style="stroke-width: 2.0;  stroke: rgb(0,0,0); fill: rgb(247,42,66); opacity: 0.800;"/>
</g>
<g id="cellvalues">
<path d="M 1749.924,2700.026 A 1225.775,1225.775 0.00 0,1 1612.9,2720.6 Q 1500.0,1500.0 646.1,2355.6 A 1208.775,1208.775 0.00 0,1 555.0,2253.8 Q 1500.0,1500.0 1749.9,2700.0 Z" style="stroke-width: 2.0;  stroke: rgb(0,0,0); fill: rgb(247,42,66); opacity: 0.800;"/>
</g>
<g id="cellvalues">
<path d="M 1891.650,2661.523 A 1225.775,1225.775 0.00 0,1 1749.9,2700.0 Q 1500.0,1500.0 1010.1,2605.0 A 1208.775,1208.775 0.00 0,1 881.4,2538.5 Q 1500.0,1500.0 1891.7,2661.5 Z" style="stroke-width: 2.0;  stroke: rgb(0,0,0); fill: rgb(247,42,66); opacity: 0.800;"/>
</g>
<g id="cellvalues">
<path d="M 2475.774,2241.883 A 1225.775,1225.775 0.00 0,1 2367.4,2366.1 Q 1500.0,1500.0 298.1,1371.4 A 1208.775,1208.775 0.00 0,1 326.2,1211.3 Q 1500.0,1500.0 2475.8,2241.9 Z" style="stroke-width: 2.0;  stroke: rgb(0,0,0); fill: rgb(247,42,66); opacity: 0.800;"/>
</g>
<g id="cellvalues">
<path d="M 2575.265,2088.498 A 1225.775,1225.775 0.00 0,1 2475.8,2241.9 Q 1500.0,1500.0 782.9,2473.1 A 1208.775,1208.775 0.00 0,1 646.1,2355.6 Q 1500.0,1500.0 2575.3,2088.5 Z" style="stroke-width: 2.0;  stroke: rgb(0,0,0); fill: rgb(247,42,66); opacity: 0.800;"/>
<path d="M 2295.029,567.019 A 1225.775,1225.775 0.00 0,1 2425.0,695.6 Q 1500.0,1500.0 292.3,1551.6 A 1208.775,1208.775 0.00 0,1 298.1,1371.4 Q 1500.0,1500.0 2295.0,567.0 Z" style="stroke-width: 2.0;  stroke: rgb(0,0,0); fill: rgb(247,42,66); opacity: 0.800;"/>
</g>
<g id="cellvalues">
<path d="M 2072.350,2583.947 A 1225.775,1225.775 0.00 0,1 1891.7,2661.5 Q 1500.0,1500.0 1150.2,342.9 A 1208.775,1208.775 0.00 0,1 1339.8,301.9 Q 1500.0,1500.0 2072.3,2583.9 Z" style="stroke-width: 2.0;  stroke: rgb(0,0,0); fill: rgb(247,42,66); opacity: 0.800;"/>
</g>
<g id="cellvalues">
<path d="M 2660.979,1893.259 A 1225.775,1225.775 0.00 0,1 2575.3,2088.5 Q 1500.0,1500.0 955.0,421.0 A 1208.775,1208.775 0.00 0,1 1150.2,342.9 Q 1500.0,1500.0 2661.0,1893.3 Z" style="stroke-width: 2.0;  stroke: rgb(247,42,66); fill: rgb(0,0,0);"/>
<path d="M 2252.625,2467.513 A 1225.775,1225.775 0.00 0,1 2072.3,2583.9 Q 1500.0,1500.0 319.8,1761.5 A 1208.775,1208.775 0.00 0,1 292.3,1551.6 Q 1500.0,1500.0 2252.6,2467.5 Z" style="stroke-width: 2.0;  stroke: rgb(247,42,66); fill: rgb(0,0,0);"/>
</g>
<g id="cellvalues">
<path d="M 2117.734,441.260 A 1225.775,1225.775 0.00 0,1 2295.0,567.0 Q 1500.0,1500.0 773.0,534.3 A 1208.775,1208.775 0.00 0,1 955.0,421.0 Q 1500.0,1500.0 2117.7,441.3 Z" style="stroke-width: 2.0;  stroke: rgb(247,42,66); fill: rgb(0,0,0);"/>
</g>
<g id="cellvalues">
<path d="M 2655.997,1092.328 A 1225.775,1225.775 0.00 0,1 2710.5,1307.0 Q 1500.0,1500.0 386.2,1969.6 A 1208.775,1208.775 0.00 0,1 319.8,1761.5 Q 1500.0,1500.0 2656.0,1092.3 Z" style="stroke-width: 2.0;  stroke: rgb(247,42,66); fill: rgb(0,0,0);"/>
</g>
<g id="cellvalues">
<path d="M 2713.197,1675.151 A 1225.775,1225.775 0.00 0,1 2661.0,1893.3 Q 1500.0,1500.0 1219.6,2675.8 A 1208.775,1208.775 0.00 0,1 1010.1,2605.0 Q 1500.0,1500.0 2713.2,1675.2 Z" style="stroke-width: 2.0;  stroke: rgb(247,42,66); fill: rgb(0,0,0);"/>
</g>
<g id="cellvalues">
<path d="M 1855.274,326.840 A 1225.775,1225.775 0.00 0,1 2117.7,441.3 Q 1500.0,1500.0 1500.0,2708.8 A 1208.775,1208.775 0.00 0,1 1219.6,2675.8 Q 1500.0,1500.0 1855.3,326.8 Z" style="stroke-width: 2.0;  stroke: rgb(247,42,66); fill: rgb(0,0,0);"/>
</g>
<g id="cellvalues">
<path d="M 1500.000,274.225 A 1225.775,1225.775 0.00 0,1 1855.3,326.8 Q 1500.0,1500.0 345.8,1140.8 A 1208.775,1208.775 0.00 0,1 499.5,821.7 Q 1500.0,1500.0 1500.0,274.2 Z" style="stroke-width: 2.0;  stroke: rgb(0,0,0); fill: rgb(247,42,66); opacity: 0.800;"/>
</g>
<g id="plot0">
<g id="plot0-axis">
</g>
<text x="2143.7" y="285.0" style="fill: rgb(0,0,0); font-size: 48.0px; text-anchor: start" transform="rotate(296.9,2143.7,285.0)">A</text>
<text x="2681.7" y="2203.0" style="fill: rgb(0,0,0); font-size: 48.0px; text-anchor: start" transform="rotate(29.7,2681.7,2203.0)">D</text>
<text x="442.6" y="2379.0" style="fill: rgb(0,0,0); font-size: 48.0px; text-anchor: end" transform="rotate(321.3,442.6,2379.0)">G</text>
<text x="128.8" y="1601.8" style="fill: rgb(0,0,0); font-size: 48.0px; text-anchor: end" transform="rotate(356.8,128.8,1601.8)">H</text>
<text x="2727.3" y="880.1" style="fill: rgb(0,0,0); font-size: 48.0px; text-anchor: start" transform="rotate(332.2,2727.3,880.1)">B</text>
<text x="2869.8" y="1380.6" style="fill: rgb(0,0,0); font-size: 48.0px; text-anchor: start" transform="rotate(354.0,2869.8,1380.6)">C</text>
<text x="1933.1" y="2805.0" style="fill: rgb(0,0,0); font-size: 48.0px; text-anchor: start" transform="rotate(70.6,1933.1,2805.0)">E</text>
<text x="1104.1" y="2816.8" style="fill: rgb(0,0,0); font-size: 48.0px; text-anchor: end" transform="rotate(287.8,1104.1,2816.8)">F</text>
<text x="1030.5" y="207.7" style="fill: rgb(0,0,0); font-size: 48.0px; text-anchor: end" transform="rotate(71.1,1030.5,207.7)">J</text>
<text x="356.0" y="737.1" style="fill: rgb(0,0,0); font-size: 48.0px; text-anchor: end" transform="rotate(34.7,356.0,737.1)">I</text>
</g>
</svg>
