<?xml version="1.0" standalone="no"?>
<!DOCTYPE svg PUBLIC "-//W3C//DTD SVG 1.1//EN" "http://www.w3.org/Graphics/SVG/1.1/DTD/svg11.dtd">
<svg width="3000px" height="3000px" version="1.1" xmlns="http://www.w3.org/2000/svg" xmlns:xlink="http://www.w3.org/1999/xlink">
<g id="ideograms">
<path d="M 1500.000,275.000 A1225.000,1225.000 0.000 0,1 2678.956,1167.303 L 2727.077,1153.724 A1275.000,1275.000 0.000 0,0 1500.000,225.000 Z " style="stroke: none;  fill: rgb(230,46,46); " />
<path d="M 1500.000,275.000 A1225.000,1225.000 0.000 0,1 2678.956,1167.303 L 2727.077,1153.724 A1275.000,1275.000 0.000 0,0 1500.000,225.000 Z " style="stroke: none;  fill: none; " />
<path d="M 2683.916,1185.409 A1225.000,1225.000 0.000 0,1 2710.470,1311.887 L 2759.877,1304.209 A1275.000,1275.000 0.000 0,0 2732.239,1172.568 Z " style="stroke: none;  fill: rgb(230,46,230); " />
<path d="M 2683.916,1185.409 A1225.000,1225.000 0.000 0,1 2710.470,1311.887 L 2759.877,1304.209 A1275.000,1275.000 0.000 0,0 2732.239,1172.568 Z " style="stroke: none;  fill: none; " />
<path d="M 2713.211,1330.459 A1225.000,1225.000 0.000 0,1 2699.493,1748.681 L 2748.452,1758.831 A1275.000,1275.000 0.000 0,0 2762.730,1323.539 Z " style="stroke: none;  fill: rgb(127,46,230); " />
<path d="M 2713.211,1330.459 A1225.000,1225.000 0.000 0,1 2699.493,1748.681 L 2748.452,1758.831 A1275.000,1275.000 0.000 0,0 2762.730,1323.539 Z " style="stroke: none;  fill: none; " />
<path d="M 2695.541,1767.033 A1225.000,1225.000 0.000 0,1 2196.861,2507.477 L 2225.304,2548.599 A1275.000,1275.000 0.000 0,0 2744.339,1777.932 Z " style="stroke: none;  fill: rgb(230,148,46); " />
<path d="M 2695.541,1767.033 A1225.000,1225.000 0.000 0,1 2196.861,2507.477 L 2225.304,2548.599 A1275.000,1275.000 0.000 0,0 2744.339,1777.932 Z " style="stroke: none;  fill: none; " />
<path d="M 2181.340,2518.038 A1225.000,1225.000 0.000 0,1 1518.772,2724.856 L 1519.538,2774.850 A1275.000,1275.000 0.000 0,0 2209.150,2559.590 Z " style="stroke: none;  fill: rgb(46,168,230); " />
<path d="M 2181.340,2518.038 A1225.000,1225.000 0.000 0,1 1518.772,2724.856 L 1519.538,2774.850 A1275.000,1275.000 0.000 0,0 2209.150,2559.590 Z " style="stroke: none;  fill: none; " />
<path d="M 1500.000,2725.000 A1225.000,1225.000 0.000 0,1 725.378,2448.992 L 693.761,2487.726 A1275.000,1275.000 0.000 0,0 1500.000,2775.000 Z " style="stroke: none;  fill: rgb(107,229,46); " />
<path d="M 1500.000,2725.000 A1225.000,1225.000 0.000 0,1 725.378,2448.992 L 693.761,2487.726 A1275.000,1275.000 0.000 0,0 1500.000,2775.000 Z " style="stroke: none;  fill: none; " />
<path d="M 710.926,2437.010 A1225.000,1225.000 0.000 0,1 426.275,2089.695 L 382.450,2113.765 A1275.000,1275.000 0.000 0,0 678.719,2475.255 Z " style="stroke: none;  fill: rgb(46,66,230); " />
<path d="M 710.926,2437.010 A1225.000,1225.000 0.000 0,1 426.275,2089.695 L 382.450,2113.765 A1275.000,1275.000 0.000 0,0 678.719,2475.255 Z " style="stroke: none;  fill: none; " />
<path d="M 417.365,2073.172 A1225.000,1225.000 0.000 0,1 297.562,1265.975 L 248.483,1256.423 A1275.000,1275.000 0.000 0,0 373.176,2096.567 Z " style="stroke: none;  fill: rgb(46,229,87); " />
<path d="M 417.365,2073.172 A1225.000,1225.000 0.000 0,1 297.562,1265.975 L 248.483,1256.423 A1275.000,1275.000 0.000 0,0 373.176,2096.567 Z " style="stroke: none;  fill: none; " />
<path d="M 301.289,1247.576 A1225.000,1225.000 0.000 0,1 767.246,518.319 L 737.338,478.251 A1275.000,1275.000 0.000 0,0 252.362,1237.273 Z " style="stroke: none;  fill: rgb(209,229,46); " />
<path d="M 301.289,1247.576 A1225.000,1225.000 0.000 0,1 767.246,518.319 L 737.338,478.251 A1275.000,1275.000 0.000 0,0 252.362,1237.273 Z " style="stroke: none;  fill: none; " />
<path d="M 782.376,507.206 A1225.000,1225.000 0.000 0,1 1481.228,275.144 L 1480.462,225.150 A1275.000,1275.000 0.000 0,0 753.085,466.683 Z " style="stroke: none;  fill: rgb(46,229,189); " />
<path d="M 782.376,507.206 A1225.000,1225.000 0.000 0,1 1481.228,275.144 L 1480.462,225.150 A1275.000,1275.000 0.000 0,0 753.085,466.683 Z " style="stroke: none;  fill: none; " />
</g>
<g id="cellvalues">
<path d="M 2710.548,1307.389 A 1225.775,1225.775 0.00 0,1 2711.2,1311.8 Q 1500.0,1500.0 739.0,2439.2 A 1208.775,1208.775 0.00 0,1 735.6,2436.4 Q 1500.0,1500.0 2710.5,1307.4 Z" style="stroke-width: 1.0;  stroke: rgb(0,0,0); fill: rgb(230,46,230); opacity: 0.800;"/>
</g>
<g id="cellvalues">
<path d="M 2708.432,1294.533 A 1225.775,1225.775 0.00 0,1 2710.5,1307.4 Q 1500.0,1500.0 1468.6,291.6 A 1208.775,1208.775 0.00 0,1 1481.5,291.4 Q 1500.0,1500.0 2708.4,1294.5 Z" style="stroke-width: 1.0;  stroke: rgb(0,0,0); fill: rgb(230,46,230); opacity: 0.800;"/>
</g>
<g id="cellvalues">
<path d="M 2705.632,1278.695 A 1225.775,1225.775 0.00 0,1 2708.4,1294.5 Q 1500.0,1500.0 310.6,1284.7 A 1208.775,1208.775 0.00 0,1 313.5,1269.1 Q 1500.0,1500.0 2705.6,1278.7 Z" style="stroke-width: 1.0;  stroke: rgb(0,0,0); fill: rgb(230,46,230); opacity: 0.800;"/>
</g>
<g id="cellvalues">
<path d="M 2705.474,1722.162 A 1225.775,1225.775 0.00 0,1 2700.3,1748.8 Q 1500.0,1500.0 760.0,2455.8 A 1208.775,1208.775 0.00 0,1 739.0,2439.2 Q 1500.0,1500.0 2705.5,1722.2 Z" style="stroke-width: 1.0;  stroke: rgb(0,0,0); fill: rgb(127,46,230); opacity: 0.800;"/>
</g>
<g id="cellvalues">
<path d="M 2700.214,1250.982 A 1225.775,1225.775 0.00 0,1 2705.6,1278.7 Q 1500.0,1500.0 754.8,548.2 A 1208.775,1208.775 0.00 0,1 777.0,531.3 Q 1500.0,1500.0 2700.2,1251.0 Z" style="stroke-width: 1.0;  stroke: rgb(0,0,0); fill: rgb(230,46,230); opacity: 0.800;"/>
</g>
<g id="cellvalues">
<path d="M 2711.507,1686.481 A 1225.775,1225.775 0.00 0,1 2705.5,1722.2 Q 1500.0,1500.0 727.1,570.6 A 1208.775,1208.775 0.00 0,1 754.8,548.2 Q 1500.0,1500.0 2711.5,1686.5 Z" style="stroke-width: 1.0;  stroke: rgb(0,0,0); fill: rgb(127,46,230); opacity: 0.800;"/>
</g>
<g id="cellvalues">
<path d="M 2717.706,1640.415 A 1225.775,1225.775 0.00 0,1 2711.5,1686.5 Q 1500.0,1500.0 1422.8,293.7 A 1208.775,1208.775 0.00 0,1 1468.6,291.6 Q 1500.0,1500.0 2717.7,1640.4 Z" style="stroke-width: 1.0;  stroke: rgb(0,0,0); fill: rgb(127,46,230); opacity: 0.800;"/>
<path d="M 1565.237,2724.038 A 1225.775,1225.775 0.00 0,1 1518.8,2725.6 Q 1500.0,1500.0 692.4,600.6 A 1208.775,1208.775 0.00 0,1 727.1,570.6 Q 1500.0,1500.0 1565.2,2724.0 Z" style="stroke-width: 1.0;  stroke: rgb(0,0,0); fill: rgb(46,168,230); opacity: 0.800;"/>
</g>
<g id="cellvalues">
<path d="M 2722.678,1587.080 A 1225.775,1225.775 0.00 0,1 2717.7,1640.4 Q 1500.0,1500.0 466.9,2127.6 A 1208.775,1208.775 0.00 0,1 440.5,2081.9 Q 1500.0,1500.0 2722.7,1587.1 Z" style="stroke-width: 1.0;  stroke: rgb(0,0,0); fill: rgb(127,46,230); opacity: 0.800;"/>
<path d="M 2663.567,1114.467 A 1225.775,1225.775 0.00 0,1 2679.7,1167.1 Q 1500.0,1500.0 496.1,2173.4 A 1208.775,1208.775 0.00 0,1 466.9,2127.6 Q 1500.0,1500.0 2663.6,1114.5 Z" style="stroke-width: 1.0;  stroke: rgb(0,0,0); fill: rgb(230,46,46); opacity: 0.800;"/>
</g>
<g id="cellvalues">
<path d="M 2684.665,1185.210 A 1225.775,1225.775 0.00 0,1 2700.2,1251.0 Q 1500.0,1500.0 534.8,2227.7 A 1208.775,1208.775 0.00 0,1 496.1,2173.4 Q 1500.0,1500.0 2684.7,1185.2 Z" style="stroke-width: 1.0;  stroke: rgb(0,0,0); fill: rgb(230,46,230); opacity: 0.800;"/>
</g>
<g id="cellvalues">
<path d="M 2272.939,2451.362 A 1225.775,1225.775 0.00 0,1 2197.3,2508.1 Q 1500.0,1500.0 625.5,665.6 A 1208.775,1208.775 0.00 0,1 692.4,600.6 Q 1500.0,1500.0 2272.9,2451.4 Z" style="stroke-width: 1.0;  stroke: rgb(0,0,0); fill: rgb(230,148,46); opacity: 0.800;"/>
</g>
<g id="cellvalues">
<path d="M 1665.290,2714.580 A 1225.775,1225.775 0.00 0,1 1565.2,2724.0 Q 1500.0,1500.0 597.6,2304.3 A 1208.775,1208.775 0.00 0,1 534.8,2227.7 Q 1500.0,1500.0 1665.3,2714.6 Z" style="stroke-width: 1.0;  stroke: rgb(0,0,0); fill: rgb(46,168,230); opacity: 0.800;"/>
</g>
<g id="cellvalues">
<path d="M 1776.350,2694.217 A 1225.775,1225.775 0.00 0,1 1665.3,2714.6 Q 1500.0,1500.0 851.1,2519.9 A 1208.775,1208.775 0.00 0,1 760.0,2455.8 Q 1500.0,1500.0 1776.4,2694.2 Z" style="stroke-width: 1.0;  stroke: rgb(0,0,0); fill: rgb(46,168,230); opacity: 0.800;"/>
</g>
<g id="cellvalues">
<path d="M 2377.971,2355.389 A 1225.775,1225.775 0.00 0,1 2272.9,2451.4 Q 1500.0,1500.0 293.6,1423.9 A 1208.775,1208.775 0.00 0,1 310.6,1284.7 Q 1500.0,1500.0 2378.0,2355.4 Z" style="stroke-width: 1.0;  stroke: rgb(0,0,0); fill: rgb(230,148,46); opacity: 0.800;"/>
</g>
<g id="cellvalues">
<path d="M 2490.839,2221.639 A 1225.775,1225.775 0.00 0,1 2378.0,2355.4 Q 1500.0,1500.0 721.4,2424.6 A 1208.775,1208.775 0.00 0,1 597.6,2304.3 Q 1500.0,1500.0 2490.8,2221.6 Z" style="stroke-width: 1.0;  stroke: rgb(0,0,0); fill: rgb(230,148,46); opacity: 0.800;"/>
<path d="M 2596.804,952.693 A 1225.775,1225.775 0.00 0,1 2663.6,1114.5 Q 1500.0,1500.0 295.1,1596.5 A 1208.775,1208.775 0.00 0,1 293.6,1423.9 Q 1500.0,1500.0 2596.8,952.7 Z" style="stroke-width: 1.0;  stroke: rgb(0,0,0); fill: rgb(230,46,46); opacity: 0.800;"/>
</g>
<g id="cellvalues">
<path d="M 1969.165,2632.435 A 1225.775,1225.775 0.00 0,1 1776.4,2694.2 Q 1500.0,1500.0 1225.3,322.8 A 1208.775,1208.775 0.00 0,1 1422.8,293.7 Q 1500.0,1500.0 1969.2,2632.4 Z" style="stroke-width: 1.0;  stroke: rgb(0,0,0); fill: rgb(46,168,230); opacity: 0.800;"/>
</g>
<g id="cellvalues">
<path d="M 2611.629,2016.531 A 1225.775,1225.775 0.00 0,1 2490.8,2221.6 Q 1500.0,1500.0 1003.0,398.1 A 1208.775,1208.775 0.00 0,1 1225.3,322.8 Q 1500.0,1500.0 2611.6,2016.5 Z" style="stroke-width: 1.0;  stroke: rgb(0,0,0); fill: rgb(230,148,46); opacity: 0.800;"/>
<path d="M 2181.771,2518.682 A 1225.775,1225.775 0.00 0,1 1969.2,2632.4 Q 1500.0,1500.0 337.3,1830.5 A 1208.775,1208.775 0.00 0,1 295.1,1596.5 Q 1500.0,1500.0 2181.8,2518.7 Z" style="stroke-width: 1.0;  stroke: rgb(0,0,0); fill: rgb(46,168,230); opacity: 0.800;"/>
</g>
<g id="cellvalues">
<path d="M 2464.585,743.628 A 1225.775,1225.775 0.00 0,1 2596.8,952.7 Q 1500.0,1500.0 791.9,520.4 A 1208.775,1208.775 0.00 0,1 1003.0,398.1 Q 1500.0,1500.0 2464.6,743.6 Z" style="stroke-width: 1.0;  stroke: rgb(0,0,0); fill: rgb(230,46,46); opacity: 0.800;"/>
</g>
<g id="cellvalues">
<path d="M 2713.978,1330.352 A 1225.775,1225.775 0.00 0,1 2722.7,1587.1 Q 1500.0,1500.0 431.7,2065.6 A 1208.775,1208.775 0.00 0,1 337.3,1830.5 Q 1500.0,1500.0 2714.0,1330.4 Z" style="stroke-width: 1.0;  stroke: rgb(0,0,0); fill: rgb(127,46,230); opacity: 0.800;"/>
</g>
<g id="cellvalues">
<path d="M 2696.297,1767.202 A 1225.775,1225.775 0.00 0,1 2611.6,2016.5 Q 1500.0,1500.0 1083.9,2634.9 A 1208.775,1208.775 0.00 0,1 851.1,2519.9 Q 1500.0,1500.0 2696.3,1767.2 Z" style="stroke-width: 1.0;  stroke: rgb(0,0,0); fill: rgb(230,148,46); opacity: 0.800;"/>
</g>
<g id="cellvalues">
<path d="M 2145.281,457.821 A 1225.775,1225.775 0.00 0,1 2464.6,743.6 Q 1500.0,1500.0 1500.0,2708.8 A 1208.775,1208.775 0.00 0,1 1083.9,2634.9 Q 1500.0,1500.0 2145.3,457.8 Z" style="stroke-width: 1.0;  stroke: rgb(0,0,0); fill: rgb(230,46,46); opacity: 0.800;"/>
</g>
<g id="cellvalues">
<path d="M 1500.000,274.225 A 1225.775,1225.775 0.00 0,1 2145.3,457.8 Q 1500.0,1500.0 317.2,1250.9 A 1208.775,1208.775 0.00 0,1 625.5,665.6 Q 1500.0,1500.0 1500.0,274.2 Z" style="stroke-width: 1.0;  stroke: rgb(0,0,0); fill: rgb(230,46,46); opacity: 0.800;"/>
</g>
<g id="plot0">
<g id="plot0-axis">
</g>
<text x="2349.2" y="418.6" style="fill: rgb(0,0,0); font-size: 48.0px; text-anchor: start" transform="rotate(307.1,2349.2,418.6)">A</text>
<text x="2626.6" y="2288.3" style="fill: rgb(0,0,0); font-size: 48.0px; text-anchor: start" transform="rotate(34.0,2626.6,2288.3)">D</text>
<text x="452.9" y="2391.2" style="fill: rgb(0,0,0); font-size: 48.0px; text-anchor: end" transform="rotate(320.7,452.9,2391.2)">G</text>
<text x="143.7" y="1726.1" style="fill: rgb(0,0,0); font-size: 48.0px; text-anchor: end" transform="rotate(351.6,143.7,1726.1)">H</text>
<text x="2850.5" y="1241.5" style="fill: rgb(0,0,0); font-size: 48.0px; text-anchor: start" transform="rotate(348.1,2850.5,1241.5)">B</text>
<text x="2873.2" y="1570.6" style="fill: rgb(0,0,0); font-size: 48.0px; text-anchor: start" transform="rotate(1.9,2873.2,1570.6)">C</text>
<text x="1886.3" y="2819.6" style="fill: rgb(0,0,0); font-size: 48.0px; text-anchor: start" transform="rotate(72.7,1886.3,2819.6)">E</text>
<text x="1061.6" y="2803.3" style="fill: rgb(0,0,0); font-size: 48.0px; text-anchor: end" transform="rotate(289.6,1061.6,2803.3)">F</text>
<text x="1043.0" y="203.2" style="fill: rgb(0,0,0); font-size: 48.0px; text-anchor: end" transform="rotate(71.6,1043.0,203.2)">J</text>
<text x="328.3" y="780.4" style="fill: rgb(0,0,0); font-size: 48.0px; text-anchor: end" transform="rotate(32.6,328.3,780.4)">I</text>
</g>
</svg>
