<?xml version="1.0" standalone="no"?>
<!DOCTYPE svg PUBLIC "-//W3C//DTD SVG 1.1//EN" "http://www.w3.org/Graphics/SVG/1.1/DTD/svg11.dtd">
<svg width="3000px" height="3000px" version="1.1" xmlns="http://www.w3.org/2000/svg" xmlns:xlink="http://www.w3.org/1999/xlink">
<g id="ideograms">
<path d="M 1500.000,275.000 A1225.000,1225.000 0.000 0,1 2724.907,1484.908 L 2774.903,1484.292 A1275.000,1275.000 0.000 0,0 1500.000,225.000 Z " style="stroke: none;  fill: rgb(230,46,46); " />
<path d="M 1500.000,275.000 A1225.000,1225.000 0.000 0,1 2724.907,1484.908 L 2774.903,1484.292 A1275.000,1275.000 0.000 0,0 1500.000,225.000 Z " style="stroke: none;  fill: none; " />
<path d="M 2724.994,1503.912 A1225.000,1225.000 0.000 0,1 2500.358,2207.043 L 2541.189,2235.902 A1275.000,1275.000 0.000 0,0 2774.993,1504.072 Z " style="stroke: none;  fill: rgb(184,229,46); " />
<path d="M 2724.994,1503.912 A1225.000,1225.000 0.000 0,1 2500.358,2207.043 L 2541.189,2235.902 A1275.000,1275.000 0.000 0,0 2774.993,1504.072 Z " style="stroke: none;  fill: none; " />
<path d="M 2489.269,2222.477 A1225.000,1225.000 0.000 0,1 1202.203,2688.252 L 1190.049,2736.752 A1275.000,1275.000 0.000 0,0 2529.647,2251.966 Z " style="stroke: none;  fill: rgb(46,229,138); " />
<path d="M 2489.269,2222.477 A1225.000,1225.000 0.000 0,1 1202.203,2688.252 L 1190.049,2736.752 A1275.000,1275.000 0.000 0,0 2529.647,2251.966 Z " style="stroke: none;  fill: none; " />
<path d="M 1183.805,2683.489 A1225.000,1225.000 0.000 0,1 275.308,1472.513 L 225.321,1471.391 A1275.000,1275.000 0.000 0,0 1170.900,2731.795 Z " style="stroke: none;  fill: rgb(46,92,230); " />
<path d="M 1183.805,2683.489 A1225.000,1225.000 0.000 0,1 275.308,1472.513 L 225.321,1471.391 A1275.000,1275.000 0.000 0,0 1170.900,2731.795 Z " style="stroke: none;  fill: none; " />
<path d="M 275.882,1453.517 A1225.000,1225.000 0.000 0,1 1480.996,275.147 L 1480.220,225.153 A1275.000,1275.000 0.000 0,0 225.918,1451.620 Z " style="stroke: none;  fill: rgb(230,46,230); " />
<path d="M 275.882,1453.517 A1225.000,1225.000 0.000 0,1 1480.996,275.147 L 1480.220,225.153 A1275.000,1275.000 0.000 0,0 225.918,1451.620 Z " style="stroke: none;  fill: none; " />
</g>
<g id="cellvalues">
<path d="M 2723.670,1428.196 A 1225.775,1225.775 0.00 0,1 2725.7,1484.9 Q 1500.0,1500.0 2657.0,1850.1 A 1208.775,1208.775 0.00 0,1 2606.3,1987.0 Q 1500.0,1500.0 2723.7,1428.2 Z" style="stroke-width: 1.0;  stroke: rgb(0,0,0); fill: rgb(230,46,46); opacity: 0.800;"/>
</g>
<g id="cellvalues">
<path d="M 1303.874,2709.983 A 1225.775,1225.775 0.00 0,1 1202.0,2689.0 Q 1500.0,1500.0 292.2,1547.5 A 1208.775,1208.775 0.00 0,1 291.5,1472.9 Q 1500.0,1500.0 1303.9,2710.0 Z" style="stroke-width: 1.0;  stroke: rgb(0,0,0); fill: rgb(46,229,138); opacity: 0.800;"/>
<path d="M 2557.359,2120.094 A 1225.775,1225.775 0.00 0,1 2501.0,2207.5 Q 1500.0,1500.0 335.3,1823.3 A 1208.775,1208.775 0.00 0,1 292.2,1547.5 Q 1500.0,1500.0 2557.4,2120.1 Z" style="stroke-width: 1.0;  stroke: rgb(0,0,0); fill: rgb(184,229,46); opacity: 0.800;"/>
</g>
<g id="cellvalues">
<path d="M 2621.888,1993.853 A 1225.775,1225.775 0.00 0,1 2557.4,2120.1 Q 1500.0,1500.0 1053.7,376.6 A 1208.775,1208.775 0.00 0,1 1382.0,297.0 Q 1500.0,1500.0 2621.9,1993.9 Z" style="stroke-width: 1.0;  stroke: rgb(0,0,0); fill: rgb(184,229,46); opacity: 0.800;"/>
</g>
<g id="cellvalues">
<path d="M 2711.094,1689.146 A 1225.775,1225.775 0.00 0,1 2673.3,1855.0 Q 1500.0,1500.0 2200.9,2484.8 A 1208.775,1208.775 0.00 0,1 1912.8,2636.1 Q 1500.0,1500.0 2711.1,1689.1 Z" style="stroke-width: 1.0;  stroke: rgb(0,0,0); fill: rgb(184,229,46); opacity: 0.800;"/>
</g>
<g id="cellvalues">
<path d="M 2725.769,1503.915 A 1225.775,1225.775 0.00 0,1 2711.1,1689.1 Q 1500.0,1500.0 2694.3,1686.5 A 1208.775,1208.775 0.00 0,0 2694.3,1686.5 Q 1500.0,1500.0 2725.8,1503.9 Z" style="stroke-width: 1.0;  stroke: rgb(0,0,0); fill: rgb(184,229,46); opacity: 0.800;"/>
</g>
<g id="cellvalues">
<path d="M 1599.242,2721.751 A 1225.775,1225.775 0.00 0,1 1303.9,2710.0 Q 1500.0,1500.0 1382.0,297.0 A 1208.775,1208.775 0.00 0,1 1481.2,291.4 Q 1500.0,1500.0 1599.2,2721.8 Z" style="stroke-width: 1.0;  stroke: rgb(0,0,0); fill: rgb(46,229,138); opacity: 0.800;"/>
</g>
<g id="cellvalues">
<path d="M 1918.603,2652.083 A 1225.775,1225.775 0.00 0,1 1599.2,2721.8 Q 1500.0,1500.0 1597.9,2704.8 A 1208.775,1208.775 0.00 0,0 1597.9,2704.8 Q 1500.0,1500.0 1918.6,2652.1 Z" style="stroke-width: 1.0;  stroke: rgb(0,0,0); fill: rgb(46,229,138); opacity: 0.800;"/>
</g>
<g id="cellvalues">
<path d="M 2653.930,1086.514 A 1225.775,1225.775 0.00 0,1 2723.7,1428.2 Q 1500.0,1500.0 2476.2,2212.9 A 1208.775,1208.775 0.00 0,1 2200.9,2484.8 Q 1500.0,1500.0 2653.9,1086.5 Z" style="stroke-width: 1.0;  stroke: rgb(0,0,0); fill: rgb(230,46,46); opacity: 0.800;"/>
</g>
<g id="cellvalues">
<path d="M 2471.907,753.059 A 1225.775,1225.775 0.00 0,1 2653.9,1086.5 Q 1500.0,1500.0 726.4,571.2 A 1208.775,1208.775 0.00 0,1 1053.7,376.6 Q 1500.0,1500.0 2471.9,753.1 Z" style="stroke-width: 1.0;  stroke: rgb(0,0,0); fill: rgb(230,46,46); opacity: 0.800;"/>
</g>
<g id="cellvalues">
<path d="M 724.095,2448.945 A 1225.775,1225.775 0.00 0,1 425.6,2090.0 Q 1500.0,1500.0 440.5,2081.8 A 1208.775,1208.775 0.00 0,0 440.5,2081.8 Q 1500.0,1500.0 724.1,2448.9 Z" style="stroke-width: 1.0;  stroke: rgb(0,0,0); fill: rgb(46,92,230); opacity: 0.800;"/>
</g>
<g id="cellvalues">
<path d="M 2094.790,428.203 A 1225.775,1225.775 0.00 0,1 2471.9,753.1 Q 1500.0,1500.0 2458.4,763.4 A 1208.775,1208.775 0.00 0,0 2458.4,763.4 Q 1500.0,1500.0 2094.8,428.2 Z" style="stroke-width: 1.0;  stroke: rgb(0,0,0); fill: rgb(230,46,46); opacity: 0.800;"/>
</g>
<g id="cellvalues">
<path d="M 1183.605,2684.238 A 1225.775,1225.775 0.00 0,1 724.1,2448.9 Q 1500.0,1500.0 438.2,922.3 A 1208.775,1208.775 0.00 0,1 726.4,571.2 Q 1500.0,1500.0 1183.6,2684.2 Z" style="stroke-width: 1.0;  stroke: rgb(0,0,0); fill: rgb(46,92,230); opacity: 0.800;"/>
</g>
<g id="cellvalues">
<path d="M 275.108,1453.488 A 1225.775,1225.775 0.00 0,1 423.3,914.2 Q 1500.0,1500.0 438.2,922.3 A 1208.775,1208.775 0.00 0,0 438.2,922.3 Q 1500.0,1500.0 275.1,1453.5 Z" style="stroke-width: 1.0;  stroke: rgb(0,0,0); fill: rgb(230,46,230); opacity: 0.800;"/>
</g>
<g id="cellvalues">
<path d="M 1500.000,274.225 A 1225.775,1225.775 0.00 0,1 2094.8,428.2 Q 1500.0,1500.0 440.5,2081.8 A 1208.775,1208.775 0.00 0,1 335.3,1823.3 Q 1500.0,1500.0 1500.0,274.2 Z" style="stroke-width: 1.0;  stroke: rgb(0,0,0); fill: rgb(230,46,46); opacity: 0.800;"/>
</g>
<g id="plot0">
<g id="plot0-axis">
</g>
<text x="2483.5" y="539.1" style="fill: rgb(0,0,0); font-size: 48.0px; text-anchor: start" transform="rotate(314.6,2483.5,539.1)">A</text>
<text x="415.0" y="2344.6" style="fill: rgb(0,0,0); font-size: 48.0px; text-anchor: end" transform="rotate(323.1,415.0,2344.6)">D</text>
<text x="2802.1" y="1941.7" style="fill: rgb(0,0,0); font-size: 48.0px; text-anchor: start" transform="rotate(17.7,2802.1,1941.7)">B</text>
<text x="1943.8" y="2801.4" style="fill: rgb(0,0,0); font-size: 48.0px; text-anchor: start" transform="rotate(70.1,1943.8,2801.4)">C</text>
<text x="521.3" y="534.2" style="fill: rgb(0,0,0); font-size: 48.0px; text-anchor: end" transform="rotate(45.6,521.3,534.2)">E</text>
</g>
</svg>
