<?xml version="1.0" standalone="no"?>
<!DOCTYPE svg PUBLIC "-//W3C//DTD SVG 1.1//EN" "http://www.w3.org/Graphics/SVG/1.1/DTD/svg11.dtd">
<svg width="3000px" height="3000px" version="1.1" xmlns="http://www.w3.org/2000/svg" xmlns:xlink="http://www.w3.org/1999/xlink">
<g id="ideograms">
<path d="M 1500.000,275.000 A1225.000,1225.000 0.000 0,1 1877.085,334.482 L 1892.476,286.910 A1275.000,1275.000 0.000 0,0 1500.000,225.000 Z " style="stroke: none;  fill: rgb(230,46,46); " />
<path d="M 1500.000,275.000 A1225.000,1225.000 0.000 0,1 1877.085,334.482 L 1892.476,286.910 A1275.000,1275.000 0.000 0,0 1500.000,225.000 Z " style="stroke: none;  fill: none; " />
<path d="M 1894.902,340.398 A1225.000,1225.000 0.000 0,1 1993.840,378.953 L 2013.996,333.196 A1275.000,1275.000 0.000 0,0 1911.020,293.067 Z " style="stroke: none;  fill: rgb(230,148,46); " />
<path d="M 1894.902,340.398 A1225.000,1225.000 0.000 0,1 1993.840,378.953 L 2013.996,333.196 A1275.000,1275.000 0.000 0,0 1911.020,293.067 Z " style="stroke: none;  fill: none; " />
<path d="M 2010.961,386.652 A1225.000,1225.000 0.000 0,1 2178.197,479.866 L 2205.878,438.228 A1275.000,1275.000 0.000 0,0 2031.817,341.209 Z " style="stroke: none;  fill: rgb(209,229,46); " />
<path d="M 2010.961,386.652 A1225.000,1225.000 0.000 0,1 2178.197,479.866 L 2205.878,438.228 A1275.000,1275.000 0.000 0,0 2031.817,341.209 Z " style="stroke: none;  fill: none; " />
<path d="M 2193.750,490.378 A1225.000,1225.000 0.000 0,1 2422.533,694.049 L 2460.188,661.153 A1275.000,1275.000 0.000 0,0 2222.066,449.169 Z " style="stroke: none;  fill: rgb(107,229,46); " />
<path d="M 2193.750,490.378 A1225.000,1225.000 0.000 0,1 2422.533,694.049 L 2460.188,661.153 A1275.000,1275.000 0.000 0,0 2222.066,449.169 Z " style="stroke: none;  fill: none; " />
<path d="M 2434.775,708.280 A1225.000,1225.000 0.000 0,1 2582.100,925.818 L 2626.267,902.382 A1275.000,1275.000 0.000 0,0 2472.930,675.965 Z " style="stroke: none;  fill: rgb(46,229,87); " />
<path d="M 2434.775,708.280 A1225.000,1225.000 0.000 0,1 2582.100,925.818 L 2626.267,902.382 A1275.000,1275.000 0.000 0,0 2472.930,675.965 Z " style="stroke: none;  fill: none; " />
<path d="M 2590.772,942.468 A1225.000,1225.000 0.000 0,1 2537.595,2151.170 L 2579.945,2177.748 A1275.000,1275.000 0.000 0,0 2635.293,919.712 Z " style="stroke: none;  fill: rgb(46,229,189); " />
<path d="M 2590.772,942.468 A1225.000,1225.000 0.000 0,1 2537.595,2151.170 L 2579.945,2177.748 A1275.000,1275.000 0.000 0,0 2635.293,919.712 Z " style="stroke: none;  fill: none; " />
<path d="M 2527.494,2166.994 A1225.000,1225.000 0.000 0,1 1654.001,2715.281 L 1660.286,2764.885 A1275.000,1275.000 0.000 0,0 2569.433,2194.218 Z " style="stroke: none;  fill: rgb(46,168,230); " />
<path d="M 2527.494,2166.994 A1225.000,1225.000 0.000 0,1 1654.001,2715.281 L 1660.286,2764.885 A1275.000,1275.000 0.000 0,0 2569.433,2194.218 Z " style="stroke: none;  fill: none; " />
<path d="M 1635.359,2717.499 A1225.000,1225.000 0.000 0,1 448.819,2129.002 L 405.914,2154.676 A1275.000,1275.000 0.000 0,0 1640.884,2767.192 Z " style="stroke: none;  fill: rgb(46,66,230); " />
<path d="M 1635.359,2717.499 A1225.000,1225.000 0.000 0,1 448.819,2129.002 L 405.914,2154.676 A1275.000,1275.000 0.000 0,0 1640.884,2767.192 Z " style="stroke: none;  fill: none; " />
<path d="M 439.304,2112.820 A1225.000,1225.000 0.000 0,1 419.267,923.250 L 375.155,899.709 A1275.000,1275.000 0.000 0,0 396.010,2137.833 Z " style="stroke: none;  fill: rgb(127,46,230); " />
<path d="M 439.304,2112.820 A1225.000,1225.000 0.000 0,1 419.267,923.250 L 375.155,899.709 A1275.000,1275.000 0.000 0,0 396.010,2137.833 Z " style="stroke: none;  fill: none; " />
<path d="M 428.232,906.756 A1225.000,1225.000 0.000 0,1 1481.228,275.144 L 1480.462,225.150 A1275.000,1275.000 0.000 0,0 384.486,882.542 Z " style="stroke: none;  fill: rgb(230,46,230); " />
<path d="M 428.232,906.756 A1225.000,1225.000 0.000 0,1 1481.228,275.144 L 1480.462,225.150 A1275.000,1275.000 0.000 0,0 384.486,882.542 Z " style="stroke: none;  fill: none; " />
</g>
<g id="cellvalues">
<path d="M 1983.558,373.636 A 1225.775,1225.775 0.00 0,1 1994.2,378.2 Q 1500.0,1500.0 2548.5,2101.5 A 1208.775,1208.775 0.00 0,1 2523.9,2142.5 Q 1500.0,1500.0 1983.6,373.6 Z" style="stroke-width: 1.0;  stroke: rgb(0,0,0); fill: rgb(230,148,46); opacity: 0.800;"/>
</g>
<g id="cellvalues">
<path d="M 1968.654,367.354 A 1225.775,1225.775 0.00 0,1 1983.6,373.6 Q 1500.0,1500.0 1399.6,295.4 A 1208.775,1208.775 0.00 0,1 1481.5,291.4 Q 1500.0,1500.0 1968.7,367.4 Z" style="stroke-width: 1.0;  stroke: rgb(0,0,0); fill: rgb(230,148,46); opacity: 0.800;"/>
</g>
<g id="cellvalues">
<path d="M 1951.521,360.416 A 1225.775,1225.775 0.00 0,1 1968.7,367.4 Q 1500.0,1500.0 512.4,2197.0 A 1208.775,1208.775 0.00 0,1 462.7,2120.7 Q 1500.0,1500.0 1951.5,360.4 Z" style="stroke-width: 1.0;  stroke: rgb(0,0,0); fill: rgb(230,148,46); opacity: 0.800;"/>
</g>
<g id="cellvalues">
<path d="M 2157.316,465.370 A 1225.775,1225.775 0.00 0,1 2178.6,479.2 Q 1500.0,1500.0 2602.3,1996.0 A 1208.775,1208.775 0.00 0,1 2548.5,2101.5 Q 1500.0,1500.0 2157.3,465.4 Z" style="stroke-width: 1.0;  stroke: rgb(0,0,0); fill: rgb(209,229,46); opacity: 0.800;"/>
<path d="M 1929.962,352.107 A 1225.775,1225.775 0.00 0,1 1951.5,360.4 Q 1500.0,1500.0 382.1,1040.1 A 1208.775,1208.775 0.00 0,1 433.6,930.9 Q 1500.0,1500.0 1930.0,352.1 Z" style="stroke-width: 1.0;  stroke: rgb(0,0,0); fill: rgb(230,148,46); opacity: 0.800;"/>
</g>
<g id="cellvalues">
<path d="M 2133.747,450.767 A 1225.775,1225.775 0.00 0,1 2157.3,465.4 Q 1500.0,1500.0 337.4,1169.2 A 1208.775,1208.775 0.00 0,1 382.1,1040.1 Q 1500.0,1500.0 2133.7,450.8 Z" style="stroke-width: 1.0;  stroke: rgb(0,0,0); fill: rgb(209,229,46); opacity: 0.800;"/>
</g>
<g id="cellvalues">
<path d="M 2105.841,434.410 A 1225.775,1225.775 0.00 0,1 2133.7,450.8 Q 1500.0,1500.0 1246.4,318.1 A 1208.775,1208.775 0.00 0,1 1399.6,295.4 Q 1500.0,1500.0 2105.8,434.4 Z" style="stroke-width: 1.0;  stroke: rgb(0,0,0); fill: rgb(209,229,46); opacity: 0.800;"/>
<path d="M 2567.247,897.084 A 1225.775,1225.775 0.00 0,1 2582.8,925.5 Q 1500.0,1500.0 304.6,1320.5 A 1208.775,1208.775 0.00 0,1 337.4,1169.2 Q 1500.0,1500.0 2567.2,897.1 Z" style="stroke-width: 1.0;  stroke: rgb(0,0,0); fill: rgb(46,229,87); opacity: 0.800;"/>
</g>
<g id="cellvalues">
<path d="M 2077.512,418.795 A 1225.775,1225.775 0.00 0,1 2105.8,434.4 Q 1500.0,1500.0 1815.0,2667.0 A 1208.775,1208.775 0.00 0,1 1652.0,2699.2 Q 1500.0,1500.0 2077.5,418.8 Z" style="stroke-width: 1.0;  stroke: rgb(0,0,0); fill: rgb(209,229,46); opacity: 0.800;"/>
<path d="M 1844.202,323.544 A 1225.775,1225.775 0.00 0,1 1877.3,333.7 Q 1500.0,1500.0 1974.2,2611.9 A 1208.775,1208.775 0.00 0,1 1815.0,2667.0 Q 1500.0,1500.0 1844.2,323.5 Z" style="stroke-width: 1.0;  stroke: rgb(0,0,0); fill: rgb(230,46,46); opacity: 0.800;"/>
</g>
<g id="cellvalues">
<path d="M 1895.151,339.664 A 1225.775,1225.775 0.00 0,1 1930.0,352.1 Q 1500.0,1500.0 2139.7,2525.6 A 1208.775,1208.775 0.00 0,1 1974.2,2611.9 Q 1500.0,1500.0 1895.2,339.7 Z" style="stroke-width: 1.0;  stroke: rgb(0,0,0); fill: rgb(230,148,46); opacity: 0.800;"/>
</g>
<g id="cellvalues">
<path d="M 2392.065,659.319 A 1225.775,1225.775 0.00 0,1 2423.1,693.5 Q 1500.0,1500.0 291.9,1540.9 A 1208.775,1208.775 0.00 0,1 304.6,1320.5 Q 1500.0,1500.0 2392.1,659.3 Z" style="stroke-width: 1.0;  stroke: rgb(0,0,0); fill: rgb(107,229,46); opacity: 0.800;"/>
</g>
<g id="cellvalues">
<path d="M 2543.765,857.287 A 1225.775,1225.775 0.00 0,1 2567.2,897.1 Q 1500.0,1500.0 2320.6,2387.6 A 1208.775,1208.775 0.00 0,1 2139.7,2525.6 Q 1500.0,1500.0 2543.8,857.3 Z" style="stroke-width: 1.0;  stroke: rgb(0,0,0); fill: rgb(46,229,87); opacity: 0.800;"/>
</g>
<g id="cellvalues">
<path d="M 2517.512,816.485 A 1225.775,1225.775 0.00 0,1 2543.8,857.3 Q 1500.0,1500.0 2678.8,1767.4 A 1208.775,1208.775 0.00 0,1 2602.3,1996.0 Q 1500.0,1500.0 2517.5,816.5 Z" style="stroke-width: 1.0;  stroke: rgb(0,0,0); fill: rgb(46,229,87); opacity: 0.800;"/>
</g>
<g id="cellvalues">
<path d="M 2353.133,619.836 A 1225.775,1225.775 0.00 0,1 2392.1,659.3 Q 1500.0,1500.0 692.2,2399.2 A 1208.775,1208.775 0.00 0,1 512.4,2197.0 Q 1500.0,1500.0 2353.1,619.8 Z" style="stroke-width: 1.0;  stroke: rgb(0,0,0); fill: rgb(107,229,46); opacity: 0.800;"/>
</g>
<g id="cellvalues">
<path d="M 2308.990,579.098 A 1225.775,1225.775 0.00 0,1 2353.1,619.8 Q 1500.0,1500.0 2513.9,2158.2 A 1208.775,1208.775 0.00 0,1 2320.6,2387.6 Q 1500.0,1500.0 2309.0,579.1 Z" style="stroke-width: 1.0;  stroke: rgb(0,0,0); fill: rgb(107,229,46); opacity: 0.800;"/>
<path d="M 1783.907,307.557 A 1225.775,1225.775 0.00 0,1 1844.2,323.5 Q 1500.0,1500.0 938.6,2570.5 A 1208.775,1208.775 0.00 0,1 692.2,2399.2 Q 1500.0,1500.0 1783.9,307.6 Z" style="stroke-width: 1.0;  stroke: rgb(0,0,0); fill: rgb(230,46,46); opacity: 0.800;"/>
</g>
<g id="cellvalues">
<path d="M 2478.647,761.912 A 1225.775,1225.775 0.00 0,1 2517.5,816.5 Q 1500.0,1500.0 942.9,427.3 A 1208.775,1208.775 0.00 0,1 1246.4,318.1 Q 1500.0,1500.0 2478.6,761.9 Z" style="stroke-width: 1.0;  stroke: rgb(0,0,0); fill: rgb(46,229,87); opacity: 0.800;"/>
</g>
<g id="cellvalues">
<path d="M 2253.828,533.424 A 1225.775,1225.775 0.00 0,1 2309.0,579.1 Q 1500.0,1500.0 659.1,631.6 A 1208.775,1208.775 0.00 0,1 942.9,427.3 Q 1500.0,1500.0 2253.8,533.4 Z" style="stroke-width: 1.0;  stroke: rgb(0,0,0); fill: rgb(107,229,46); opacity: 0.800;"/>
<path d="M 2435.367,707.780 A 1225.775,1225.775 0.00 0,1 2478.6,761.9 Q 1500.0,1500.0 1270.7,2686.8 A 1208.775,1208.775 0.00 0,1 938.6,2570.5 Q 1500.0,1500.0 2435.4,707.8 Z" style="stroke-width: 1.0;  stroke: rgb(0,0,0); fill: rgb(46,229,87); opacity: 0.800;"/>
</g>
<g id="cellvalues">
<path d="M 1713.783,293.011 A 1225.775,1225.775 0.00 0,1 1783.9,307.6 Q 1500.0,1500.0 442.4,914.6 A 1208.775,1208.775 0.00 0,1 659.1,631.6 Q 1500.0,1500.0 1713.8,293.0 Z" style="stroke-width: 1.0;  stroke: rgb(0,0,0); fill: rgb(230,46,46); opacity: 0.800;"/>
</g>
<g id="cellvalues">
<path d="M 2011.284,385.948 A 1225.775,1225.775 0.00 0,1 2077.5,418.8 Q 1500.0,1500.0 1633.6,2701.4 A 1208.775,1208.775 0.00 0,1 1270.7,2686.8 Q 1500.0,1500.0 2011.3,385.9 Z" style="stroke-width: 1.0;  stroke: rgb(0,0,0); fill: rgb(209,229,46); opacity: 0.800;"/>
</g>
<g id="cellvalues">
<path d="M 2194.189,489.740 A 1225.775,1225.775 0.00 0,1 2253.8,533.4 Q 1500.0,1500.0 2704.7,1400.6 A 1208.775,1208.775 0.00 0,1 2678.8,1767.4 Q 1500.0,1500.0 2194.2,489.7 Z" style="stroke-width: 1.0;  stroke: rgb(0,0,0); fill: rgb(107,229,46); opacity: 0.800;"/>
</g>
<g id="cellvalues">
<path d="M 1619.957,280.109 A 1225.775,1225.775 0.00 0,1 1713.8,293.0 Q 1500.0,1500.0 2576.3,949.9 A 1208.775,1208.775 0.00 0,1 2704.7,1400.6 Q 1500.0,1500.0 1620.0,280.1 Z" style="stroke-width: 1.0;  stroke: rgb(0,0,0); fill: rgb(230,46,46); opacity: 0.800;"/>
</g>
<g id="cellvalues">
<path d="M 1500.000,274.225 A 1225.775,1225.775 0.00 0,1 1620.0,280.1 Q 1500.0,1500.0 453.4,2104.7 A 1208.775,1208.775 0.00 0,1 291.9,1540.9 Q 1500.0,1500.0 1500.0,274.2 Z" style="stroke-width: 1.0;  stroke: rgb(0,0,0); fill: rgb(230,46,46); opacity: 0.800;"/>
</g>
<g id="plot0">
<g id="plot0-axis">
</g>
<text x="1738.4" y="145.8" style="fill: rgb(0,0,0); font-size: 48.0px; text-anchor: start" transform="rotate(279.0,1738.4,145.8)">A</text>
<text x="2432.4" y="489.5" style="fill: rgb(0,0,0); font-size: 48.0px; text-anchor: start" transform="rotate(311.7,2432.4,489.5)">D</text>
<text x="2209.3" y="2677.9" style="fill: rgb(0,0,0); font-size: 48.0px; text-anchor: start" transform="rotate(57.9,2209.3,2677.9)">G</text>
<text x="911.1" y="2742.5" style="fill: rgb(0,0,0); font-size: 48.0px; text-anchor: end" transform="rotate(296.4,911.1,2742.5)">H</text>
<text x="2022.0" y="227.9" style="fill: rgb(0,0,0); font-size: 48.0px; text-anchor: start" transform="rotate(291.3,2022.0,227.9)">B</text>
<text x="2191.6" y="311.6" style="fill: rgb(0,0,0); font-size: 48.0px; text-anchor: start" transform="rotate(299.1,2191.6,311.6)">C</text>
<text x="2652.0" y="749.4" style="fill: rgb(0,0,0); font-size: 48.0px; text-anchor: start" transform="rotate(325.9,2652.0,749.4)">E</text>
<text x="2872.4" y="1584.9" style="fill: rgb(0,0,0); font-size: 48.0px; text-anchor: start" transform="rotate(2.5,2872.4,1584.9)">F</text>
<text x="771.4" y="333.9" style="fill: rgb(0,0,0); font-size: 48.0px; text-anchor: end" transform="rotate(59.0,771.4,333.9)">J</text>
<text x="125.8" y="1547.6" style="fill: rgb(0,0,0); font-size: 48.0px; text-anchor: end" transform="rotate(359.0,125.8,1547.6)">I</text>
</g>
</svg>
