<?xml version="1.0" standalone="no"?>
<!DOCTYPE svg PUBLIC "-//W3C//DTD SVG 1.1//EN" "http://www.w3.org/Graphics/SVG/1.1/DTD/svg11.dtd">
<svg width="3000px" height="3000px" version="1.1" xmlns="http://www.w3.org/2000/svg" xmlns:xlink="http://www.w3.org/1999/xlink">
<g id="ideograms">
<path d="M 1500.000,275.000 A1225.000,1225.000 0.000 0,1 2627.718,1021.588 L 2673.747,1002.061 A1275.000,1275.000 0.000 0,0 1500.000,225.000 Z " style="stroke: none;  fill: rgb(230,46,46); " />
<path d="M 1500.000,275.000 A1225.000,1225.000 0.000 0,1 2627.718,1021.588 L 2673.747,1002.061 A1275.000,1275.000 0.000 0,0 1500.000,225.000 Z " style="stroke: none;  fill: none; " />
<path d="M 2634.934,1038.968 A1225.000,1225.000 0.000 0,1 2713.299,1331.090 L 2762.821,1324.196 A1275.000,1275.000 0.000 0,0 2681.258,1020.150 Z " style="stroke: none;  fill: rgb(230,46,230); " />
<path d="M 2634.934,1038.968 A1225.000,1225.000 0.000 0,1 2713.299,1331.090 L 2762.821,1324.196 A1275.000,1275.000 0.000 0,0 2681.258,1020.150 Z " style="stroke: none;  fill: none; " />
<path d="M 2715.751,1349.748 A1225.000,1225.000 0.000 0,1 2392.788,2338.782 L 2429.228,2373.018 A1275.000,1275.000 0.000 0,0 2765.373,1343.615 Z " style="stroke: none;  fill: rgb(230,161,46); " />
<path d="M 2715.751,1349.748 A1225.000,1225.000 0.000 0,1 2392.788,2338.782 L 2429.228,2373.018 A1275.000,1275.000 0.000 0,0 2765.373,1343.615 Z " style="stroke: none;  fill: none; " />
<path d="M 2379.797,2352.397 A1225.000,1225.000 0.000 0,1 1528.226,2724.675 L 1529.378,2774.662 A1275.000,1275.000 0.000 0,0 2415.708,2387.189 Z " style="stroke: none;  fill: rgb(69,229,46); " />
<path d="M 2379.797,2352.397 A1225.000,1225.000 0.000 0,1 1528.226,2724.675 L 1529.378,2774.662 A1275.000,1275.000 0.000 0,0 2415.708,2387.189 Z " style="stroke: none;  fill: none; " />
<path d="M 1509.409,2724.964 A1225.000,1225.000 0.000 0,1 685.669,2415.145 L 652.431,2452.498 A1275.000,1275.000 0.000 0,0 1509.793,2774.962 Z " style="stroke: none;  fill: rgb(46,229,138); " />
<path d="M 1509.409,2724.964 A1225.000,1225.000 0.000 0,1 685.669,2415.145 L 652.431,2452.498 A1275.000,1275.000 0.000 0,0 1509.793,2774.962 Z " style="stroke: none;  fill: none; " />
<path d="M 671.707,2402.527 A1225.000,1225.000 0.000 0,1 407.465,2054.068 L 362.872,2076.683 A1275.000,1275.000 0.000 0,0 637.899,2439.365 Z " style="stroke: none;  fill: rgb(115,46,230); " />
<path d="M 671.707,2402.527 A1225.000,1225.000 0.000 0,1 407.465,2054.068 L 362.872,2076.683 A1275.000,1275.000 0.000 0,0 637.899,2439.365 Z " style="stroke: none;  fill: none; " />
<path d="M 399.082,2037.220 A1225.000,1225.000 0.000 0,1 382.294,998.643 L 336.674,978.179 A1275.000,1275.000 0.000 0,0 354.147,2059.147 Z " style="stroke: none;  fill: rgb(184,229,46); " />
<path d="M 399.082,2037.220 A1225.000,1225.000 0.000 0,1 382.294,998.643 L 336.674,978.179 A1275.000,1275.000 0.000 0,0 354.147,2059.147 Z " style="stroke: none;  fill: none; " />
<path d="M 390.128,981.532 A1225.000,1225.000 0.000 0,1 681.677,588.423 L 648.276,551.216 A1275.000,1275.000 0.000 0,0 344.827,960.370 Z " style="stroke: none;  fill: rgb(46,92,230); " />
<path d="M 390.128,981.532 A1225.000,1225.000 0.000 0,1 681.677,588.423 L 648.276,551.216 A1275.000,1275.000 0.000 0,0 344.827,960.370 Z " style="stroke: none;  fill: none; " />
<path d="M 695.777,575.960 A1225.000,1225.000 0.000 0,1 1481.182,275.145 L 1480.414,225.150 A1275.000,1275.000 0.000 0,0 662.952,538.244 Z " style="stroke: none;  fill: rgb(46,207,230); " />
<path d="M 695.777,575.960 A1225.000,1225.000 0.000 0,1 1481.182,275.145 L 1480.414,225.150 A1275.000,1275.000 0.000 0,0 662.952,538.244 Z " style="stroke: none;  fill: none; " />
</g>
<g id="cellvalues">
<path d="M 1716.735,2706.462 A 1225.775,1225.775 0.00 0,1 1528.2,2725.4 Q 1500.0,1500.0 519.1,2206.3 A 1208.775,1208.775 0.00 0,1 421.9,2046.7 Q 1500.0,1500.0 1716.7,2706.5 Z" style="stroke-width: 1.0;  stroke: rgb(0,0,0); fill: rgb(69,229,46); opacity: 0.800;"/>
</g>
<g id="cellvalues">
<path d="M 1910.788,2654.893 A 1225.775,1225.775 0.00 0,1 1716.7,2706.5 Q 1500.0,1500.0 854.7,2522.1 A 1208.775,1208.775 0.00 0,1 696.5,2403.0 Q 1500.0,1500.0 1910.8,2654.9 Z" style="stroke-width: 1.0;  stroke: rgb(0,0,0); fill: rgb(69,229,46); opacity: 0.800;"/>
</g>
<g id="cellvalues">
<path d="M 2531.903,2161.590 A 1225.775,1225.775 0.00 0,1 2393.4,2339.3 Q 1500.0,1500.0 325.2,1215.5 A 1208.775,1208.775 0.00 0,1 397.1,1005.3 Q 1500.0,1500.0 2531.9,2161.6 Z" style="stroke-width: 1.0;  stroke: rgb(0,0,0); fill: rgb(230,161,46); opacity: 0.800;"/>
</g>
<g id="cellvalues">
<path d="M 2507.902,802.392 A 1225.775,1225.775 0.00 0,1 2628.4,1021.3 Q 1500.0,1500.0 291.9,1459.7 A 1208.775,1208.775 0.00 0,1 325.2,1215.5 Q 1500.0,1500.0 2507.9,802.4 Z" style="stroke-width: 1.0;  stroke: rgb(0,0,0); fill: rgb(230,46,46); opacity: 0.800;"/>
<path d="M 2644.628,1938.578 A 1225.775,1225.775 0.00 0,1 2531.9,2161.6 Q 1500.0,1500.0 682.7,2390.6 A 1208.775,1208.775 0.00 0,1 519.1,2206.3 Q 1500.0,1500.0 2644.6,1938.6 Z" style="stroke-width: 1.0;  stroke: rgb(0,0,0); fill: rgb(230,161,46); opacity: 0.800;"/>
</g>
<g id="cellvalues">
<path d="M 2152.589,2537.618 A 1225.775,1225.775 0.00 0,1 1910.8,2654.9 Q 1500.0,1500.0 1218.5,324.5 A 1208.775,1208.775 0.00 0,1 1481.4,291.4 Q 1500.0,1500.0 2152.6,2537.6 Z" style="stroke-width: 1.0;  stroke: rgb(0,0,0); fill: rgb(69,229,46); opacity: 0.800;"/>
</g>
<g id="cellvalues">
<path d="M 2380.354,2352.937 A 1225.775,1225.775 0.00 0,1 2152.6,2537.6 Q 1500.0,1500.0 316.9,1747.8 A 1208.775,1208.775 0.00 0,1 291.9,1459.7 Q 1500.0,1500.0 2380.4,2352.9 Z" style="stroke-width: 1.0;  stroke: rgb(0,0,0); fill: rgb(69,229,46); opacity: 0.800;"/>
<path d="M 2715.800,1656.057 A 1225.775,1225.775 0.00 0,1 2644.6,1938.6 Q 1500.0,1500.0 949.0,424.1 A 1208.775,1208.775 0.00 0,1 1218.5,324.5 Q 1500.0,1500.0 2715.8,1656.1 Z" style="stroke-width: 1.0;  stroke: rgb(0,0,0); fill: rgb(230,161,46); opacity: 0.800;"/>
</g>
<g id="cellvalues">
<path d="M 2310.538,580.460 A 1225.775,1225.775 0.00 0,1 2507.9,802.4 Q 1500.0,1500.0 706.4,588.2 A 1208.775,1208.775 0.00 0,1 949.0,424.1 Q 1500.0,1500.0 2310.5,580.5 Z" style="stroke-width: 1.0;  stroke: rgb(0,0,0); fill: rgb(230,46,46); opacity: 0.800;"/>
</g>
<g id="cellvalues">
<path d="M 2635.652,1038.676 A 1225.775,1225.775 0.00 0,1 2714.1,1331.0 Q 1500.0,1500.0 413.7,2030.1 A 1208.775,1208.775 0.00 0,1 316.9,1747.8 Q 1500.0,1500.0 2635.7,1038.7 Z" style="stroke-width: 1.0;  stroke: rgb(0,0,0); fill: rgb(230,46,230); opacity: 0.800;"/>
</g>
<g id="cellvalues">
<path d="M 2716.520,1349.653 A 1225.775,1225.775 0.00 0,1 2715.8,1656.1 Q 1500.0,1500.0 1128.3,2650.2 A 1208.775,1208.775 0.00 0,1 854.7,2522.1 Q 1500.0,1500.0 2716.5,1349.7 Z" style="stroke-width: 1.0;  stroke: rgb(0,0,0); fill: rgb(230,161,46); opacity: 0.800;"/>
</g>
<g id="cellvalues">
<path d="M 1979.862,372.056 A 1225.775,1225.775 0.00 0,1 2310.5,580.5 Q 1500.0,1500.0 1509.3,2708.7 A 1208.775,1208.775 0.00 0,1 1128.3,2650.2 Q 1500.0,1500.0 1979.9,372.1 Z" style="stroke-width: 1.0;  stroke: rgb(0,0,0); fill: rgb(230,46,46); opacity: 0.800;"/>
</g>
<g id="cellvalues">
<path d="M 1500.000,274.225 A 1225.775,1225.775 0.00 0,1 1979.9,372.1 Q 1500.0,1500.0 404.8,988.4 A 1208.775,1208.775 0.00 0,1 692.5,600.5 Q 1500.0,1500.0 1500.0,274.2 Z" style="stroke-width: 1.0;  stroke: rgb(0,0,0); fill: rgb(230,46,46); opacity: 0.800;"/>
</g>
<g id="plot0">
<g id="plot0-axis">
</g>
<text x="2279.3" y="367.2" style="fill: rgb(0,0,0); font-size: 48.0px; text-anchor: start" transform="rotate(303.5,2279.3,367.2)">A</text>
<text x="2799.3" y="1950.0" style="fill: rgb(0,0,0); font-size: 48.0px; text-anchor: start" transform="rotate(18.1,2799.3,1950.0)">D</text>
<text x="420.0" y="2351.0" style="fill: rgb(0,0,0); font-size: 48.0px; text-anchor: end" transform="rotate(322.8,420.0,2351.0)">G</text>
<text x="125.8" y="1546.7" style="fill: rgb(0,0,0); font-size: 48.0px; text-anchor: end" transform="rotate(359.1,125.8,1546.7)">H</text>
<text x="2834.4" y="1168.4" style="fill: rgb(0,0,0); font-size: 48.0px; text-anchor: start" transform="rotate(345.0,2834.4,1168.4)">C</text>
<text x="2028.2" y="2769.5" style="fill: rgb(0,0,0); font-size: 48.0px; text-anchor: start" transform="rotate(66.4,2028.2,2769.5)">E</text>
<text x="1039.0" y="2795.4" style="fill: rgb(0,0,0); font-size: 48.0px; text-anchor: end" transform="rotate(290.6,1039.0,2795.4)">F</text>
<text x="984.9" y="225.1" style="fill: rgb(0,0,0); font-size: 48.0px; text-anchor: end" transform="rotate(69.0,984.9,225.1)">J</text>
<text x="381.2" y="700.7" style="fill: rgb(0,0,0); font-size: 48.0px; text-anchor: end" transform="rotate(36.6,381.2,700.7)">I</text>
</g>
</svg>
