<?xml version="1.0" standalone="no"?>
<!DOCTYPE svg PUBLIC "-//W3C//DTD SVG 1.1//EN" "http://www.w3.org/Graphics/SVG/1.1/DTD/svg11.dtd">
<svg width="3000px" height="3000px" version="1.1" xmlns="http://www.w3.org/2000/svg" xmlns:xlink="http://www.w3.org/1999/xlink">
<g id="ideograms">
<path d="M 1500.000,275.000 A1225.000,1225.000 0.000 0,1 1651.839,2715.553 L 1658.036,2765.168 A1275.000,1275.000 0.000 0,0 1500.000,225.000 Z " style="stroke: none;  fill: rgb(230,46,46); " />
<path d="M 1500.000,275.000 A1225.000,1225.000 0.000 0,1 1651.839,2715.553 L 1658.036,2765.168 A1275.000,1275.000 0.000 0,0 1500.000,225.000 Z " style="stroke: none;  fill: none; " />
<path d="M 1632.869,2717.773 A1225.000,1225.000 0.000 0,1 275.001,1501.404 L 225.001,1501.462 A1275.000,1275.000 0.000 0,0 1638.293,2767.478 Z " style="stroke: none;  fill: rgb(46,229,123); " />
<path d="M 1632.869,2717.773 A1225.000,1225.000 0.000 0,1 275.001,1501.404 L 225.001,1501.462 A1275.000,1275.000 0.000 0,0 1638.293,2767.478 Z " style="stroke: none;  fill: none; " />
<path d="M 275.128,1482.306 A1225.000,1225.000 0.000 0,1 1480.902,275.149 L 1480.122,225.155 A1275.000,1275.000 0.000 0,0 225.133,1481.584 Z " style="stroke: none;  fill: rgb(46,89,230); " />
<path d="M 275.128,1482.306 A1225.000,1225.000 0.000 0,1 1480.902,275.149 L 1480.122,225.155 A1275.000,1275.000 0.000 0,0 225.133,1481.584 Z " style="stroke: none;  fill: none; " />
</g>
<g id="cellvalues">
<path d="M 1147.377,2673.960 A 1225.775,1225.775 0.00 0,1 1048.3,2639.5 Q 1500.0,1500.0 2524.2,2142.1 A 1208.775,1208.775 0.00 0,1 2465.5,2227.3 Q 1500.0,1500.0 1147.4,2674.0 Z" style="stroke-width: 1.0;  stroke: rgb(0,0,0); fill: rgb(46,229,123); opacity: 0.800;"/>
</g>
<g id="cellvalues">
<path d="M 1632.953,2718.543 A 1225.775,1225.775 0.00 0,1 1464.6,2725.3 Q 1500.0,1500.0 752.5,550.1 A 1208.775,1208.775 0.00 0,1 889.8,456.6 Q 1500.0,1500.0 1633.0,2718.5 Z" style="stroke-width: 1.0;  stroke: rgb(0,0,0); fill: rgb(46,229,123); opacity: 0.800;"/>
</g>
<g id="cellvalues">
<path d="M 433.702,895.406 A 1225.775,1225.775 0.00 0,1 557.1,716.8 Q 1500.0,1500.0 2621.3,1951.4 A 1208.775,1208.775 0.00 0,1 2524.2,2142.1 Q 1500.0,1500.0 433.7,895.4 Z" style="stroke-width: 1.0;  stroke: rgb(0,0,0); fill: rgb(46,89,230); opacity: 0.800;"/>
</g>
<g id="cellvalues">
<path d="M 274.353,1482.295 A 1225.775,1225.775 0.00 0,1 305.2,1226.1 Q 1500.0,1500.0 570.1,727.7 A 1208.775,1208.775 0.00 0,1 752.5,550.1 Q 1500.0,1500.0 274.4,1482.3 Z" style="stroke-width: 1.0;  stroke: rgb(0,0,0); fill: rgb(46,89,230); opacity: 0.800;"/>
</g>
<g id="cellvalues">
<path d="M 1464.593,2725.264 A 1225.775,1225.775 0.00 0,1 1147.4,2674.0 Q 1500.0,1500.0 751.4,2449.1 A 1208.775,1208.775 0.00 0,1 530.5,2221.9 Q 1500.0,1500.0 1464.6,2725.3 Z" style="stroke-width: 1.0;  stroke: rgb(0,0,0); fill: rgb(46,229,123); opacity: 0.800;"/>
</g>
<g id="cellvalues">
<path d="M 305.226,1226.065 A 1225.775,1225.775 0.00 0,1 433.7,895.4 Q 1500.0,1500.0 1054.6,2623.7 A 1208.775,1208.775 0.00 0,1 751.4,2449.1 Q 1500.0,1500.0 305.2,1226.1 Z" style="stroke-width: 1.0;  stroke: rgb(0,0,0); fill: rgb(46,89,230); opacity: 0.800;"/>
</g>
<g id="cellvalues">
<path d="M 1500.000,274.225 A 1225.775,1225.775 0.00 0,1 2102.2,432.4 Q 1500.0,1500.0 889.8,456.6 A 1208.775,1208.775 0.00 0,1 1481.2,291.4 Q 1500.0,1500.0 1500.0,274.2 Z" style="stroke-width: 1.0;  stroke: rgb(0,0,0); fill: rgb(230,46,46); opacity: 0.800;"/>
</g>
<g id="cellvalues">
<path d="M 2102.229,432.365 A 1225.775,1225.775 0.00 0,1 2620.1,1002.1 Q 1500.0,1500.0 530.5,2221.9 A 1208.775,1208.775 0.00 0,1 291.2,1501.4 Q 1500.0,1500.0 2102.2,432.4 Z" style="stroke-width: 1.0;  stroke: rgb(0,0,0); fill: rgb(230,46,46); opacity: 0.800;"/>
</g>
<g id="cellvalues">
<path d="M 2620.098,1002.100 A 1225.775,1225.775 0.00 0,1 2637.1,1957.7 Q 1500.0,1500.0 2465.5,2227.3 A 1208.775,1208.775 0.00 0,1 1649.8,2699.5 Q 1500.0,1500.0 2620.1,1002.1 Z" style="stroke-width: 1.0;  stroke: rgb(0,0,0); fill: rgb(230,46,46); opacity: 0.800;"/>
</g>
<g id="plot0">
<g id="plot0-axis">
</g>
<text x="2873.6" y="1439.1" style="fill: rgb(0,0,0); font-size: 48.0px; text-anchor: start" transform="rotate(356.4,2873.6,1439.1)">A</text>
<text x="601.0" y="2540.4" style="fill: rgb(0,0,0); font-size: 48.0px; text-anchor: end" transform="rotate(311.9,601.0,2540.4)">B</text>
<text x="509.3" y="546.5" style="fill: rgb(0,0,0); font-size: 48.0px; text-anchor: end" transform="rotate(45.0,509.3,546.5)">C</text>
</g>
</svg>
