<?xml version="1.0" standalone="no"?>
<!DOCTYPE svg PUBLIC "-//W3C//DTD SVG 20001102//EN" "http://www.w3.org/TR/2000/CR-SVG-20001102/DTD/svg-20001102.dtd" >
<svg width="100%" height="100%">
<defs>
<font id="lucon" horiz-adv-x="1234">
<font-face font-family="Lucida Console" units-per-em="2048" panose-1="2 11 6 9 4 5 4 2 2 4" ascent="1616" descent="-432" baseline="0" />
<missing-glyph horiz-adv-x="1234" d="M256 0V1280H978V0H256ZM320 64H914V1216H320V64Z" />
<glyph unicode=" " horiz-adv-x="1234" glyph-name="space"/>
<glyph unicode="!" horiz-adv-x="1234" glyph-name="exclam" d="M542 419L518 1184V1480H715V1184L690 419H542ZM493 0V222H740V0H493Z"/>
<glyph unicode="&quot;" horiz-adv-x="1234" glyph-name="quotedbl" d="M296 1036L247 1579H494L444 1036H296ZM790 1036L740 1579H987L938 1036H790Z"/>
<glyph unicode="#" horiz-adv-x="1234" glyph-name="numbersign" d="M170 0L282 450H52L81 598H319L391 891H140L169 1039H428L538 1480H690L581 1039H813L922 1480H1075L965 1039H1193L1164 891H926L854 598H1105L1076 450H817L708 0H555L664 450H432L323 0H170ZM471 598H701L774 891H544L471 598Z"/>
<glyph unicode="$" horiz-adv-x="1234" glyph-name="dollar" d="M583 -123V0Q421 0 216 79V248Q429 145 583 145V682L510 730Q245 908 245 1115Q245 1264 342 1366T595 1480V1604H718V1480Q866 1471 1021 1415V1253Q876 1325 718 1342V813L785 773Q1059 612 1059 392Q1059 235 963 129T706 0V-123H583ZM706 148Q879 186 879 370Q879 489 751 577L706 609V148ZM595 891V1331Q521 1322 474 1263T427 1121Q427 1013 553 921L595 891Z"/>
<glyph unicode="%" horiz-adv-x="1234" glyph-name="percent" d="M0 -37L1083 1517H1234L150 -37H0ZM303 802Q171 802 86 898T1 1141Q1 1290 86 1385T303 1480Q436 1480 521 1385T606 1141Q606 993 521 898T303 802ZM303 901Q372 901 415 968T458 1141Q458 1249 415 1316T303 1382Q234 1382 192 1316T149 1141Q149 1034 192 968T303 901ZM931 0Q799 0 714 96T629 339Q629 488 714 584T931 679Q1064 679 1149 584T1234 339Q1234 191 1149 96T931 0ZM931 99Q1000 99 1043 166T1086 339Q1086 447 1043 514T931 580Q862 580 820 514T777 339Q777 232 820 166T931 99Z"/>
<glyph unicode="&amp;" horiz-adv-x="1234" glyph-name="ampersand" d="M962 0L888 89Q725 -37 506 -37Q297 -37 161 96T24 430Q24 588 106 694T375 879Q286 1074 286 1193Q286 1337 377 1427T612 1517Q750 1517 837 1438T924 1231Q924 1008 611 830Q726 606 945 340Q1038 479 1038 712L1036 788H1234Q1213 418 1036 222Q1130 110 1234 0H962ZM801 203Q565 490 434 756Q229 655 229 471Q229 321 320 216T541 111Q667 111 801 203ZM552 961Q742 1051 742 1217Q742 1284 707 1327T615 1369Q560 1369 521 1324T482 1213Q482 1120 552 961Z"/>
<glyph unicode="&apos;" horiz-adv-x="1234" glyph-name="quotesingle" d="M543 962L469 1579H765L691 962H543Z"/>
<glyph unicode="(" horiz-adv-x="1234" glyph-name="parenleft" d="M1085 -296Q760 -260 553 3T345 642Q345 1018 553 1281T1085 1579V1443Q824 1390 683 1183T542 642Q542 309 683 101T1085 -160V-296Z"/>
<glyph unicode=")" horiz-adv-x="1234" glyph-name="parenright" d="M148 1579Q474 1543 681 1281T888 641Q888 265 681 3T148 -296V-160Q409 -107 550 101T691 642Q691 974 551 1182T148 1443V1579Z"/>
<glyph unicode="*" horiz-adv-x="1234" glyph-name="asterisk" d="M703 1129L1009 1268L1070 1080L742 1012V1026Q742 1079 703 1129ZM732 983L958 735L798 619L632 910Q695 928 732 983ZM601 910L436 619L276 735L502 983Q539 928 601 910ZM492 1012L164 1080L225 1268L530 1129Q492 1079 492 1025V1012ZM555 1147L518 1480H716L679 1147Q644 1160 617 1160Q590 1160 555 1147Z"/>
<glyph unicode="+" horiz-adv-x="1234" glyph-name="plus" d="M542 0V456H86V605H542V1061H691V605H1147V456H691V0H542Z"/>
<glyph unicode="," horiz-adv-x="1234" glyph-name="comma" d="M469 -321V-222Q571 -208 588 -45L592 0H469V296H765V117Q765 -305 469 -321Z"/>
<glyph unicode="-" horiz-adv-x="1234" glyph-name="hyphen" d="M210 543V691H1024V543H210Z"/>
<glyph unicode="." horiz-adv-x="1234" glyph-name="period" d="M469 0V296H765V0H469Z"/>
<glyph unicode="/" horiz-adv-x="1234" glyph-name="slash" d="M1160 1579L240 -296H75L995 1579H1160Z"/>
<glyph unicode="0" horiz-adv-x="1234" glyph-name="zero" d="M617 -37Q386 -37 249 174T111 741Q111 1096 249 1307T617 1517Q848 1517 986 1307T1123 741Q1123 385 986 174T617 -37ZM617 111Q913 111 913 741Q913 1369 617 1369Q321 1369 321 741Q321 111 617 111Z"/>
<glyph unicode="1" horiz-adv-x="1234" glyph-name="one" d="M185 0V148H580V1299L185 1210V1332L777 1517V148H1172V0H185Z"/>
<glyph unicode="2" horiz-adv-x="1234" glyph-name="two" d="M168 0V173Q290 409 532 649L621 738Q805 921 805 1107Q805 1226 735 1298T546 1369Q403 1369 205 1265V1439Q389 1517 565 1517Q768 1517 892 1407T1015 1115Q1015 998 958 895T765 665L681 586Q449 370 402 173H1007V0H168Z"/>
<glyph unicode="3" horiz-adv-x="1234" glyph-name="three" d="M234 7V181Q435 111 543 111Q677 111 759 194T841 410Q841 560 744 641T466 722H370V864H427Q558 864 619 881T729 946Q808 1024 808 1147Q808 1250 745 1310T574 1369Q423 1369 255 1288V1461Q418 1518 585 1518Q783 1518 895 1429T1006 1180Q1006 932 739 808Q1051 701 1051 410Q1051 205 913 84T539 -37Q393 -37 234 7Z"/>
<glyph unicode="4" horiz-adv-x="1234" glyph-name="four" d="M728 0V395H111V561L728 1480H913V543H1110V395H913V0H728ZM277 543H728V1215L277 543Z"/>
<glyph unicode="5" horiz-adv-x="1234" glyph-name="five" d="M270 8V177Q439 111 541 111Q663 111 742 206T820 447Q820 778 386 778Q349 778 298 774V1480H992V1308H464V924Q726 924 878 792T1030 433Q1030 231 892 97T546 -37Q429 -37 270 8Z"/>
<glyph unicode="6" horiz-adv-x="1234" glyph-name="six" d="M1042 1462V1293Q865 1370 760 1370Q573 1370 471 1210T369 757Q500 947 707 947Q881 947 1002 813T1123 484Q1123 257 992 110T658 -37Q417 -37 290 155T162 711Q162 1078 320 1298T741 1518Q863 1518 1042 1462ZM682 111Q792 111 862 204T931 445Q931 606 857 706T661 805Q539 805 467 718T394 486Q394 314 472 213T682 111Z"/>
<glyph unicode="7" horiz-adv-x="1234" glyph-name="seven" d="M281 0Q299 160 352 286T597 751L906 1295H201V1480H1093V1314L1045 1234Q568 430 516 0H281Z"/>
<glyph unicode="8" horiz-adv-x="1234" glyph-name="eight" d="M437 806Q235 954 235 1146Q235 1315 351 1416T659 1517Q841 1517 942 1434T1042 1198Q1042 972 783 815Q962 707 1032 614T1102 390Q1102 204 966 84T620 -37Q415 -37 288 77T160 372Q160 638 437 806ZM542 726Q354 572 354 398Q354 270 433 191T638 111Q751 111 828 179T904 348Q904 511 674 648L542 726ZM672 882Q865 1004 865 1166Q865 1258 804 1314T641 1369Q540 1369 480 1316T419 1174Q419 1034 618 914L672 882Z"/>
<glyph unicode="9" horiz-adv-x="1234" glyph-name="nine" d="M230 15V184Q416 111 514 111Q699 111 801 272T903 724Q772 534 564 534Q390 534 270 669T149 996Q149 1223 280 1370T614 1517Q855 1517 982 1326T1109 770Q1109 403 952 183T533 -37Q416 -37 230 15ZM590 1369Q480 1369 410 1276T340 1036Q340 874 415 775T611 676Q732 676 805 763T878 995Q878 1166 800 1268T590 1369Z"/>
<glyph unicode=":" horiz-adv-x="1234" glyph-name="colon" d="M469 790V1086H765V790H469ZM469 0V296H765V0H469Z"/>
<glyph unicode=";" horiz-adv-x="1234" glyph-name="semicolon" d="M469 -321V-222Q580 -209 592 0H469V296H765V117Q765 -305 469 -321ZM469 790V1086H765V790H469Z"/>
<glyph unicode="&lt;" horiz-adv-x="1234" glyph-name="less" d="M1147 0L86 530L1147 1061V895L417 530L1147 166V0Z"/>
<glyph unicode="=" horiz-adv-x="1234" glyph-name="equal" d="M86 284V432H1147V284H86ZM86 654V802H1147V654H86Z"/>
<glyph unicode="&gt;" horiz-adv-x="1234" glyph-name="greater" d="M86 1061L1147 530L86 0V166L816 530L86 895V1061Z"/>
<glyph unicode="?" horiz-adv-x="1234" glyph-name="question" d="M419 0V222H665V0H419ZM443 419V447Q443 578 494 675T665 871L735 929Q879 1048 879 1163Q879 1370 542 1370Q430 1370 312 1340V1170H164V1459Q367 1517 576 1517Q823 1517 955 1433T1086 1191Q1086 1021 894 865L795 785Q709 715 675 650T641 490V419H443Z"/>
<glyph unicode="@" horiz-adv-x="1234" glyph-name="at" d="M963 33Q780 -37 645 -37Q392 -37 233 167T74 693Q74 1055 254 1287T714 1518Q1111 1518 1111 1075V419H1234V296H963V628Q848 284 676 284Q579 284 518 388T457 656Q457 882 567 1039T835 1196Q890 1196 963 1164Q925 1394 704 1394Q501 1394 362 1191T222 691Q222 426 346 256T663 86Q793 86 963 169V33ZM963 876V1049Q900 1090 846 1090Q735 1090 670 979T605 678Q605 425 696 430Q753 433 829 560T963 876Z"/>
<glyph unicode="A" horiz-adv-x="1234" glyph-name="A" d="M12 0L518 1283H715L1221 0H1012L891 321H305L182 0H12ZM364 469H832L597 1082L364 469Z"/>
<glyph unicode="B" horiz-adv-x="1234" glyph-name="B" d="M185 0V1283H599Q1049 1283 1049 985Q1049 871 972 789T755 671Q1112 598 1112 332Q1112 180 1007 94Q939 37 852 19T572 0H185ZM382 728H451Q849 728 849 950Q849 1059 772 1097T474 1135H382V728ZM382 148H560Q755 148 829 188T902 335Q902 459 782 532T454 605H382V148Z"/>
<glyph unicode="C" horiz-adv-x="1234" glyph-name="C" d="M1155 40Q957 -31 782 -31Q476 -31 289 153T102 635Q102 938 288 1126T774 1314Q944 1314 1138 1256V1075Q940 1166 768 1166Q569 1166 441 1020T312 648Q312 420 457 275T830 130Q968 130 1155 202V40Z"/>
<glyph unicode="D" horiz-adv-x="1234" glyph-name="D" d="M130 0V1283H517Q1157 1283 1157 667Q1157 382 1018 206Q931 95 804 48T464 0H130ZM327 148H426Q708 148 828 260T947 636Q947 904 839 1020T479 1135H327V148Z"/>
<glyph unicode="E" horiz-adv-x="1234" glyph-name="E" d="M216 0V1283H1083V1135H413V746H981V598H413V148H1129V0H216Z"/>
<glyph unicode="F" horiz-adv-x="1234" glyph-name="F" d="M247 0V1283H1160V1135H444V693H1055V545H444V0H247Z"/>
<glyph unicode="G" horiz-adv-x="1234" glyph-name="G" d="M1113 1256V1075Q915 1166 743 1166Q544 1166 416 1020T287 648Q287 421 432 276T802 130Q853 130 932 142V481H691V629H1129V33Q928 -31 748 -31Q450 -31 264 154T77 635Q77 938 263 1126T749 1314Q919 1314 1113 1256Z"/>
<glyph unicode="H" horiz-adv-x="1234" glyph-name="H" d="M148 0V1283H345V722H888V1283H1086V0H888V574H345V0H148Z"/>
<glyph unicode="I" horiz-adv-x="1234" glyph-name="I" d="M173 0V148H518V1135H173V1283H1061V1135H716V148H1061V0H173Z"/>
<glyph unicode="J" horiz-adv-x="1234" glyph-name="J" d="M197 17V184L263 162Q400 117 480 117Q621 117 678 190T734 448V1135H290V1283H931V553Q931 358 908 263T820 96Q706 -31 494 -31Q379 -31 197 17Z"/>
<glyph unicode="K" horiz-adv-x="1234" glyph-name="K" d="M170 0V1283H367V654L904 1283H1103L585 678L1202 0H966L367 654V0H170Z"/>
<glyph unicode="L" horiz-adv-x="1234" glyph-name="L" d="M222 0V1283H419V148H1110V0H222Z"/>
<glyph unicode="M" horiz-adv-x="1234" glyph-name="M" d="M94 0V1283H331L613 493H615L892 1283H1139V0H978V1101H976L687 271H521L233 1078H231V0H94Z"/>
<glyph unicode="N" horiz-adv-x="1234" glyph-name="N" d="M148 0V1287H334L923 354H925V1283H1086V0H904L311 940H308V0H148Z"/>
<glyph unicode="O" horiz-adv-x="1234" glyph-name="O" d="M62 642Q62 949 213 1132T617 1314Q871 1314 1022 1132T1172 642Q1172 334 1022 152T617 -31Q363 -31 213 152T62 642ZM272 642Q272 390 362 254T617 117Q783 117 873 254T963 642Q963 893 873 1030T617 1166Q451 1166 362 1030T272 642Z"/>
<glyph unicode="P" horiz-adv-x="1234" glyph-name="P" d="M228 0V1283H645Q868 1283 963 1243Q1157 1159 1157 919Q1157 717 1001 602T569 487H425V0H228ZM425 635H548Q948 635 948 915Q948 1033 873 1084T621 1135H425V635Z"/>
<glyph unicode="Q" horiz-adv-x="1234" glyph-name="Q" d="M855 18Q1023 -100 1234 -149L1130 -321Q873 -220 677 -28Q627 -31 600 -31Q360 -31 211 155T62 641Q62 949 213 1132T617 1314Q871 1314 1022 1132T1172 641Q1172 419 1091 259T855 18ZM272 642Q272 390 362 254T617 117Q783 117 873 254T963 642Q963 893 873 1030T617 1166Q451 1166 362 1030T272 642Z"/>
<glyph unicode="R" horiz-adv-x="1234" glyph-name="R" d="M184 0V1283H543Q767 1283 854 1246Q1040 1169 1040 974Q1040 840 973 751T749 584L1203 0H964L559 534H381V0H184ZM381 683H485Q644 683 737 753T830 942Q830 1053 760 1094T502 1135H381V683Z"/>
<glyph unicode="S" horiz-adv-x="1234" glyph-name="S" d="M1010 1253V1082Q793 1166 624 1166Q357 1166 357 986Q357 913 407 869T592 777L718 733L838 692Q1117 594 1117 360Q1117 182 975 76T593 -31Q427 -31 164 40V235Q426 117 599 117Q745 117 832 175T919 329Q919 403 868 446T655 548L523 596Q326 669 250 746T173 951Q173 1124 291 1219T621 1314Q794 1314 1010 1253Z"/>
<glyph unicode="T" horiz-adv-x="1234" glyph-name="T" d="M518 0V1135H25V1283H1209V1135H716V0H518Z"/>
<glyph unicode="U" horiz-adv-x="1234" glyph-name="U" d="M153 1283H350V504Q350 300 415 209T623 117Q775 117 842 209T909 509V1283H1081V538Q1081 297 1024 192Q903 -31 625 -31Q384 -31 269 101T153 507V1283Z"/>
<glyph unicode="V" horiz-adv-x="1234" glyph-name="V" d="M512 0L14 1283H222L632 263L1051 1283H1219L710 0H512Z"/>
<glyph unicode="W" horiz-adv-x="1234" glyph-name="W" d="M207 0L16 1283H184L340 217H343L528 1012H718L900 229H902L1067 1283H1217L1006 0H792L615 753H613L435 0H207Z"/>
<glyph unicode="X" horiz-adv-x="1234" glyph-name="X" d="M11 0L514 653L54 1283H287L634 808L1001 1283H1193L727 681L1219 0H985L606 522L203 0H11Z"/>
<glyph unicode="Y" horiz-adv-x="1234" glyph-name="Y" d="M519 0V525L32 1283H259L632 691L1040 1283H1227L716 525V0H519Z"/>
<glyph unicode="Z" horiz-adv-x="1234" glyph-name="Z" d="M99 0V148L904 1135H148V1283H1127V1135L323 148H1135V0H99Z"/>
<glyph unicode="[" horiz-adv-x="1234" glyph-name="bracketleft" d="M444 -296V1579H1061V1431H617V-148H1061V-296H444Z"/>
<glyph unicode="\" horiz-adv-x="1234" glyph-name="backslash" d="M994 -296L74 1579H239L1159 -296H994Z"/>
<glyph unicode="]" horiz-adv-x="1234" glyph-name="bracketright" d="M790 1579V-296H173V-148H617V1431H173V1579H790Z"/>
<glyph unicode="^" horiz-adv-x="1234" glyph-name="asciicircum" d="M86 296L616 1480L1147 296H981L616 1111L252 296H86Z"/>
<glyph unicode="_" horiz-adv-x="1234" glyph-name="underscore" d="M0 -148V0H1234V-148H0Z"/>
<glyph unicode="`" horiz-adv-x="1234" glyph-name="grave" d="M863 1394H703L370 1616H641L863 1394Z"/>
<glyph unicode="a" horiz-adv-x="1234" glyph-name="a" d="M835 131Q656 -19 478 -19Q329 -19 233 66T136 281Q136 450 286 553T682 656H804V749Q804 864 753 913T584 962Q413 962 230 866V1035Q440 1110 624 1110Q831 1110 917 1028T1002 745V290Q1002 192 1023 157T1102 121Q1121 121 1164 131L1182 13Q1083 -19 1032 -19Q886 -19 835 131ZM804 259V533H745Q340 533 340 314Q340 235 392 187T530 139Q659 139 804 259Z"/>
<glyph unicode="b" horiz-adv-x="1234" glyph-name="b" d="M173 -12V1579H370V882Q513 1110 725 1110Q910 1110 1017 968T1123 579Q1123 309 997 142T667 -25Q492 -25 370 123L321 -12H173ZM370 271Q507 123 640 123Q770 123 842 238T913 558Q913 942 684 942Q517 942 370 734V271Z"/>
<glyph unicode="c" horiz-adv-x="1234" glyph-name="c" d="M1103 35Q928 -25 754 -25Q470 -25 317 123T163 543Q163 810 315 960T736 1110Q908 1110 1083 1058V893Q890 962 754 962Q576 962 475 850T373 543Q373 346 482 235T781 123Q924 123 1103 190V35Z"/>
<glyph unicode="d" horiz-adv-x="1234" glyph-name="d" d="M880 0V204Q736 -25 524 -25Q340 -25 234 118T127 507Q127 777 253 944T583 1110Q758 1110 880 962V1579H1077V0H880ZM880 814Q742 962 610 962Q480 962 409 848T337 527Q337 144 566 144Q733 144 880 352V814Z"/>
<glyph unicode="e" horiz-adv-x="1234" glyph-name="e" d="M1098 43Q893 -25 722 -25Q442 -25 292 119T141 531Q141 784 286 947T653 1110Q878 1110 985 975T1091 555V492H351Q373 123 749 123Q908 123 1098 199V43ZM357 640H881V668Q881 962 636 962Q518 962 445 877T357 640Z"/>
<glyph unicode="f" horiz-adv-x="1234" glyph-name="f" d="M444 0V913H148V1061H444V1176Q444 1404 550 1504T898 1604Q1058 1604 1201 1561V1405Q1055 1456 913 1456Q762 1456 702 1399T641 1197V1061H1160V913H641V0H444Z"/>
<glyph unicode="g" horiz-adv-x="1234" glyph-name="g" d="M212 -363L233 -197Q410 -272 562 -272Q878 -272 878 29L887 225Q763 0 528 0Q342 0 233 142T123 523Q123 784 250 948T580 1111Q739 1111 893 962V1086H1078V217Q1078 6 1050 -100T945 -289Q822 -420 560 -420Q406 -420 212 -363ZM881 385V812Q748 962 606 962Q477 962 405 850T333 536Q333 365 396 269T572 172Q747 172 881 385Z"/>
<glyph unicode="h" horiz-adv-x="1234" glyph-name="h" d="M182 0V1579H379V1086V882Q515 1110 749 1110Q1058 1110 1058 743V0H861V689Q861 816 822 870T689 923Q541 923 379 710V0H182Z"/>
<glyph unicode="i" horiz-adv-x="1234" glyph-name="i" d="M568 0V938H173V1086H765V0H568ZM543 1332V1579H790V1332H543Z"/>
<glyph unicode="j" horiz-adv-x="1234" glyph-name="j" d="M148 -367V-202Q302 -272 453 -272Q579 -272 626 -208T672 27V938H228V1086H869V67Q869 -186 770 -302T453 -419Q311 -419 148 -367ZM647 1332V1579H894V1332H647Z"/>
<glyph unicode="k" horiz-adv-x="1234" glyph-name="k" d="M213 0V1579H410V568L866 1086H1079L650 597L1188 0H922L410 568V0H213Z"/>
<glyph unicode="l" horiz-adv-x="1234" glyph-name="l" d="M592 0V1431H173V1579H790V0H592Z"/>
<glyph unicode="m" horiz-adv-x="1234" glyph-name="m" d="M93 0V1086H266V882Q393 1110 508 1110Q655 1110 697 882H704Q808 1110 948 1110Q1050 1110 1096 1036T1142 795V0H969V787Q969 876 956 908T907 940Q813 940 704 701V0H531V751Q531 863 518 901T466 938Q424 938 367 870T266 699V0H93Z"/>
<glyph unicode="n" horiz-adv-x="1234" glyph-name="n" d="M182 0V1086H379V882Q515 1110 749 1110Q1058 1110 1058 743V0H861V689Q861 816 822 870T689 923Q541 923 379 710V0H182Z"/>
<glyph unicode="o" horiz-adv-x="1234" glyph-name="o" d="M617 -25Q378 -25 242 127T105 543Q105 807 242 959T617 1110Q856 1110 993 959T1129 543Q1129 278 993 127T617 -25ZM617 123Q759 123 839 234T919 543Q919 740 839 851T617 962Q475 962 395 851T315 543Q315 345 395 234T617 123Z"/>
<glyph unicode="p" horiz-adv-x="1234" glyph-name="p" d="M179 -395V1086H376V882Q519 1110 731 1110Q916 1110 1023 968T1129 579Q1129 309 1003 142T673 -25Q498 -25 376 123V-395H179ZM376 271Q513 123 646 123Q776 123 848 238T919 558Q919 942 690 942Q523 942 376 734V271Z"/>
<glyph unicode="q" horiz-adv-x="1234" glyph-name="q" d="M1061 1086V-395H864V204Q720 -25 508 -25Q324 -25 218 118T111 507Q111 777 237 944T567 1110Q742 1110 864 962H870L901 1086H1061ZM864 814Q726 962 594 962Q464 962 393 848T321 527Q321 144 550 144Q717 144 864 352V814Z"/>
<glyph unicode="r" horiz-adv-x="1234" glyph-name="r" d="M308 0V1086H505V882Q655 1110 908 1110Q997 1110 1110 1085V777H962V928Q918 938 882 938Q769 938 684 886T505 707V0H308Z"/>
<glyph unicode="s" horiz-adv-x="1234" glyph-name="s" d="M187 44V222Q416 123 583 123Q703 123 782 172T860 294Q860 389 673 449L462 518Q215 598 215 800Q215 948 327 1029T642 1110Q795 1110 997 1063V903Q802 962 641 962Q533 962 469 923T404 818Q404 737 551 686L800 599Q936 551 996 485T1055 312Q1055 158 928 67T587 -25Q400 -25 187 44Z"/>
<glyph unicode="t" horiz-adv-x="1234" glyph-name="t" d="M1102 1Q954 -25 816 -25Q575 -25 488 62T401 389V913H130V1061H401V1295H599V1061H1080V913H599V357Q599 264 611 229T660 168Q728 123 858 123Q981 123 1102 151V1Z"/>
<glyph unicode="u" horiz-adv-x="1234" glyph-name="u" d="M1052 1086V0H855V204Q719 -25 484 -25Q176 -25 176 343V1086H373V397Q373 269 412 216T545 162Q693 162 855 376V1086H1052Z"/>
<glyph unicode="v" horiz-adv-x="1234" glyph-name="v" d="M512 0L62 1086H264L625 216L997 1086H1172L710 0H512Z"/>
<glyph unicode="w" horiz-adv-x="1234" glyph-name="w" d="M210 0L12 1086H194L338 236H340L533 987H724L907 207H910L1070 1086H1221L1004 0H810L619 812H617L406 0H210Z"/>
<glyph unicode="x" horiz-adv-x="1234" glyph-name="x" d="M93 0L497 549L95 1086H342L642 685L917 1086H1112L743 550L1154 0H908L597 415L292 0H93Z"/>
<glyph unicode="y" horiz-adv-x="1234" glyph-name="y" d="M142 -395V-247H222Q334 -247 385 -211T492 -56L541 48L85 1086H289L644 273L1002 1086H1179L632 -139Q568 -282 479 -338T226 -395H142Z"/>
<glyph unicode="z" horiz-adv-x="1234" glyph-name="z" d="M136 0V148L847 938H161V1086H1080V938L368 148H1098V0H136Z"/>
<glyph unicode="{" horiz-adv-x="1234" glyph-name="braceleft" d="M1024 1579V1431H945Q796 1431 735 1395T674 1268Q674 1235 684 1176L707 1037Q719 967 719 921Q719 706 521 642Q718 577 718 359Q718 314 707 246L684 108Q674 48 674 15Q674 -75 735 -111T945 -148H1024V-296H915Q711 -296 603 -222T494 -8Q494 52 508 127L542 305Q549 345 549 384Q549 568 325 568H234V716H325Q549 716 549 899Q549 938 542 978L508 1156Q494 1231 494 1291Q494 1579 915 1579H1024Z"/>
<glyph unicode="|" horiz-adv-x="1234" glyph-name="bar" d="M543 -296V1579H691V-296H543Z"/>
<glyph unicode="}" horiz-adv-x="1234" glyph-name="braceright" d="M210 -296V-148H288Q438 -148 499 -111T560 15Q560 48 550 108L527 246Q515 316 515 362Q515 577 712 642Q515 706 515 922Q515 967 527 1037L550 1176Q560 1235 560 1268Q560 1358 499 1395T288 1431H210V1579H318Q523 1579 631 1505T739 1291Q739 1231 725 1156L692 978Q684 938 684 899Q684 716 909 716H1000V568H909Q684 568 684 384Q684 345 692 305L725 127Q739 53 739 -8Q739 -296 318 -296H210Z"/>
<glyph unicode="~" horiz-adv-x="1234" glyph-name="asciitilde" d="M86 382Q86 529 162 621T358 712Q452 712 568 647L715 565Q827 501 888 501Q1003 501 1011 679H1147Q1147 532 1072 441T875 349Q781 349 665 414L518 496Q406 560 345 560Q230 560 222 382H86Z"/>
<glyph unicode="&#x7f;" horiz-adv-x="1234" glyph-name=".notdef" d="M256 0V1280H978V0H256ZM320 64H914V1216H320V64Z"/>
<glyph unicode="&#x80;" horiz-adv-x="1234" glyph-name=".notdef" d="M256 0V1280H978V0H256ZM320 64H914V1216H320V64Z"/>
<glyph unicode="&#x81;" horiz-adv-x="1234" glyph-name=".notdef" d="M256 0V1280H978V0H256ZM320 64H914V1216H320V64Z"/>
<glyph unicode="&#x82;" horiz-adv-x="1234" glyph-name=".notdef" d="M256 0V1280H978V0H256ZM320 64H914V1216H320V64Z"/>
<glyph unicode="&#x83;" horiz-adv-x="1234" glyph-name=".notdef" d="M256 0V1280H978V0H256ZM320 64H914V1216H320V64Z"/>
<glyph unicode="&#x84;" horiz-adv-x="1234" glyph-name=".notdef" d="M256 0V1280H978V0H256ZM320 64H914V1216H320V64Z"/>
<glyph unicode="&#x85;" horiz-adv-x="1234" glyph-name=".notdef" d="M256 0V1280H978V0H256ZM320 64H914V1216H320V64Z"/>
<glyph unicode="&#x86;" horiz-adv-x="1234" glyph-name=".notdef" d="M256 0V1280H978V0H256ZM320 64H914V1216H320V64Z"/>
<glyph unicode="&#x87;" horiz-adv-x="1234" glyph-name=".notdef" d="M256 0V1280H978V0H256ZM320 64H914V1216H320V64Z"/>
<glyph unicode="&#x88;" horiz-adv-x="1234" glyph-name=".notdef" d="M256 0V1280H978V0H256ZM320 64H914V1216H320V64Z"/>
<glyph unicode="&#x89;" horiz-adv-x="1234" glyph-name=".notdef" d="M256 0V1280H978V0H256ZM320 64H914V1216H320V64Z"/>
<glyph unicode="&#x8a;" horiz-adv-x="1234" glyph-name=".notdef" d="M256 0V1280H978V0H256ZM320 64H914V1216H320V64Z"/>
<glyph unicode="&#x8b;" horiz-adv-x="1234" glyph-name=".notdef" d="M256 0V1280H978V0H256ZM320 64H914V1216H320V64Z"/>
<glyph unicode="&#x8c;" horiz-adv-x="1234" glyph-name=".notdef" d="M256 0V1280H978V0H256ZM320 64H914V1216H320V64Z"/>
<glyph unicode="&#x8d;" horiz-adv-x="1234" glyph-name=".notdef" d="M256 0V1280H978V0H256ZM320 64H914V1216H320V64Z"/>
<glyph unicode="&#x8e;" horiz-adv-x="1234" glyph-name=".notdef" d="M256 0V1280H978V0H256ZM320 64H914V1216H320V64Z"/>
<glyph unicode="&#x8f;" horiz-adv-x="1234" glyph-name=".notdef" d="M256 0V1280H978V0H256ZM320 64H914V1216H320V64Z"/>
<glyph unicode="&#x90;" horiz-adv-x="1234" glyph-name=".notdef" d="M256 0V1280H978V0H256ZM320 64H914V1216H320V64Z"/>
<glyph unicode="&#x91;" horiz-adv-x="1234" glyph-name=".notdef" d="M256 0V1280H978V0H256ZM320 64H914V1216H320V64Z"/>
<glyph unicode="&#x92;" horiz-adv-x="1234" glyph-name=".notdef" d="M256 0V1280H978V0H256ZM320 64H914V1216H320V64Z"/>
<glyph unicode="&#x93;" horiz-adv-x="1234" glyph-name=".notdef" d="M256 0V1280H978V0H256ZM320 64H914V1216H320V64Z"/>
<glyph unicode="&#x94;" horiz-adv-x="1234" glyph-name=".notdef" d="M256 0V1280H978V0H256ZM320 64H914V1216H320V64Z"/>
<glyph unicode="&#x95;" horiz-adv-x="1234" glyph-name=".notdef" d="M256 0V1280H978V0H256ZM320 64H914V1216H320V64Z"/>
<glyph unicode="&#x96;" horiz-adv-x="1234" glyph-name=".notdef" d="M256 0V1280H978V0H256ZM320 64H914V1216H320V64Z"/>
<glyph unicode="&#x97;" horiz-adv-x="1234" glyph-name=".notdef" d="M256 0V1280H978V0H256ZM320 64H914V1216H320V64Z"/>
<glyph unicode="&#x98;" horiz-adv-x="1234" glyph-name=".notdef" d="M256 0V1280H978V0H256ZM320 64H914V1216H320V64Z"/>
<glyph unicode="&#x99;" horiz-adv-x="1234" glyph-name=".notdef" d="M256 0V1280H978V0H256ZM320 64H914V1216H320V64Z"/>
<glyph unicode="&#x9a;" horiz-adv-x="1234" glyph-name=".notdef" d="M256 0V1280H978V0H256ZM320 64H914V1216H320V64Z"/>
<glyph unicode="&#x9b;" horiz-adv-x="1234" glyph-name=".notdef" d="M256 0V1280H978V0H256ZM320 64H914V1216H320V64Z"/>
<glyph unicode="&#x9c;" horiz-adv-x="1234" glyph-name=".notdef" d="M256 0V1280H978V0H256ZM320 64H914V1216H320V64Z"/>
<glyph unicode="&#x9d;" horiz-adv-x="1234" glyph-name=".notdef" d="M256 0V1280H978V0H256ZM320 64H914V1216H320V64Z"/>
<glyph unicode="&#x9e;" horiz-adv-x="1234" glyph-name=".notdef" d="M256 0V1280H978V0H256ZM320 64H914V1216H320V64Z"/>
<glyph unicode="&#x9f;" horiz-adv-x="1234" glyph-name=".notdef" d="M256 0V1280H978V0H256ZM320 64H914V1216H320V64Z"/>
<glyph unicode="&#xa0;" horiz-adv-x="1234" glyph-name="nbspace"/>
<glyph unicode="&#xa1;" horiz-adv-x="1234" glyph-name="exclamdown" d="M690 666L715 -99V-395H518V-99L542 666H690ZM493 864V1086H740V864H493Z"/>
<glyph unicode="&#xa2;" horiz-adv-x="1234" glyph-name="cent" d="M634 0V182Q425 210 311 356T197 741Q197 977 310 1123T634 1307V1480H757V1307Q867 1297 1014 1261V1093Q873 1145 757 1161V324Q898 338 1016 394V242Q905 198 757 178V0H634ZM634 341V1152Q407 1101 407 743Q407 421 634 341Z"/>
<glyph unicode="&#xa3;" horiz-adv-x="1234" glyph-name="sterling" d="M251 0V173Q450 249 450 482V716H277V864H450V1079Q450 1294 549 1406T838 1517Q933 1517 1052 1488V1320Q918 1369 832 1369Q647 1369 647 1157V864H845V716H647V574Q647 437 614 359T477 173H1067V0H251Z"/>
<glyph unicode="&#xa4;" horiz-adv-x="1234" glyph-name="currency" d="M385 423L200 236V236L111 326L298 511Q232 620 232 742Q232 864 298 973L111 1159L200 1248L385 1061Q507 1139 617 1139Q728 1139 849 1061L1035 1248L1124 1159L936 973Q1002 864 1002 742Q1002 620 936 511L1124 326L1035 236V236L849 423Q728 345 617 345Q507 345 385 423ZM617 493Q715 493 785 567T855 742Q855 845 785 918T617 991Q520 991 450 918T380 742Q380 640 450 567T617 493Z"/>
<glyph unicode="&#xa5;" horiz-adv-x="1234" glyph-name="yen" d="M516 0V265H220V401H516V605H220V740H513L50 1480H286L650 900L1039 1480H1209L721 740H1009V605H713V401H1009V265H713V0H516Z"/>
<glyph unicode="&#xa6;" horiz-adv-x="1234" glyph-name="brokenbar" d="M543 -296V444H691V-296H543ZM543 839V1579H691V839H543Z"/>
<glyph unicode="&#xa7;" horiz-adv-x="1234" glyph-name="section" d="M217 -255V-74Q449 -185 612 -185Q712 -185 780 -134T847 -8Q847 61 795 116T614 234L497 293Q232 427 232 616Q232 689 260 749T374 918Q232 1026 232 1166Q232 1320 358 1419T680 1517Q823 1517 973 1476V1309Q814 1369 670 1369Q554 1369 482 1321T409 1195Q409 1141 443 1105T569 1022L699 957Q1007 804 1007 606Q1007 460 860 299Q1027 177 1027 16Q1027 -132 905 -229T597 -327Q435 -327 217 -255ZM767 361Q839 473 839 545Q839 618 793 671T632 782L557 820L511 842Q501 847 478 859Q409 759 409 676Q409 605 451 555T599 449L677 408L727 383Q739 377 767 361Z"/>
<glyph unicode="&#xa8;" horiz-adv-x="1234" glyph-name="dieresis" d="M284 1443V1616H457V1443H284ZM777 1443V1616H950V1443H777Z"/>
<glyph unicode="&#xa9;" horiz-adv-x="1234" glyph-name="copyright" d="M617 -37Q62 -37 62 739Q62 1517 617 1517Q890 1517 1031 1324T1172 756Q1172 355 1035 159T617 -37ZM617 74Q1049 74 1049 739Q1049 1406 617 1406Q185 1406 185 739Q185 74 617 74ZM890 360Q767 300 655 300Q484 300 381 421T278 742Q278 950 381 1067T665 1184Q769 1184 889 1144V1000Q781 1064 662 1064Q550 1064 489 982T427 751Q427 603 497 518T689 432Q772 432 890 490V360Z"/>
<glyph unicode="&#xaa;" horiz-adv-x="1234" glyph-name="ordfeminine" d="M756 825Q602 716 478 716Q375 716 306 781T237 942Q237 1075 349 1146T672 1216H742V1245Q742 1394 572 1394Q436 1394 276 1305V1451Q426 1517 598 1517Q770 1517 843 1458T915 1257V969Q915 855 987 855Q1008 855 1034 866V751Q969 716 903 716Q795 716 756 825ZM742 938V1093H691Q407 1093 407 952Q407 907 440 878T521 848Q637 848 742 938Z"/>
<glyph unicode="&#xab;" horiz-adv-x="1234" glyph-name="guillemotleft" d="M560 993L656 911L341 537L654 166L563 86L117 537L560 993ZM998 993L1094 911L779 537L1092 166L1001 86L555 537L998 993Z"/>
<glyph unicode="&#xac;" horiz-adv-x="1234" glyph-name="logicalnot" d="M86 642V790H1147V296H999V642H86Z"/>
<glyph unicode="&#xad;" horiz-adv-x="1234" glyph-name="sfthyphen" d="M210 543V691H1024V543H210Z"/>
<glyph unicode="&#xae;" horiz-adv-x="1234" glyph-name="registered" d="M617 629Q433 629 303 759T173 1073Q173 1258 303 1388T617 1517Q801 1517 931 1388T1061 1073Q1061 889 931 759T617 629ZM617 728Q759 728 861 830T963 1073Q963 1215 861 1317T617 1419Q475 1419 374 1317T272 1073Q272 931 374 830T617 728ZM444 814V1345H591Q790 1345 790 1202Q790 1102 689 1049L813 814H702L588 1029H543V814H444ZM543 1104H577Q687 1104 687 1190Q687 1268 588 1268H543V1104Z"/>
<glyph unicode="&#xaf;" horiz-adv-x="1234" glyph-name="overscore" d="M0 1468V1616H1234V1468H0Z"/>
<glyph unicode="&#xb0;" horiz-adv-x="1234" glyph-name="degree" d="M614 1073Q521 1073 457 1138T392 1296Q392 1389 457 1453T614 1517Q707 1517 772 1453T836 1296Q836 1203 772 1138T614 1073ZM614 1172Q664 1172 701 1209T737 1295Q737 1345 701 1382T614 1419Q565 1419 528 1382T491 1295Q491 1246 528 1209T614 1172Z"/>
<glyph unicode="&#xb1;" horiz-adv-x="1234" glyph-name="plusminus" d="M86 0V148H1147V0H86ZM542 296V605H86V753H542V1061H691V753H1147V605H691V296H542Z"/>
<glyph unicode="&#xb2;" horiz-adv-x="1234" glyph-name="twosuperior" d="M302 740V881Q368 978 522 1071L596 1115Q710 1184 739 1213T768 1288Q768 1394 587 1394Q449 1394 302 1323V1460Q457 1517 620 1517Q780 1517 866 1460T951 1294Q951 1213 903 1162T707 1032L629 991Q523 935 484 876H968V740H302Z"/>
<glyph unicode="&#xb3;" horiz-adv-x="1234" glyph-name="threesuperior" d="M313 758V897Q504 839 596 839Q673 839 720 868T767 945Q767 1069 483 1069H424V1192H485Q767 1192 767 1310Q767 1394 626 1394Q502 1394 313 1322V1459Q475 1517 649 1517Q946 1517 946 1333Q946 1204 751 1136Q953 1079 953 939Q953 834 863 775T614 716Q490 716 313 758Z"/>
<glyph unicode="&#xb4;" horiz-adv-x="1234" glyph-name="acute" d="M370 1394L592 1616H863L530 1394H370Z"/>
<glyph unicode="&#xb5;" horiz-adv-x="1234" glyph-name="micro" d="M182 -419V1086H379V533Q379 401 398 340T469 231Q540 166 632 166Q758 166 867 380V1086H1064V335Q1064 118 1124 0H908Q887 58 871 173Q870 183 867 203Q816 77 761 26T622 -25Q548 -25 495 7T379 119V105V-419H182Z"/>
<glyph unicode="&#xb6;" horiz-adv-x="1234" glyph-name="paragraph" d="M507 -296V740Q125 826 125 1154Q125 1313 210 1397Q293 1480 532 1480H1001V-296H878V1357H631V-296H507Z"/>
<glyph unicode="&#xb7;" horiz-adv-x="1234" glyph-name="middot" d="M493 419V666H740V419H493Z"/>
<glyph unicode="&#xb8;" horiz-adv-x="1234" glyph-name="cedilla" d="M611 0H708L648 -109Q725 -109 784 -156T842 -267Q842 -336 784 -384T641 -432Q569 -432 495 -411V-330Q541 -345 600 -345Q703 -345 703 -271Q703 -175 516 -175L611 0Z"/>
<glyph unicode="&#xb9;" horiz-adv-x="1234" glyph-name="onesuperior" d="M528 740V1357H343V1480L701 1517V740H528Z"/>
<glyph unicode="&#xba;" horiz-adv-x="1234" glyph-name="ordmasculine" d="M617 716Q427 716 325 820T222 1117Q222 1307 324 1412T609 1517Q805 1517 908 1414T1011 1117Q1011 924 909 820T617 716ZM617 839Q826 839 826 1111Q826 1394 617 1394Q407 1394 407 1111Q407 839 617 839Z"/>
<glyph unicode="&#xbb;" horiz-adv-x="1234" glyph-name="guillemotright" d="M236 86L140 168L455 543L142 914L233 993L679 543L236 86ZM674 86L578 168L893 543L580 914L671 993L1117 543L674 86Z"/>
<glyph unicode="&#xbc;" horiz-adv-x="1234" glyph-name="onequarter" d="M136 740V1357H0V1480L308 1517V740H136ZM40 -37L852 1517H1019L207 -37H40ZM925 0V197H548V338L907 765H1098V308H1221V197H1098V0H925ZM649 308H925V638L649 308Z"/>
<glyph unicode="&#xbd;" horiz-adv-x="1234" glyph-name="onehalf" d="M136 740V1357H0V1480L308 1517V740H136ZM7 -37L819 1517H986L174 -37H7ZM664 0V139Q740 276 890 393L933 427Q1010 488 1010 550Q1010 654 877 654Q779 654 664 598V733Q793 778 896 778Q1028 778 1110 718T1191 560Q1191 435 1028 327L973 290L933 264Q860 213 828 136H1209V0H664Z"/>
<glyph unicode="&#xbe;" horiz-adv-x="1234" glyph-name="threequarters" d="M42 880Q164 842 243 842Q310 842 351 870T391 942Q391 1073 122 1073V1195H152Q393 1195 393 1314Q393 1401 260 1401Q166 1401 42 1359V1487Q164 1517 280 1517Q416 1517 494 1468T572 1333Q572 1192 341 1133Q575 1092 575 938Q575 833 487 777T233 720Q139 720 42 749V880ZM42 -37L1059 1517H1234L217 -37H42ZM938 0V197H561V338L919 765H1111V308H1234V197H1111V0H938ZM662 308H938V638L662 308Z"/>
<glyph unicode="&#xbf;" horiz-adv-x="1234" glyph-name="questiondown" d="M568 864V1086H815V864H568ZM790 666V651Q790 520 740 424T569 227L499 169Q355 49 355 -65Q355 -271 692 -271Q804 -271 922 -242V-72H1070V-361Q867 -419 658 -419Q411 -419 280 -335T148 -93Q148 77 339 233L439 313Q525 383 559 448T593 608V666H790Z"/>
<glyph unicode="&#xc0;" horiz-adv-x="1234" glyph-name="Agrave" d="M12 0L518 1283H715L1221 0H1012L891 321H305L182 0H12ZM364 469H832L597 1082L364 469ZM1013 1394H853L520 1616H791L1013 1394Z"/>
<glyph unicode="&#xc1;" horiz-adv-x="1234" glyph-name="Aacute" d="M12 0L518 1283H715L1221 0H1012L891 321H305L182 0H12ZM364 469H832L597 1082L364 469ZM437 1394L659 1616H930L597 1394H437Z"/>
<glyph unicode="&#xc2;" horiz-adv-x="1234" glyph-name="Acircumflex" d="M12 0L518 1283H715L1221 0H1012L891 321H305L182 0H12ZM364 469H832L597 1082L364 469ZM616 1526L419 1394H259L481 1616H752L974 1394H814L616 1526Z"/>
<glyph unicode="&#xc3;" horiz-adv-x="1234" glyph-name="Atilde" d="M12 0L518 1283H715L1221 0H1012L891 321H305L182 0H12ZM364 469H832L597 1082L364 469ZM537 1394Q548 1616 729 1616Q797 1616 862 1581L921 1547Q976 1517 1005 1517Q1074 1517 1080 1616H1203Q1191 1394 1012 1394Q943 1394 879 1430L819 1463Q765 1493 729 1493Q666 1493 661 1394H537Z"/>
<glyph unicode="&#xc4;" horiz-adv-x="1234" glyph-name="Adieresis" d="M12 0L518 1283H715L1221 0H1012L891 321H305L182 0H12ZM364 469H832L597 1082L364 469ZM539 1443V1616H712V1443H539ZM1032 1443V1616H1205V1443H1032Z"/>
<glyph unicode="&#xc5;" horiz-adv-x="1234" glyph-name="Aring" d="M715 1283L1221 0H1012L897 321H305L182 0H12L518 1283H519Q436 1341 436 1435Q436 1511 489 1564T616 1616Q691 1616 744 1564T797 1435Q797 1342 714 1283H715ZM366 469H842L597 1082L366 469ZM616 1329Q660 1329 692 1361T723 1436Q723 1480 692 1511T616 1542Q572 1542 541 1511T510 1436Q510 1392 541 1361T616 1329Z"/>
<glyph unicode="&#xc6;" horiz-adv-x="1234" glyph-name="AE" d="M0 0L565 1283H1147V1135H814V697H1080V549H814V148H1197V0H629V265H289L172 0H0ZM355 413H629V1037L355 413Z"/>
<glyph unicode="&#xc7;" horiz-adv-x="1234" glyph-name="Ccedilla" d="M1155 40Q957 -31 782 -31Q476 -31 289 153T102 635Q102 938 288 1126T774 1314Q944 1314 1138 1256V1075Q940 1166 768 1166Q569 1166 441 1020T312 648Q312 420 457 275T830 130Q968 130 1155 202V40ZM700 0H797L737 -109Q814 -109 873 -156T931 -267Q931 -336 873 -384T730 -432Q658 -432 584 -411V-330Q630 -345 689 -345Q792 -345 792 -271Q792 -175 605 -175L700 0Z"/>
<glyph unicode="&#xc8;" horiz-adv-x="1234" glyph-name="Egrave" d="M216 0V1283H1083V1135H413V746H981V598H413V148H1129V0H216ZM1089 1394H929L596 1616H867L1089 1394Z"/>
<glyph unicode="&#xc9;" horiz-adv-x="1234" glyph-name="Eacute" d="M216 0V1283H1083V1135H413V746H981V598H413V148H1129V0H216ZM512 1394L734 1616H1005L672 1394H512Z"/>
<glyph unicode="&#xca;" horiz-adv-x="1234" glyph-name="Ecircumflex" d="M216 0V1283H1083V1135H413V746H981V598H413V148H1129V0H216ZM675 1526L478 1394H318L540 1616H811L1033 1394H873L675 1526Z"/>
<glyph unicode="&#xcb;" horiz-adv-x="1234" glyph-name="Edieresis" d="M216 0V1283H1083V1135H413V746H981V598H413V148H1129V0H216ZM339 1443V1616H512V1443H339ZM832 1443V1616H1005V1443H832Z"/>
<glyph unicode="&#xcc;" horiz-adv-x="1234" glyph-name="Igrave" d="M173 0V148H518V1135H173V1283H1061V1135H716V148H1061V0H173ZM1033 1394H873L540 1616H811L1033 1394Z"/>
<glyph unicode="&#xcd;" horiz-adv-x="1234" glyph-name="Iacute" d="M173 0V148H518V1135H173V1283H1061V1135H716V148H1061V0H173ZM457 1394L679 1616H950L617 1394H457Z"/>
<glyph unicode="&#xce;" horiz-adv-x="1234" glyph-name="Icircumflex" d="M173 0V148H518V1135H173V1283H1061V1135H716V148H1061V0H173ZM616 1526L419 1394H259L481 1616H752L974 1394H814L616 1526Z"/>
<glyph unicode="&#xcf;" horiz-adv-x="1234" glyph-name="Idieresis" d="M173 0V148H518V1135H173V1283H1061V1135H716V148H1061V0H173ZM284 1443V1616H457V1443H284ZM777 1443V1616H950V1443H777Z"/>
<glyph unicode="&#xd0;" horiz-adv-x="1234" glyph-name="Eth" d="M129 1283H516Q1156 1283 1156 667Q1156 382 1017 206Q930 95 803 48T463 0H129V598H6V746H129V1283ZM326 148H425Q707 148 827 260T946 636Q946 904 838 1020T478 1135H326V746H573V598H326V148Z"/>
<glyph unicode="&#xd1;" horiz-adv-x="1234" glyph-name="Ntilde" d="M148 0V1287H334L923 354H925V1283H1086V0H904L311 940H308V0H148ZM295 1394Q306 1616 487 1616Q555 1616 620 1581L679 1547Q734 1517 763 1517Q832 1517 838 1616H961Q949 1394 770 1394Q701 1394 637 1430L577 1463Q523 1493 487 1493Q424 1493 419 1394H295Z"/>
<glyph unicode="&#xd2;" horiz-adv-x="1234" glyph-name="Ograve" d="M62 642Q62 949 213 1132T617 1314Q871 1314 1022 1132T1172 642Q1172 334 1022 152T617 -31Q363 -31 213 152T62 642ZM272 642Q272 390 362 254T617 117Q783 117 873 254T963 642Q963 893 873 1030T617 1166Q451 1166 362 1030T272 642ZM1033 1394H873L540 1616H811L1033 1394Z"/>
<glyph unicode="&#xd3;" horiz-adv-x="1234" glyph-name="Oacute" d="M62 642Q62 949 213 1132T617 1314Q871 1314 1022 1132T1172 642Q1172 334 1022 152T617 -31Q363 -31 213 152T62 642ZM272 642Q272 390 362 254T617 117Q783 117 873 254T963 642Q963 893 873 1030T617 1166Q451 1166 362 1030T272 642ZM457 1394L679 1616H950L617 1394H457Z"/>
<glyph unicode="&#xd4;" horiz-adv-x="1234" glyph-name="Ocircumflex" d="M62 642Q62 949 213 1132T617 1314Q871 1314 1022 1132T1172 642Q1172 334 1022 152T617 -31Q363 -31 213 152T62 642ZM272 642Q272 390 362 254T617 117Q783 117 873 254T963 642Q963 893 873 1030T617 1166Q451 1166 362 1030T272 642ZM616 1526L419 1394H259L481 1616H752L974 1394H814L616 1526Z"/>
<glyph unicode="&#xd5;" horiz-adv-x="1234" glyph-name="Otilde" d="M62 642Q62 949 213 1132T617 1314Q871 1314 1022 1132T1172 642Q1172 334 1022 152T617 -31Q363 -31 213 152T62 642ZM272 642Q272 390 362 254T617 117Q783 117 873 254T963 642Q963 893 873 1030T617 1166Q451 1166 362 1030T272 642ZM288 1394Q299 1616 480 1616Q548 1616 613 1581L672 1547Q727 1517 756 1517Q825 1517 831 1616H954Q942 1394 763 1394Q694 1394 630 1430L570 1463Q516 1493 480 1493Q417 1493 412 1394H288Z"/>
<glyph unicode="&#xd6;" horiz-adv-x="1234" glyph-name="Odieresis" d="M62 642Q62 949 213 1132T617 1314Q871 1314 1022 1132T1172 642Q1172 334 1022 152T617 -31Q363 -31 213 152T62 642ZM272 642Q272 390 362 254T617 117Q783 117 873 254T963 642Q963 893 873 1030T617 1166Q451 1166 362 1030T272 642ZM284 1443V1616H457V1443H284ZM777 1443V1616H950V1443H777Z"/>
<glyph unicode="&#xd7;" horiz-adv-x="1234" glyph-name="multiply" d="M76 105L512 541L76 977L180 1082L616 646L1053 1082L1157 977L721 541L1157 105L1053 0L617 436L180 0L76 105Z"/>
<glyph unicode="&#xd8;" horiz-adv-x="1234" glyph-name="Oslash" d="M62 -31L203 166Q62 371 62 641Q62 948 213 1131T615 1314Q810 1314 945 1207L1021 1314H1172L1032 1117Q1172 910 1172 641Q1172 335 1022 152T620 -31Q428 -31 288 75L212 -31H62ZM322 333L845 1067Q754 1166 618 1166Q453 1166 363 1031T272 652Q272 473 322 333ZM913 950L388 216Q480 117 619 117Q784 117 874 254T963 644Q963 806 913 950Z"/>
<glyph unicode="&#xd9;" horiz-adv-x="1234" glyph-name="Ugrave" d="M153 1283H350V504Q350 300 415 209T623 117Q775 117 842 209T909 509V1283H1081V538Q1081 297 1024 192Q903 -31 625 -31Q384 -31 269 101T153 507V1283ZM1046 1394H886L553 1616H824L1046 1394Z"/>
<glyph unicode="&#xda;" horiz-adv-x="1234" glyph-name="Uacute" d="M153 1283H350V504Q350 300 415 209T623 117Q775 117 842 209T909 509V1283H1081V538Q1081 297 1024 192Q903 -31 625 -31Q384 -31 269 101T153 507V1283ZM469 1394L691 1616H962L629 1394H469Z"/>
<glyph unicode="&#xdb;" horiz-adv-x="1234" glyph-name="Ucircumflex" d="M153 1283H350V504Q350 300 415 209T623 117Q775 117 842 209T909 509V1283H1081V538Q1081 297 1024 192Q903 -31 625 -31Q384 -31 269 101T153 507V1283ZM629 1526L432 1394H272L494 1616H765L987 1394H827L629 1526Z"/>
<glyph unicode="&#xdc;" horiz-adv-x="1234" glyph-name="Udieresis" d="M153 1283H350V504Q350 300 415 209T623 117Q775 117 842 209T909 509V1283H1081V538Q1081 297 1024 192Q903 -31 625 -31Q384 -31 269 101T153 507V1283ZM324 1443V1616H497V1443H324ZM817 1443V1616H990V1443H817Z"/>
<glyph unicode="&#xdd;" horiz-adv-x="1234" glyph-name="Yacute" d="M519 0V525L32 1283H259L632 691L1040 1283H1227L716 525V0H519ZM472 1394L694 1616H965L632 1394H472Z"/>
<glyph unicode="&#xde;" horiz-adv-x="1234" glyph-name="Thorn" d="M228 0V1283H425V1049H645Q868 1049 963 1008Q1157 925 1157 684Q1157 483 1001 368T569 253H425V0H228ZM425 401H548Q948 401 948 680Q948 799 873 850T621 901H425V401Z"/>
<glyph unicode="&#xdf;" horiz-adv-x="1234" glyph-name="germandbls" d="M191 0V1160Q191 1407 277 1506T576 1604Q746 1604 845 1533T943 1339Q943 1215 828 1065L783 1007Q736 946 736 902Q736 845 797 793L1005 615Q1176 468 1176 302Q1176 155 1083 65T838 -25Q693 -25 532 32V203Q715 123 811 123Q991 123 991 280Q991 334 968 371T871 471L678 638Q560 739 560 844Q560 942 658 1081L692 1131Q746 1208 746 1303Q746 1456 567 1456Q388 1456 388 1234V0H191Z"/>
<glyph unicode="&#xe0;" horiz-adv-x="1234" glyph-name="agrave" d="M835 131Q656 -19 478 -19Q329 -19 233 66T136 281Q136 450 286 553T682 656H804V749Q804 864 753 913T584 962Q413 962 230 866V1035Q440 1110 624 1110Q831 1110 917 1028T1002 745V290Q1002 192 1023 157T1102 121Q1121 121 1164 131L1182 13Q1083 -19 1032 -19Q886 -19 835 131ZM804 259V533H745Q340 533 340 314Q340 235 392 187T530 139Q659 139 804 259ZM1036 1283H888L567 1604H795L1036 1283Z"/>
<glyph unicode="&#xe1;" horiz-adv-x="1234" glyph-name="aacute" d="M835 131Q656 -19 478 -19Q329 -19 233 66T136 281Q136 450 286 553T682 656H804V749Q804 864 753 913T584 962Q413 962 230 866V1035Q440 1110 624 1110Q831 1110 917 1028T1002 745V290Q1002 192 1023 157T1102 121Q1121 121 1164 131L1182 13Q1083 -19 1032 -19Q886 -19 835 131ZM804 259V533H745Q340 533 340 314Q340 235 392 187T530 139Q659 139 804 259ZM484 1283L725 1604H953L632 1283H484Z"/>
<glyph unicode="&#xe2;" horiz-adv-x="1234" glyph-name="acircumflex" d="M835 131Q656 -19 478 -19Q329 -19 233 66T136 281Q136 450 286 553T682 656H804V749Q804 864 753 913T584 962Q413 962 230 866V1035Q440 1110 624 1110Q831 1110 917 1028T1002 745V290Q1002 192 1023 157T1102 121Q1121 121 1164 131L1182 13Q1083 -19 1032 -19Q886 -19 835 131ZM804 259V533H745Q340 533 340 314Q340 235 392 187T530 139Q659 139 804 259ZM282 1283L523 1604H741L982 1283H834L633 1485H631L430 1283H282Z"/>
<glyph unicode="&#xe3;" horiz-adv-x="1234" glyph-name="atilde" d="M835 131Q656 -19 478 -19Q329 -19 233 66T136 281Q136 450 286 553T682 656H804V749Q804 864 753 913T584 962Q413 962 230 866V1035Q440 1110 624 1110Q831 1110 917 1028T1002 745V290Q1002 192 1023 157T1102 121Q1121 121 1164 131L1182 13Q1083 -19 1032 -19Q886 -19 835 131ZM804 259V533H745Q340 533 340 314Q340 235 392 187T530 139Q659 139 804 259ZM523 1283Q534 1517 708 1517Q781 1517 843 1479L903 1442Q959 1407 988 1407Q1057 1407 1066 1517H1189Q1178 1283 1004 1283Q931 1283 869 1322L809 1359Q753 1393 724 1393Q655 1393 646 1283H523Z"/>
<glyph unicode="&#xe4;" horiz-adv-x="1234" glyph-name="adieresis" d="M835 131Q656 -19 478 -19Q329 -19 233 66T136 281Q136 450 286 553T682 656H804V749Q804 864 753 913T584 962Q413 962 230 866V1035Q440 1110 624 1110Q831 1110 917 1028T1002 745V290Q1002 192 1023 157T1102 121Q1121 121 1164 131L1182 13Q1083 -19 1032 -19Q886 -19 835 131ZM804 259V533H745Q340 533 340 314Q340 235 392 187T530 139Q659 139 804 259ZM375 1283V1456H548V1283H375ZM770 1283V1456H943V1283H770Z"/>
<glyph unicode="&#xe5;" horiz-adv-x="1234" glyph-name="aring" d="M835 131Q656 -19 478 -19Q329 -19 233 66T136 281Q136 450 286 553T682 656H804V749Q804 864 753 913T584 962Q413 962 230 866V1035Q440 1110 624 1110Q831 1110 917 1028T1002 745V290Q1002 192 1023 157T1102 121Q1121 121 1164 131L1182 13Q1083 -19 1032 -19Q886 -19 835 131ZM804 259V533H745Q340 533 340 314Q340 235 392 187T530 139Q659 139 804 259ZM632 1246Q555 1246 501 1300T447 1431Q447 1508 501 1562T632 1616Q709 1616 763 1562T817 1431Q817 1354 763 1300T632 1246ZM632 1320Q678 1320 711 1353T743 1431Q743 1477 711 1510T632 1542Q586 1542 554 1510T521 1431Q521 1385 554 1353T632 1320Z"/>
<glyph unicode="&#xe6;" horiz-adv-x="1234" glyph-name="ae" d="M593 126Q475 -25 338 -25Q212 -25 131 64T49 288Q49 442 166 547T456 652H522V768Q522 962 361 962Q265 962 142 909V1059Q278 1110 414 1110Q584 1110 658 991Q752 1110 878 1110Q1204 1110 1204 584V516H708Q708 311 760 222T932 133Q1052 133 1198 197V41Q991 -25 888 -25Q783 -25 716 10T593 126ZM522 225V529H474Q371 529 303 467T234 312Q234 237 276 190T386 143Q442 143 500 202L522 225ZM708 652H1019V699Q1019 843 986 903T873 962Q797 962 753 891T709 697L708 652Z"/>
<glyph unicode="&#xe7;" horiz-adv-x="1234" glyph-name="ccedilla" d="M1103 35Q928 -25 754 -25Q470 -25 317 123T163 543Q163 810 315 960T736 1110Q908 1110 1083 1058V893Q890 962 754 962Q576 962 475 850T373 543Q373 346 482 235T781 123Q924 123 1103 190V35ZM627 0H724L664 -109Q741 -109 800 -156T858 -267Q858 -336 800 -384T657 -432Q585 -432 511 -411V-330Q557 -345 616 -345Q719 -345 719 -271Q719 -175 532 -175L627 0Z"/>
<glyph unicode="&#xe8;" horiz-adv-x="1234" glyph-name="egrave" d="M1098 43Q893 -25 722 -25Q442 -25 292 119T141 531Q141 784 286 947T653 1110Q878 1110 985 975T1091 555V492H351Q373 123 749 123Q908 123 1098 199V43ZM357 640H881V668Q881 962 636 962Q518 962 445 877T357 640ZM1059 1283H911L590 1604H818L1059 1283Z"/>
<glyph unicode="&#xe9;" horiz-adv-x="1234" glyph-name="eacute" d="M1098 43Q893 -25 722 -25Q442 -25 292 119T141 531Q141 784 286 947T653 1110Q878 1110 985 975T1091 555V492H351Q373 123 749 123Q908 123 1098 199V43ZM357 640H881V668Q881 962 636 962Q518 962 445 877T357 640ZM506 1283L747 1604H975L654 1283H506Z"/>
<glyph unicode="&#xea;" horiz-adv-x="1234" glyph-name="ecircumflex" d="M1098 43Q893 -25 722 -25Q442 -25 292 119T141 531Q141 784 286 947T653 1110Q878 1110 985 975T1091 555V492H351Q373 123 749 123Q908 123 1098 199V43ZM357 640H881V668Q881 962 636 962Q518 962 445 877T357 640ZM302 1283L543 1604H761L1002 1283H854L653 1485H651L450 1283H302Z"/>
<glyph unicode="&#xeb;" horiz-adv-x="1234" glyph-name="edieresis" d="M1098 43Q893 -25 722 -25Q442 -25 292 119T141 531Q141 784 286 947T653 1110Q878 1110 985 975T1091 555V492H351Q373 123 749 123Q908 123 1098 199V43ZM357 640H881V668Q881 962 636 962Q518 962 445 877T357 640ZM411 1283V1456H584V1283H411ZM806 1283V1456H979V1283H806Z"/>
<glyph unicode="&#xec;" horiz-adv-x="1234" glyph-name="igrave" d="M568 0V938H173V1086H765V0H568ZM1071 1283H923L602 1604H830L1071 1283Z"/>
<glyph unicode="&#xed;" horiz-adv-x="1234" glyph-name="iacute" d="M568 0V938H173V1086H765V0H568ZM481 1283L722 1604H950L629 1283H481Z"/>
<glyph unicode="&#xee;" horiz-adv-x="1234" glyph-name="icircumflex" d="M568 0V938H173V1086H765V0H568ZM318 1283L559 1604H777L1018 1283H870L669 1485H667L466 1283H318Z"/>
<glyph unicode="&#xef;" horiz-adv-x="1234" glyph-name="idieresis" d="M568 0V938H173V1086H765V0H568ZM370 1283V1456H543V1283H370ZM765 1283V1456H938V1283H765Z"/>
<glyph unicode="&#xf0;" horiz-adv-x="1234" glyph-name="eth" d="M745 1067Q689 1166 540 1288L303 1130L234 1233L422 1362Q291 1421 113 1431V1579H136Q386 1579 580 1467L749 1579L820 1478L690 1389Q896 1244 1011 1030T1125 577Q1125 305 986 140T618 -25Q391 -25 252 130T112 538Q112 782 250 935T609 1088Q671 1088 745 1067ZM623 123Q763 123 845 237T926 546Q926 943 627 943Q484 943 403 835T322 537Q322 346 403 235T623 123Z"/>
<glyph unicode="&#xf1;" horiz-adv-x="1234" glyph-name="ntilde" d="M182 0V1086H379V882Q515 1110 749 1110Q1058 1110 1058 743V0H861V689Q861 816 822 870T689 923Q541 923 379 710V0H182ZM537 1283Q548 1517 722 1517Q795 1517 857 1479L917 1442Q973 1407 1002 1407Q1071 1407 1080 1517H1203Q1192 1283 1018 1283Q945 1283 883 1322L823 1359Q767 1393 738 1393Q669 1393 660 1283H537Z"/>
<glyph unicode="&#xf2;" horiz-adv-x="1234" glyph-name="ograve" d="M617 -25Q378 -25 242 127T105 543Q105 807 242 959T617 1110Q856 1110 993 959T1129 543Q1129 278 993 127T617 -25ZM617 123Q759 123 839 234T919 543Q919 740 839 851T617 962Q475 962 395 851T315 543Q315 345 395 234T617 123ZM1021 1283H873L552 1604H780L1021 1283Z"/>
<glyph unicode="&#xf3;" horiz-adv-x="1234" glyph-name="oacute" d="M617 -25Q378 -25 242 127T105 543Q105 807 242 959T617 1110Q856 1110 993 959T1129 543Q1129 278 993 127T617 -25ZM617 123Q759 123 839 234T919 543Q919 740 839 851T617 962Q475 962 395 851T315 543Q315 345 395 234T617 123ZM469 1283L710 1604H938L617 1283H469Z"/>
<glyph unicode="&#xf4;" horiz-adv-x="1234" glyph-name="ocircumflex" d="M617 -25Q378 -25 242 127T105 543Q105 807 242 959T617 1110Q856 1110 993 959T1129 543Q1129 278 993 127T617 -25ZM617 123Q759 123 839 234T919 543Q919 740 839 851T617 962Q475 962 395 851T315 543Q315 345 395 234T617 123ZM267 1283L508 1604H726L967 1283H819L618 1485H616L415 1283H267Z"/>
<glyph unicode="&#xf5;" horiz-adv-x="1234" glyph-name="otilde" d="M617 -25Q378 -25 242 127T105 543Q105 807 242 959T617 1110Q856 1110 993 959T1129 543Q1129 278 993 127T617 -25ZM617 123Q759 123 839 234T919 543Q919 740 839 851T617 962Q475 962 395 851T315 543Q315 345 395 234T617 123ZM284 1283Q295 1517 469 1517Q542 1517 604 1479L664 1442Q720 1407 749 1407Q818 1407 827 1517H950Q939 1283 765 1283Q692 1283 630 1322L570 1359Q514 1393 485 1393Q416 1393 407 1283H284Z"/>
<glyph unicode="&#xf6;" horiz-adv-x="1234" glyph-name="odieresis" d="M617 -25Q378 -25 242 127T105 543Q105 807 242 959T617 1110Q856 1110 993 959T1129 543Q1129 278 993 127T617 -25ZM617 123Q759 123 839 234T919 543Q919 740 839 851T617 962Q475 962 395 851T315 543Q315 345 395 234T617 123ZM333 1283V1456H506V1283H333ZM728 1283V1456H901V1283H728Z"/>
<glyph unicode="&#xf7;" horiz-adv-x="1234" glyph-name="divide" d="M505 0V222H728V0H505ZM86 456V605H1147V456H86ZM505 839V1061H728V839H505Z"/>
<glyph unicode="&#xf8;" horiz-adv-x="1234" glyph-name="oslash" d="M804 888Q722 962 615 962Q471 962 393 849T315 526Q315 423 349 328L357 305L804 888ZM105 -25L230 138Q105 300 105 544Q105 806 242 958T612 1110Q786 1110 910 1028L974 1110H1129L1003 945Q1129 790 1129 547Q1129 282 994 129T625 -25Q444 -25 322 56L260 -25H105ZM429 196Q503 123 619 123Q764 123 842 237T920 563Q920 678 877 782L429 196Z"/>
<glyph unicode="&#xf9;" horiz-adv-x="1234" glyph-name="ugrave" d="M1052 1086V0H855V204Q719 -25 484 -25Q176 -25 176 343V1086H373V397Q373 269 412 216T545 162Q693 162 855 376V1086H1052ZM1018 1283H870L549 1604H777L1018 1283Z"/>
<glyph unicode="&#xfa;" horiz-adv-x="1234" glyph-name="uacute" d="M1052 1086V0H855V204Q719 -25 484 -25Q176 -25 176 343V1086H373V397Q373 269 412 216T545 162Q693 162 855 376V1086H1052ZM466 1283L707 1604H935L614 1283H466Z"/>
<glyph unicode="&#xfb;" horiz-adv-x="1234" glyph-name="ucircumflex" d="M1052 1086V0H855V204Q719 -25 484 -25Q176 -25 176 343V1086H373V397Q373 269 412 216T545 162Q693 162 855 376V1086H1052ZM520 1283L761 1604H979L1220 1283H1072L871 1485H869L668 1283H520Z"/>
<glyph unicode="&#xfc;" horiz-adv-x="1234" glyph-name="udieresis" d="M1052 1086V0H855V204Q719 -25 484 -25Q176 -25 176 343V1086H373V397Q373 269 412 216T545 162Q693 162 855 376V1086H1052ZM355 1283V1456H528V1283H355ZM750 1283V1456H923V1283H750Z"/>
<glyph unicode="&#xfd;" horiz-adv-x="1234" glyph-name="yacute" d="M142 -395V-247H222Q334 -247 385 -211T492 -56L541 48L85 1086H289L644 273L1002 1086H1179L632 -139Q568 -282 479 -338T226 -395H142ZM496 1283L737 1604H965L644 1283H496Z"/>
<glyph unicode="&#xfe;" horiz-adv-x="1234" glyph-name="thorn" d="M179 -395V1579H376V882Q519 1110 731 1110Q916 1110 1023 968T1129 579Q1129 309 1003 142T673 -25Q498 -25 376 123V-395H179ZM376 271Q513 123 646 123Q776 123 848 238T919 558Q919 942 690 942Q523 942 376 734V271Z"/>
<glyph unicode="&#xff;" horiz-adv-x="1234" glyph-name="ydieresis" d="M142 -395V-247H222Q334 -247 385 -211T492 -56L541 48L85 1086H289L644 273L1002 1086H1179L632 -139Q568 -282 479 -338T226 -395H142ZM367 1283V1456H540V1283H367ZM762 1283V1456H935V1283H762Z"/>
</font>
</defs>
</svg>
